<svg xmlns="http://www.w3.org/2000/svg" xmlns:xlink="http://www.w3.org/1999/xlink" viewBox="0 0 595.28 77.06"><defs><style>.cls-1{isolation:isolate;}.cls-18,.cls-2,.cls-6{mix-blend-mode:soft-light;}.cls-2{fill:url(#linear-gradient);}.cls-3{fill:#766e63;}.cls-4{fill:#fff;}.cls-5{fill:#626462;}.cls-7{fill:url(#linear-gradient-2);}.cls-8{fill:url(#linear-gradient-3);}.cls-9{fill:url(#linear-gradient-4);}.cls-10{fill:url(#linear-gradient-5);}.cls-11{fill:url(#linear-gradient-6);}.cls-12{fill:url(#linear-gradient-7);}.cls-13{fill-rule:evenodd;fill:url(#linear-gradient-8);}.cls-14{fill:url(#linear-gradient-9);}.cls-15{fill:url(#linear-gradient-10);}.cls-16{fill:url(#linear-gradient-11);}.cls-17{fill:url(#linear-gradient-12);}.cls-18{fill:url(#linear-gradient-13);}</style><linearGradient id="linear-gradient" x1="21.36" y1="-13.52" x2="573.91" y2="-13.52" gradientTransform="matrix(1, 0, 0, -1.18, 0, -11.37)" gradientUnits="userSpaceOnUse"><stop offset="0" stop-color="#a76001"/><stop offset="0.09" stop-color="#a76001" stop-opacity="0.87"/><stop offset="0.29" stop-color="#a66001" stop-opacity="0.53"/><stop offset="0.51" stop-color="#a56001" stop-opacity="0.1"/><stop offset="0.63" stop-color="#a35e01" stop-opacity="0.13"/><stop offset="0.73" stop-color="#9c5801" stop-opacity="0.24"/><stop offset="0.82" stop-color="#904e01" stop-opacity="0.41"/><stop offset="0.91" stop-color="#7f4000" stop-opacity="0.66"/><stop offset="0.99" stop-color="#692d00" stop-opacity="0.98"/><stop offset="1" stop-color="#682c00"/></linearGradient><linearGradient id="linear-gradient-2" x1="263.11" y1="24.14" x2="263.39" y2="24.14" gradientUnits="userSpaceOnUse"><stop offset="0" stop-color="#a76001"/><stop offset="0.39" stop-color="#914e01"/><stop offset="1" stop-color="#682c00"/></linearGradient><linearGradient id="linear-gradient-3" x1="265.7" y1="21.84" x2="266.06" y2="21.84" xlink:href="#linear-gradient-2"/><linearGradient id="linear-gradient-4" x1="266.11" y1="22.38" x2="266.3" y2="22.38" xlink:href="#linear-gradient-2"/><linearGradient id="linear-gradient-5" x1="262.7" y1="24.01" x2="263.15" y2="24.01" xlink:href="#linear-gradient-2"/><linearGradient id="linear-gradient-6" x1="266.28" y1="22.32" x2="266.57" y2="22.32" xlink:href="#linear-gradient-2"/><linearGradient id="linear-gradient-7" x1="261.3" y1="24.83" x2="269.03" y2="24.83" xlink:href="#linear-gradient-2"/><linearGradient id="linear-gradient-8" x1="22.71" y1="24.04" x2="29.31" y2="24.04" xlink:href="#linear-gradient-2"/><linearGradient id="linear-gradient-9" x1="135.43" y1="24.13" x2="142.49" y2="24.13" xlink:href="#linear-gradient-2"/><linearGradient id="linear-gradient-10" x1="134.89" y1="25.33" x2="137.73" y2="25.33" xlink:href="#linear-gradient-2"/><linearGradient id="linear-gradient-11" x1="135.4" y1="26.74" x2="142.54" y2="26.74" xlink:href="#linear-gradient-2"/><linearGradient id="linear-gradient-12" x1="140.22" y1="25.32" x2="143.04" y2="25.32" xlink:href="#linear-gradient-2"/><linearGradient id="linear-gradient-13" x1="22.71" y1="43.94" x2="28.84" y2="43.94" xlink:href="#linear-gradient-2"/></defs><g class="cls-1"><g id="Layer_1" data-name="Layer 1"><rect class="cls-2" x="21.36" y="3.84" width="552.55" height="1.46"/><path d="M452.08,65.36V12.2h41.46V65.36Zm1.09-21.56V45h3v.56h-3V64.27h39.28V45.57H489.3V45h3.15V43.8H490.9v-.59h1.55V42h-1.56v-.58h1.56V40.23h-1.56v-.57h1.55V38.43h-1.55v-.56h1.56v-1.2H489.3V36.1h3.15V34.89H490.9v-.57h1.55V33.09h-1.56v-.56h1.56v-1.2H490.9v-.59h1.55V29.55h-1.56V29h1.56V27.77h-3v-.59h3V13.28H453.16V27.2h3.15v.58h-3.14V29h1.55v.57h-1.55v1.19h1.55v.59h-1.55v1.2h1.55v.57h-1.55v1.22h1.55v.56h-1.56V36.1h3.15v.59h-3.15v1.19h1.56v.58h-1.55v1.21h1.55v.57h-1.55v1.23h1.55V42h-1.55v1.2h1.55v.57Z"/><path d="M472.81,26.15a10.24,10.24,0,1,1-10.24,10.22A10.22,10.22,0,0,1,472.81,26.15ZM482,36.38a9.17,9.17,0,1,0-9.18,9.17A9.19,9.19,0,0,0,482,36.38Z"/><path d="M468.38,25.92,467,22.32l.24-.12a.59.59,0,0,0,.33-.83,2.86,2.86,0,0,1-.28-1.15,2.24,2.24,0,0,1,3.07-2.07,15.68,15.68,0,0,0,1.52.46.39.39,0,0,0,.14,0l.38-.59L472.3,18a1,1,0,0,1-.23-1.48,7.06,7.06,0,0,0,.48-.73,1.22,1.22,0,0,0,.09-.35l-.79.33v-.93l.75.32a1.45,1.45,0,0,0-.29-.82h1l-.3.74.06,0c.12,0,.25-.07.37-.12s.24-.12.37-.19v1l-.72-.31-.06,0a2.77,2.77,0,0,0,.12.41,2.1,2.1,0,0,0,.32.46,1,1,0,0,1-.17,1.67l.39.59a6.13,6.13,0,0,0,1.57-.43,2.22,2.22,0,0,1,3.12,1.64,2.11,2.11,0,0,1-.13,1.26c-.3.74-.26.84.45,1.23l-1.43,3.59A11.42,11.42,0,0,0,468.38,25.92ZM475.64,22a9.32,9.32,0,0,1,.33-.88c0-.11.23-.15.35-.23.07.12.19.23.19.35,0,.31,0,.63-.06.93a.54.54,0,0,1,.66.15.51.51,0,0,1,0,.59.42.42,0,0,1-.44.2,1.3,1.3,0,0,0,0-.4.25.25,0,0,0-.24-.1.55.55,0,0,0-.25.25,1.19,1.19,0,0,0,1.05,1.48c.22-.54.44-1.08.65-1.62a.27.27,0,0,0-.07-.2,1.18,1.18,0,0,1-.27-1.34c.06-.14.12-.28.17-.42a1.63,1.63,0,0,0-1.84-2.12c-.45.09-.87.29-1.3.42s-.64.14-1,.21c0,.62,0,1.24,0,1.85a.37.37,0,0,1-.13.31,1,1,0,0,0-.37.69,1.93,1.93,0,0,0,1.26-.79v1.95s0,0,0,.06c-.64-.57-.87-.71-1.26-.71a1.27,1.27,0,0,0,.88,1,1.21,1.21,0,0,0,1.62-.9.57.57,0,0,0-.14-.34.25.25,0,0,0-.25,0c-.07.09-.06.22-.09.33s0,0,0,0a.48.48,0,0,1-.36-.46.45.45,0,0,1,.27-.47A.49.49,0,0,1,475.64,22Zm-7.24,2.36a1.37,1.37,0,0,0,.94-.63,1,1,0,0,0,.06-1,.24.24,0,0,0-.36-.11.24.24,0,0,0-.1.35l.08.12a.45.45,0,0,1-.52-.2.48.48,0,0,1,0-.57.51.51,0,0,1,.68-.16c0-.28-.08-.57-.09-.85s0-.38.22-.42.33.14.39.3a8.27,8.27,0,0,1,.26.8c.24-.22.46-.28.67-.16a.48.48,0,0,1,.26.52.42.42,0,0,1-.33.38,1.12,1.12,0,0,0-.15-.35s-.22-.05-.25,0a.53.53,0,0,0-.12.35,1.15,1.15,0,0,0,1.46.93,1.31,1.31,0,0,0,1-.93s0-.08,0-.12a2,2,0,0,0-1.24.77v-2a1.93,1.93,0,0,0,1.31.77c-.11-.2-.15-.4-.27-.5a1,1,0,0,1-.28-.91c0-.22,0-.45,0-.67v-.79a8.09,8.09,0,0,1-2-.56,1.59,1.59,0,0,0-1.85.62,1.65,1.65,0,0,0-.09,1.76,1.2,1.2,0,0,1-.24,1.46.23.23,0,0,0,0,.21C468,23.26,468.18,23.8,468.4,24.35Z"/><path d="M466.5,48.36h1.42v.25c0,.62,0,1.24,0,1.86,0,.17.05.21.22.22a.56.56,0,0,0,.54-.26c.52-.66,1-1.32,1.57-2a.32.32,0,0,1,.2-.1H472l-.18.25L470,50.85a.29.29,0,0,0,0,.43c.75.84,1.49,1.68,2.23,2.53a.62.62,0,0,0,.09.11h-.22c-.5,0-1,0-1.49,0a.44.44,0,0,1-.37-.19c-.53-.66-1.07-1.31-1.59-2a.6.6,0,0,0-.63-.2s-.1.13-.1.2c0,.63,0,1.27,0,1.91v.25H466.5Z"/><path d="M480.2,53.93h-1.41c-.05,0-.12-.08-.14-.14-.13-.32-.24-.65-.37-1a.34.34,0,0,0-.23-.16h-2.36a.23.23,0,0,0-.24.18c-.11.32-.23.63-.36.95a.25.25,0,0,1-.16.14h-1.35c0-.08,0-.14.07-.2.72-1.73,1.44-3.47,2.15-5.2a.24.24,0,0,1,.26-.18h1.69a.27.27,0,0,1,.21.13q1.13,2.67,2.23,5.36S480.2,53.89,480.2,53.93Zm-2.37-2.31a1.28,1.28,0,0,1-.05-.17c-.24-.63-.48-1.26-.73-1.88,0-.07-.11-.12-.17-.18s-.15.11-.18.18c-.25.62-.48,1.24-.72,1.86,0,.06,0,.12-.05.19Z"/><path d="M481.9,52.65c.51.09,1,.21,1.46.26s1.06,0,1.59,0a.79.79,0,0,0,.34-.1.48.48,0,0,0,.28-.51.39.39,0,0,0-.33-.4c-.41-.1-.83-.15-1.23-.25a9.44,9.44,0,0,1-1.19-.31,1.34,1.34,0,0,1-.9-1.39,1.4,1.4,0,0,1,.92-1.4,3.82,3.82,0,0,1,1.49-.27,7.81,7.81,0,0,1,2.4.28v1a8.44,8.44,0,0,0-1.1-.19c-.56,0-1.13,0-1.7,0a.66.66,0,0,0-.27.09.43.43,0,0,0-.29.44.39.39,0,0,0,.31.39c.42.1.85.16,1.27.25s.78.16,1.16.28A1.32,1.32,0,0,1,487,52.1a1.48,1.48,0,0,1-.69,1.48,3.34,3.34,0,0,1-1.63.43,10.07,10.07,0,0,1-2.57-.21c-.18,0-.27-.11-.25-.32S481.9,53,481.9,52.65Z"/><path d="M462.61,48.36H464a.78.78,0,0,1,0,.14c0,1.13,0,2.26,0,3.4A2,2,0,0,1,462,54a5.7,5.7,0,0,1-1.7,0,1.82,1.82,0,0,1-1.65-1.77c-.09-1.25-.06-2.52-.09-3.79H460a1.69,1.69,0,0,1,0,.23c0,1,0,2,0,3a2.41,2.41,0,0,0,.08.6.89.89,0,0,0,.75.74,2.84,2.84,0,0,0,.92,0c.56-.1.84-.53.85-1.25,0-1,0-2.05,0-3.08Z"/><path d="M457.31,55.38c.6-.05.61-.05.82.47s.47,1.17.73,1.79c.26-.63.5-1.23.75-1.82s.2-.48.72-.45l.07,0,.25,3.16h-.45L460,56h0l-.33.76c-.18.41-.37.83-.53,1.26-.06.13-.14.14-.26.14s-.2,0-.26-.15c-.24-.6-.5-1.2-.75-1.8l-.13-.25-.2,2.59h-.44Z"/><path d="M480.05,58.56h-.45L479.41,56h0l-.83,1.94c-.05.13-.08.24-.28.24s-.24-.09-.3-.23c-.23-.58-.48-1.15-.72-1.72l-.12-.27-.2,2.6h-.45l.25-3.18a5,5,0,0,1,.55,0c.05,0,.11.11.14.17l.78,1.91a.85.85,0,0,0,.07.16c.16-.39.32-.75.47-1.11s.26-.62.38-.93.15-.24.32-.21.23,0,.37,0Z"/><path d="M480,62.84h-.45l-.19-2.62-.11.21c-.26.61-.52,1.22-.77,1.84a.25.25,0,0,1-.27.17c-.14,0-.22,0-.27-.17-.27-.66-.55-1.31-.88-2l-.19,2.52h-.45l.25-3.18a4.33,4.33,0,0,1,.51,0c.07,0,.14.1.17.17.26.61.51,1.23.76,1.84,0,.06.05.12.09.22a1.47,1.47,0,0,0,.09-.17c.26-.6.52-1.21.76-1.82.07-.2.17-.28.37-.25a1.76,1.76,0,0,0,.33,0Z"/><path d="M483.91,56.12v2.43h-.44V55.37a2.34,2.34,0,0,1,.46,0,.37.37,0,0,1,.18.15c.37.69.73,1.38,1.1,2.06a.46.46,0,0,0,.15.2v-2.4h.46v3.18a3.2,3.2,0,0,1-.44,0c-.06,0-.13-.09-.17-.15-.38-.69-.75-1.39-1.13-2.09l-.12-.21Z"/><path d="M466.37,55.38h.45v3.15c-.38.12-.5.07-.69-.27l-1.08-2-.13-.22v2.5h-.44V55.37a3.69,3.69,0,0,1,.47,0,.28.28,0,0,1,.16.16l1.1,2.05a.59.59,0,0,0,.16.2Z"/><path d="M473,55.43v.35c-.29,0-.55-.05-.82-.05a1.87,1.87,0,0,0-.53.05.59.59,0,0,0-.5.63v1.1a.6.6,0,0,0,.51.66,1.69,1.69,0,0,0,1-.06.26.26,0,0,0,.12-.15c0-.19,0-.37,0-.58h-.64V57h1c0,.42,0,.83,0,1.24,0,0-.07.11-.12.14a2.23,2.23,0,0,1-1.7.13.88.88,0,0,1-.67-.88c0-.43,0-.87,0-1.3a.91.91,0,0,1,.71-.92A3.24,3.24,0,0,1,473,55.43Z"/><path d="M470.22,58.55c-.46.05-.46,0-.6-.36-.07-.2-.1-.47-.24-.57s-.41,0-.63,0c-.59,0-.59,0-.78.56,0,0,0,0,0,.07-.14.39-.14.39-.59.34.05-.13.09-.27.14-.4.3-.83.6-1.67.89-2.51.07-.21.16-.31.39-.27a3,3,0,0,0,.3,0Zm-1-1.39-.48-1.38-.47,1.38Z"/><path d="M462.21,55.38c.58-.05.58-.05.76.48.31.84.61,1.69.91,2.53a1.43,1.43,0,0,1,.05.18h-.28a.19.19,0,0,1-.24-.16,5.49,5.49,0,0,0-.24-.68.26.26,0,0,0-.2-.14,7.37,7.37,0,0,0-.94,0,.23.23,0,0,0-.18.13,3.19,3.19,0,0,0-.21.59c-.05.2-.15.3-.36.26h-.21ZM462,57.16h1l-.47-1.38Z"/><path d="M474.33,55.76v1h1.34v.38h-1.34v1h1.55v.38h-2V55.38h1.94v.38Z"/><path d="M474.27,61.47v1h1.53v.38h-2V59.66h1.95V60h-1.5v1h1.32v.39Z"/><path d="M482.73,55.38v.38h-1.49v1h1.34v.38h-1.34v1h1.53v.39h-2V55.38Z"/><path d="M470.39,59.7v.36c-.36,0-.71-.06-1.05-.05s-.53.25-.43.54a.59.59,0,0,0,.26.28c.26.16.54.3.81.44a.87.87,0,0,1,.5,1.08.63.63,0,0,1-.53.49,3.64,3.64,0,0,1-1.47-.05.18.18,0,0,1-.1-.12,1.17,1.17,0,0,1,0-.26c.41,0,.8.06,1.19.07.2,0,.42,0,.48-.28s0-.42-.3-.56-.56-.28-.84-.44a.83.83,0,0,1-.45-1,.63.63,0,0,1,.55-.57A3.27,3.27,0,0,1,470.39,59.7Z"/><path d="M482.55,60.06c-.33,0-.66-.05-1-.05s-.44.11-.49.31,0,.37.27.51.59.32.89.48a.78.78,0,0,1,.45.68c0,.57-.23.87-.84.89a7.94,7.94,0,0,1-1-.05c-.34,0-.36-.07-.29-.44.28,0,.55.08.83.1a1.83,1.83,0,0,0,.47,0,.37.37,0,0,0,.35-.3.43.43,0,0,0-.2-.47l-.57-.3c-.15-.08-.31-.16-.45-.25A.89.89,0,0,1,480.7,60a.56.56,0,0,1,.49-.34,9.77,9.77,0,0,1,1.21,0C482.59,59.67,482.61,59.76,482.55,60.06Z"/><path d="M464.87,60.06c-.37,0-.7-.05-1-.05a.41.41,0,0,0-.46.31.43.43,0,0,0,.26.51l.81.43A.87.87,0,0,1,465,62a.72.72,0,0,1-.77.88,8.84,8.84,0,0,1-1.25-.08s-.1-.08-.11-.12a1.12,1.12,0,0,1,0-.26c.41,0,.81.06,1.21.07.21,0,.41,0,.46-.31a.44.44,0,0,0-.28-.52c-.29-.16-.59-.3-.88-.47a.85.85,0,0,1-.4-1.09.56.56,0,0,1,.52-.43,8.42,8.42,0,0,1,1.23,0C465,59.69,464.79,59.94,464.87,60.06Z"/><path d="M466.91,62.83h-.45c0-.27,0-.53,0-.79a.92.92,0,0,0-.1-.36c-.31-.59-.64-1.18-1-1.77,0-.08-.08-.16-.14-.26h.36a.22.22,0,0,1,.24.15c.24.49.5,1,.76,1.45l.08.14.64-1.23a1,1,0,0,1,0-.1c.21-.42.21-.42.73-.39-.12.22-.24.43-.35.65-.23.41-.45.83-.69,1.23a1.1,1.1,0,0,0-.16.66C466.92,62.4,466.91,62.61,466.91,62.83Z"/><path d="M487.79,58.56h-.45V55.78h-1v-.4h2.36v.38h-.95Z"/><path d="M472.3,62.85H472l-.12,0V60.05h-1v-.39h2.37V60h-1Z"/><path d="M469.86,17.43a.37.37,0,0,1-.39.35.36.36,0,0,1,0-.72A.37.37,0,0,1,469.86,17.43Z"/><path d="M476.12,17.06a.35.35,0,0,1,.36.34.35.35,0,0,1-.35.38.37.37,0,0,1-.37-.37A.36.36,0,0,1,476.12,17.06Z"/><path d="M471.38,18.28a.34.34,0,0,1-.35-.35.35.35,0,0,1,.36-.37.39.39,0,0,1,.36.37A.37.37,0,0,1,471.38,18.28Z"/><path d="M474.23,18.28a.35.35,0,0,1-.36-.35.37.37,0,0,1,.38-.37.36.36,0,0,1,.34.37A.34.34,0,0,1,474.23,18.28Z"/><path d="M467.06,20.72a.35.35,0,0,1-.36.35.34.34,0,0,1-.36-.37.35.35,0,0,1,.37-.35A.38.38,0,0,1,467.06,20.72Z"/><path d="M470.81,17.61a.36.36,0,0,1-.36.35.39.39,0,0,1-.36-.38.36.36,0,0,1,.39-.34A.34.34,0,0,1,470.81,17.61Z"/><path d="M477.46,17.59a.41.41,0,0,1-.37.36.37.37,0,0,1-.36-.38.34.34,0,0,1,.38-.34A.36.36,0,0,1,477.46,17.59Z"/><path d="M479.27,20.71a.34.34,0,0,1-.35.36.36.36,0,0,1-.37-.37.4.4,0,0,1,.38-.35A.34.34,0,0,1,479.27,20.71Z"/><path d="M475.17,18a.35.35,0,0,1-.36-.35.33.33,0,0,1,.34-.37.35.35,0,0,1,.37.33A.38.38,0,0,1,475.17,18Z"/><path d="M478.94,18.81a.36.36,0,0,1-.36.36.34.34,0,0,1-.36-.37.35.35,0,0,1,.36-.35A.37.37,0,0,1,478.94,18.81Z"/><path d="M479.27,19.73a.33.33,0,0,1-.34.36.37.37,0,0,1-.38-.36.36.36,0,0,1,.36-.35A.34.34,0,0,1,479.27,19.73Z"/><path d="M468.53,18a.4.4,0,0,1-.37-.35.35.35,0,0,1,.35-.37.34.34,0,0,1,.37.35A.36.36,0,0,1,468.53,18Z"/><path d="M466.7,20.09a.35.35,0,0,1-.36-.35.34.34,0,0,1,.34-.36.36.36,0,1,1,0,.71Z"/><path d="M467.05,18.45a.37.37,0,0,1,.35.37.36.36,0,0,1-.36.35.36.36,0,0,1-.36-.37A.37.37,0,0,1,467.05,18.45Z"/><path d="M477.94,18.42a.36.36,0,0,1-.36-.35.37.37,0,0,1,.36-.37.36.36,0,0,1,.36.37A.34.34,0,0,1,477.94,18.42Z"/><path d="M467.66,18.42a.34.34,0,0,1-.34-.36.35.35,0,0,1,.35-.36.36.36,0,0,1,.36.38A.35.35,0,0,1,467.66,18.42Z"/><path d="M467,22a.36.36,0,0,1-.36-.36.36.36,0,0,1,.38-.36.35.35,0,0,1,.34.36A.37.37,0,0,1,467,22Z"/><path d="M478.61,21.29a.36.36,0,0,1,.36.35.36.36,0,0,1-.36.37.37.37,0,0,1-.35-.37A.34.34,0,0,1,478.61,21.29Z"/><path d="M470.7,42.88c-.39-.46-.78-.94-1.19-1.4a15.6,15.6,0,0,0-2.72-2.41.44.44,0,0,1-.22-.43c0-.86,0-1.71,0-2.6a18,18,0,0,1,3.71,2.28,26.63,26.63,0,0,1,8.4-6.83v.23c0,.67,0,1.34,0,2a.36.36,0,0,1-.16.32,25,25,0,0,0-3.73,3.24,26.88,26.88,0,0,0-4,5.39l-.11.19Z"/><path class="cls-3" d="M517.85,39.07c.12-8,2.67-16,5.46-20.2a14.65,14.65,0,0,1,7.49-5.72h0a31.79,31.79,0,0,1,17.79,0,15.29,15.29,0,0,1,7.49,5.72c2.8,4.19,5.34,12.19,5.47,20.2-.13,8-2.67,16-5.47,20.2A14.87,14.87,0,0,1,548.46,65a28.62,28.62,0,0,1-8.76,1.27h-.13A33.36,33.36,0,0,1,530.8,65a15.3,15.3,0,0,1-7.49-5.71C520.64,55.07,518,47.07,517.85,39.07Z"/><path class="cls-4" d="M533.15,28.14a2.1,2.1,0,0,0,.39-1.78c0-.5-.26-.76-.26-1,.38.25.51.51.51,1.14l.13-.38a3.47,3.47,0,0,0-.51-2.54l-.13.13-.38.38a2.55,2.55,0,0,1,0-1.4c-.38.13-.76.25-.89.64a1.55,1.55,0,0,0-.13,1.65l.39.76a1.42,1.42,0,0,1-.89-1c-.13,1.27-.13,2.67.76,3.56Zm13.47-4.7a1.21,1.21,0,0,0-.38-1.27,1.23,1.23,0,0,0-1.14-.12c-.89.38-1,1.27-1.27,2.15l.5.64C545.22,24.59,546.37,24.46,546.62,23.44ZM547.26,41l-.51.51v1l1.78,1.78c.5-.77,1-1.27.88-2.29a6.2,6.2,0,0,0-1-.89c0,.89.13,1.91-.51,2.29V41.73ZM531.38,28.65v.64H532c.13.63.13.76.26,1.65a1.88,1.88,0,0,1,.88.51l.26-2.16H534v-.64Zm11.68,11.18h6.86v-2h-6.86ZM546,45a1.15,1.15,0,0,1-.39-.89,3.35,3.35,0,0,0-.38.63c-.25.38,0,.89.38,1.27l2.54,2.54c.39.51.26,1.27.26,2,.38-.26.63-.51,1-.77a6.54,6.54,0,0,0-.12-1.52C549,47.71,547.13,46.18,546,45Zm.5-10.29V31.32l-1.39.13v1.39a21.23,21.23,0,0,1-1.91,2.8,6.5,6.5,0,0,1,1.52.12l.51,1h3.18l.25-1.14.89-.13V32.72c-.38,0-.51.12-.76.12v-2l-1.4.38v3.56c0,.13-.25.25-.38.25C546.62,35,546.49,34.88,546.49,34.75Zm-1.27,14.86a6.24,6.24,0,0,0,1,.89c0-.89-.13-1.91.51-2.29v1.65l.51.64a2,2,0,0,0,.5-.64v-1L546,47.32C545.6,48.09,545,48.59,545.22,49.61Zm-3.43-22.1.89-1c-.25-.51,0,0-.38-.63a8.12,8.12,0,0,0-1,1.14ZM532,33.35c1.65-.13,1.78,1.91,2.92,2.67.26.25.51.51.64.38a7.78,7.78,0,0,0,2.28-2.29c0,.26.13.38.26.64a.7.7,0,0,0,.63.25c.13.51.39,1,.51,1.65a10.56,10.56,0,0,0-2.67,6.86c-1.27,1.4-1.27,3.31-1.65,5.08-.38,1-1.9,1.53-1.65,2.8.13.25.13.51.51.76.13.13.38.26.51,0a27.86,27.86,0,0,1,1.52-2.67c0-1.9,1.27-3.3,2.42-4.82a2.47,2.47,0,0,1,0-1.91v.13c.12,1.52.89,2.79,1.27,4.19-.51.64-.38,1.52-.77,2.16a5.43,5.43,0,0,0-.5.89.12.12,0,0,0,.12.13,2,2,0,0,0,1.65-.77c-.12-.76.51-1.27.89-1.77s-.38-.89-.38-1.4c0-1.91.26-3.3-1-4.7l1.14-.89a3.69,3.69,0,0,0,1.4-1.4,6.22,6.22,0,0,0-.64-3.94,22.59,22.59,0,0,0,.51-2.92l.51-1a11.78,11.78,0,0,0,2-1.4,16.31,16.31,0,0,0-.13-3.56,6.62,6.62,0,0,0-1.39-2.41,2.47,2.47,0,0,0-.51,1,2.36,2.36,0,0,0,1,1.66c.26.88-.25,1.65,0,2.54l-1.14.76a1.9,1.9,0,0,0-1.4,1h-.63a.94.94,0,0,1-.26-.63c.13-.13.26-.13.26-.25a7.61,7.61,0,0,0,.63-1.53,3.88,3.88,0,0,0-.63-1.52.56.56,0,0,0-.64-.13c-.38.38-.76-.25-1.14,0a2.45,2.45,0,0,0-.89,1.78,7.62,7.62,0,0,0,1,1.65l.25,1.14-.38.51a1.75,1.75,0,0,0-1.4.76,5.72,5.72,0,0,1-1.52,1.91,3.12,3.12,0,0,1-.76-.64c-1-.76-1.66-1.9-2.67-2.54a1,1,0,0,0-1,.13c.26.51.13,1.4.89,1.65Zm.26,2.92v.26h.63V34.11c-.25-.12-.51-.38-.76-.25A14.26,14.26,0,0,1,532.27,36.27Zm4.19,1.53h-7v2h7Zm-4.19,26.67a28.26,28.26,0,0,0,7.36.89,27.73,27.73,0,0,0,7.37-.89c4.45-1.14,7.37-3.93,9.27-8.38a47.62,47.62,0,0,0,3.56-17.15,44.48,44.48,0,0,0-3.56-17.15A13.81,13.81,0,0,0,547,13.41a28.34,28.34,0,0,0-7.37-.89,27.6,27.6,0,0,0-7.36.89c-4.45,1.14-7.37,3.93-9.28,8.38a47.63,47.63,0,0,0-3.55,17.15A44.49,44.49,0,0,0,523,56.09,13.59,13.59,0,0,0,532.27,64.47Zm1.39-5.2-1.27,3.81-.76-.26.89-2.54a9.38,9.38,0,0,1-1-.38l.13-.51a1.23,1.23,0,0,0,1.14-.12L533,59Zm4.07,4.44a1.34,1.34,0,0,1-1,.13,2.31,2.31,0,0,1-1-.26,1,1,0,0,1-.51-1.14.84.84,0,0,1,.51-.89l.25-.13a.86.86,0,0,1-.51-.76,1.32,1.32,0,0,1,.51-.89,1.37,1.37,0,0,1,1-.12,2.31,2.31,0,0,1,1,.25c.26.25.51.51.38.89s-.38.63-.63.76l.25.13a1.15,1.15,0,0,1,.51,1C538.36,63.08,538.11,63.58,537.73,63.71Zm2.67.26c0-1.15,1-1.66,1.77-2.42a.77.77,0,0,0,.13-.76c-.13-.13-.25-.25-.38-.25a1.24,1.24,0,0,0-.64.12,1,1,0,0,0-.25.76h-.76a1.38,1.38,0,0,1,1.65-1.65c.38.13.89.26,1,.77a1.16,1.16,0,0,1-.26,1.39,16.26,16.26,0,0,0-1.4,1.27l1.91-.12v.63Zm8-1.53a2.06,2.06,0,0,1-.89.51,1.37,1.37,0,0,1-1,0,1.56,1.56,0,0,1-.89-.89,1,1,0,0,1,.26-1l.12-.12a1,1,0,0,1-.76-.64,1,1,0,0,1,.26-1,1.87,1.87,0,0,1,.89-.51,1.35,1.35,0,0,1,1,0,.8.8,0,0,1,.64.76c.12.38-.13.63-.38.89h.25a1.14,1.14,0,0,1,.76.76A1.39,1.39,0,0,1,548.4,62.44Zm10.29-23.37a1.27,1.27,0,0,1-1,.76v-.76h.38a2.14,2.14,0,0,0,.13-.89c0-.26-.13-.64-.38-.64s-.38,0-.38.13c-.51.64-.13,2.16-1.27,2.29a1.22,1.22,0,0,1-1.27-.51,2.44,2.44,0,0,1,0-2.29,1.15,1.15,0,0,1,1-.51v.77a.69.69,0,0,0-.63.38,1.43,1.43,0,0,0,.13,1.27.39.39,0,0,0,.5,0c.51-.38.38-1.15.64-1.78a1.26,1.26,0,0,1,.51-.64,1.23,1.23,0,0,1,1.27.26A2,2,0,0,1,558.69,39.07Zm-.38-6.1-3.81,1.91-.13-.77.76-.38-.25-1.4-.77-.25-.12-.76,4.19.76ZM557,26.24l.76,3.17-.64.13-.25-1.14-3.18.89-.25-.77,3.3-.89-.25-1.14Zm-.77-2-3.68,1.53-.38-.76,3.68-1.65ZM552.84,18c1,1.4,1.78,2,1.4,2.92a1,1,0,0,1-.76.51,1.89,1.89,0,0,1-.76-.25c.38.89-.76,1.27-1.15,1.77l-.5-.63c.12-.38,1.27-.76.89-1.4,0-.13-.39-.51-.51-.76l-1.27,1-.51-.64Zm-5.46-3.43,2.67,1.14-.25.64-1.91-.76-.38.76,1.65.76-.25.64L547.26,17l-.39,1,1.91.76-.25.64-2.67-1.15Zm-5.08-.89c.13,1,.38,2.16.51,3.05.38-.76.76-1.91,1.14-2.92l.89.13-1.78,3.81-.76-.13-.89-4.19Zm-7.62.38.51,2.92c0,.26.25.38.51.38h.38a.49.49,0,0,0,.38-.12c.25-.13.38-.38.25-.51l-.51-2.92.77-.13.5,2.92a1.38,1.38,0,0,1-.25.89,2.08,2.08,0,0,1-1.14.64,1.48,1.48,0,0,1-1.27-.26c-.26-.12-.38-.38-.51-.76l-.51-2.92Zm-5,1.65L533,18.36l-.76.38-.77-.51-1.27.77.26.89-.77.38L529,16.2Zm-4.31,3.43.63.38-1,1.78.77.38.89-1.65.63.38-.89,1.66,1,.5,1-1.9.64.38-1.4,2.54-3.55-1.91ZM523.5,25a1.8,1.8,0,0,1,.89.25.94.94,0,0,1,.25.76c.51-.76,1.4-.12,2.16-.12l-.25.76c-.38,0-1.4-.51-1.65.13a2.66,2.66,0,0,0-.38.88l1.52.51-.25.76L522,27.76C522.48,26.11,522.61,25.09,523.5,25Zm1.14,15h-3.93c0-.89-.13-2.42.12-2.67a.86.86,0,0,1,1-.38.67.67,0,0,1,.63.63,1.36,1.36,0,0,1,.89-.76,1.12,1.12,0,0,1,1.15.64c.25.63.12.76.12,2.41Zm.51-7a1.7,1.7,0,0,1-.63,1.14,1.06,1.06,0,0,1-.89.26l-2.92-.51.12-.76,2.92.5a.63.63,0,0,0,.51-.25.46.46,0,0,0,.13-.38v-.38c0-.26-.25-.38-.38-.51l-2.67-.51.13-.76,2.92.51a.92.92,0,0,1,.76.51A1.67,1.67,0,0,1,525.15,33Zm3.81-9.4a7.42,7.42,0,0,1,4.58-3.94,24.14,24.14,0,0,1,6.09-.76h.13a23.55,23.55,0,0,1,6.1.76,7.11,7.11,0,0,1,4.57,3.94,36.94,36.94,0,0,1,3.05,15.24,39.21,39.21,0,0,1-3.05,15.25A7.42,7.42,0,0,1,545.86,58a24.28,24.28,0,0,1-6.1.77h-.13a24.15,24.15,0,0,1-6.09-.77A7.09,7.09,0,0,1,529,54.06a37.15,37.15,0,0,1-3.05-15.25A38,38,0,0,1,529,23.57Zm13.72,29.09h-2.16a3.25,3.25,0,0,1-.63-.76l-.76.76H537v1h2.16v2.41h1.39V53.68h2.16Zm2.42-10.93a6.58,6.58,0,0,0,.12,1.53c.13.63,2,2.16,3.18,3.3a1.18,1.18,0,0,1,.38.89,2.89,2.89,0,0,0,.38-.63,1.28,1.28,0,0,0-.38-1.27L546.24,43a3.51,3.51,0,0,1-.26-2A2.49,2.49,0,0,1,545.1,41.73Zm-21.35-16c-.5,0-.63.63-.76,1.4l1,.25c.13-.63.38-1.14.25-1.4S523.88,25.86,523.75,25.73Zm33.79,6.86-1.77-.26.12,1ZM531,17.85l-1.28-1.14.51,1.65Zm22,2.8c.13,0,.26-.13.51-.26.38-.38-.13-.89-.64-1.39l-.76.63C552.46,20.14,552.72,20.65,553,20.65ZM536.46,61.17a.45.45,0,0,0,.38.13h.38c.13-.13.25-.13.25-.26a1.2,1.2,0,0,0-.12-.63.47.47,0,0,0-.38-.13c-.13,0-.39,0-.39.13a.51.51,0,0,0-.25.51C536.33,61,536.33,61.17,536.46,61.17Zm.76.89c-.13,0-.25-.13-.38-.13h-.38a.59.59,0,0,0-.38.64.94.94,0,0,0,.25.51c.13.12.25.12.51.12s.38,0,.51-.12a.58.58,0,0,0-.13-1Zm9.65-1.65c.13,0,.26-.13.39-.13a.48.48,0,0,0,.12-.38c0-.25-.12-.51-.38-.51h-.51c-.12,0-.25.13-.38.26s-.13.5-.13.63.13.26.26.26A1.11,1.11,0,0,1,546.87,60.41Zm.51.63H547c-.13,0-.25.13-.38.13s-.25.38-.25.64a.58.58,0,0,0,.38.38.41.41,0,0,0,.51,0,.93.93,0,0,0,.5-.26.74.74,0,0,0,.13-.51A.57.57,0,0,0,547.38,61ZM544.21,41h-2v6h2Zm-3.56,8.89c-.13.39-.76.64-1.14.77a1.71,1.71,0,0,0,1.39.89,2,2,0,0,0,2-.77,2.29,2.29,0,0,0,.25-2,2.42,2.42,0,0,0-1.65-1.27,1.14,1.14,0,0,1-.13.64A2.82,2.82,0,0,0,540.65,49.86Zm1.27,6.1a2,2,0,0,0,2,.13,2,2,0,0,0,.89-.89c.13-.38.26-.38.26-.76h-3.94A1.53,1.53,0,0,0,541.92,56Zm-8.51-10.8a.83.83,0,0,1,.25-.76,1,1,0,0,1,.64-.12,3.89,3.89,0,0,0,.63.25c0-1,0-2.41-.63-2.67a1.49,1.49,0,0,0-1.27,0,1.34,1.34,0,0,0-.76.89v2.92c0,.26-.13.26-.39.26s-.38-.13-.38-.26V42.75a2.35,2.35,0,0,0-.25-.89l-1.52.38h-.13c.38.26.51.26.63.77v4.44a1.81,1.81,0,0,0,1,.64h.51a1.84,1.84,0,0,0,1.14-.26C533.54,47.2,533.41,46.31,533.41,45.16Zm-10.16-7.62c-.51.13-.38.64-.38,1.53H524c0-.89,0-1.15-.13-1.4A.93.93,0,0,0,523.25,37.54Zm11.68,17.79a3.14,3.14,0,0,0,.89.89,1.94,1.94,0,0,0,2-.13,2.37,2.37,0,0,0,.89-1.4h-3.93C534.68,54.82,534.81,55,534.93,55.33ZM521.72,37.54c-.51,0-.38.51-.38,1.53h1V37.8C522.1,37.67,522.1,37.54,521.72,37.54Zm-3.94-25.78V66.12h43.7V11.76Zm0,27.18c.13-8,2.67-16,5.47-20.2A14.5,14.5,0,0,1,530.74,13h0a31.79,31.79,0,0,1,17.79,0A15.3,15.3,0,0,1,556,18.74c2.8,4.19,5.34,12.2,5.46,20.2-.12,8-2.66,16-5.46,20.2a14.85,14.85,0,0,1-7.62,5.71,28.72,28.72,0,0,1-8.77,1.27h-.12a33,33,0,0,1-8.77-1.27,15.21,15.21,0,0,1-7.49-5.71C520.58,55,517.91,46.94,517.78,38.94Z"/><path class="cls-5" d="M280.18,23.09c-.5.08-.58.19-.79.71-.3.77-.75,2.08-1.22,3.4h-.29c-.42-1.05-.83-2-1.22-3-.39,1-.79,1.94-1.17,3h-.32c-.36-1.16-.75-2.31-1.15-3.48-.18-.49-.27-.57-.73-.63v-.26h2.12v.26c-.6.1-.65.16-.5.59.22.73.47,1.47.71,2.18h0c.37-.91.74-1.9,1.15-3h.28c.37,1,.78,2,1.2,3h0c.19-.61.48-1.49.66-2.18.12-.47.06-.54-.58-.63v-.26h1.81Z"/><path class="cls-5" d="M287.16,23.09c-.5.08-.59.19-.8.71-.3.77-.74,2.08-1.21,3.4h-.3c-.41-1.05-.83-2-1.22-3-.38,1-.78,1.94-1.17,3h-.31c-.37-1.16-.75-2.31-1.16-3.48-.17-.49-.26-.57-.73-.63v-.26h2.12v.26c-.6.1-.64.16-.49.59.22.73.46,1.47.7,2.18h0c.38-.91.75-1.9,1.15-3H284c.38,1,.79,2,1.2,3h0c.19-.61.49-1.49.66-2.18.13-.47.06-.54-.57-.63v-.26h1.81Z"/><path class="cls-5" d="M294.13,23.09c-.5.08-.58.19-.79.71-.3.77-.75,2.08-1.22,3.4h-.29c-.42-1.05-.83-2-1.23-3-.38,1-.78,1.94-1.16,3h-.32c-.36-1.16-.75-2.31-1.16-3.48-.17-.49-.26-.57-.72-.63v-.26h2.12v.26c-.6.1-.65.16-.5.59.22.73.47,1.47.71,2.18h0c.37-.91.74-1.9,1.15-3H291c.37,1,.78,2,1.2,3h0c.19-.61.48-1.49.66-2.18.12-.47.06-.54-.58-.63v-.26h1.81Z"/><path class="cls-5" d="M294.4,27.21a.56.56,0,0,1-.58-.61.58.58,0,0,1,.59-.58.57.57,0,0,1,.58.58.56.56,0,0,1-.58.61Z"/><path class="cls-5" d="M295.71,27.09v-.26c.62-.07.71-.13.71-.78V21.47c0-.67-.07-.69-.69-.75v-.24a8.48,8.48,0,0,0,1.54-.34v5.91c0,.66.09.72.74.78v.26Z"/><path class="cls-5" d="M300.74,22.71A2.17,2.17,0,0,1,303,24.88a2.22,2.22,0,0,1-2.22,2.33,2.16,2.16,0,0,1-2.25-2.15,2.29,2.29,0,0,1,2.25-2.35Zm-.13.33c-.57,0-1.11.58-1.11,1.69s.54,2.13,1.34,2.13c.57,0,1.09-.38,1.09-1.75,0-1.17-.47-2.07-1.3-2.07Z"/><path class="cls-5" d="M305.72,27.09v-.26c.42-.06.5-.14.34-.4l-.72-1.1c-.22.33-.45.69-.63,1s-.16.43.33.51v.26h-1.86v-.26a1.33,1.33,0,0,0,1.11-.63c.29-.34.55-.72.85-1.15l-.87-1.33a1,1,0,0,0-1-.63v-.26h2.07v.26c-.43.06-.46.15-.28.42l.57.87c.2-.31.4-.6.56-.89s.11-.34-.32-.4v-.26h1.84v.26a1.3,1.3,0,0,0-1.1.52c-.21.23-.44.57-.78,1l1,1.46a1.23,1.23,0,0,0,1.08.72v.26Z"/><path class="cls-5" d="M311.36,27.21a.78.78,0,0,1-.51-.2.91.91,0,0,1-.24-.41,3.41,3.41,0,0,1-1.15.61A1.21,1.21,0,0,1,308.23,26c0-.48.27-.78.81-.95a6.15,6.15,0,0,0,1.54-.64v-.17c0-.7-.32-1.08-.8-1.08a.56.56,0,0,0-.42.18,1.56,1.56,0,0,0-.3.66.31.31,0,0,1-.32.24.49.49,0,0,1-.45-.44c0-.14.12-.26.32-.4a4.83,4.83,0,0,1,1.51-.69A1.34,1.34,0,0,1,311,23a1.48,1.48,0,0,1,.48,1.24V26c0,.43.17.58.35.58a.79.79,0,0,0,.36-.11l.1.26Zm-.78-2.46-.81.38c-.39.17-.6.36-.6.73a.7.7,0,0,0,.68.74,1.21,1.21,0,0,0,.73-.32Z"/><path class="cls-5" d="M317,22.91a1.34,1.34,0,0,1-.45.5l-.56,0a1.36,1.36,0,0,1,.28.86,1.63,1.63,0,0,1-1.78,1.56,4.17,4.17,0,0,1-.52-.05.57.57,0,0,0-.25.37c0,.18.18.38.63.38l1,0c.6,0,1.45.18,1.45,1.17a2.39,2.39,0,0,1-2.52,2c-1.13,0-1.73-.64-1.75-1.19a.73.73,0,0,1,.26-.57c.22-.2.57-.46.81-.64a1.27,1.27,0,0,1-.75-.54.69.69,0,0,1-.11-.43,2.1,2.1,0,0,0,.88-.59,1.4,1.4,0,0,1-.87-1.31,1.71,1.71,0,0,1,1.81-1.63h0a2.08,2.08,0,0,1,1,.25c.51,0,1-.08,1.39-.13Zm-2.32,4.33a1.27,1.27,0,0,0-.86.2,1,1,0,0,0-.42.72c0,.52.55.95,1.32.95s1.38-.47,1.38-1.06a.72.72,0,0,0-.46-.7,2.85,2.85,0,0,0-.95-.11ZM314.47,23c-.4,0-.78.39-.78,1.16s.35,1.3.89,1.3.8-.39.8-1.16-.34-1.3-.9-1.3Z"/><path class="cls-5" d="M320.89,26.22a2.32,2.32,0,0,1-1.68,1,2,2,0,0,1-1.94-2.08,2.47,2.47,0,0,1,.63-1.67,2.14,2.14,0,0,1,1.5-.75h0a1.55,1.55,0,0,1,1.52,1.51c0,.19-.06.27-.24.31s-1.42.13-2.57.17c0,1.26.76,1.8,1.45,1.8a1.67,1.67,0,0,0,1.15-.49Zm-1.73-3.14c-.42,0-.85.38-1,1.2.53,0,1.05,0,1.61,0,.17,0,.23-.06.23-.19a.91.91,0,0,0-.84-1Z"/><path class="cls-5" d="M324.33,27.09v-.26c.57-.06.63-.14.63-.83V24.41c0-.68-.27-1.09-.88-1.09a1.81,1.81,0,0,0-1,.48v2.26c0,.67,0,.71.63.77v.26h-2.21v-.26c.66-.08.72-.13.72-.78v-2c0-.63-.07-.67-.59-.76v-.25a6.36,6.36,0,0,0,1.45-.39v.79c.2-.15.41-.3.67-.47a1.49,1.49,0,0,1,.82-.29c.79,0,1.29.56,1.29,1.53v1.82c0,.67.06.7.63.77v.26Z"/><path class="cls-5" d="M330.76,26.19a2.44,2.44,0,0,1-1.71,1,2,2,0,0,1-2-2,2.31,2.31,0,0,1,1-1.9,2.77,2.77,0,0,1,1.53-.56h0a1.43,1.43,0,0,1,.9.27.34.34,0,0,1,.16.3.48.48,0,0,1-.35.44c-.06,0-.11,0-.2-.11a1.48,1.48,0,0,0-1-.42c-.62,0-1.18.49-1.18,1.53A1.56,1.56,0,0,0,330.59,26Z"/><path class="cls-5" d="M335.85,23.09c-.52.08-.61.16-.88.72s-.57,1.32-1.25,2.9a24,24,0,0,0-1.06,2.67.29.29,0,0,1-.31.23.59.59,0,0,1-.59-.5c0-.16.08-.25.25-.36a1.94,1.94,0,0,0,.78-.86,4.93,4.93,0,0,0,.29-.63.56.56,0,0,0,0-.44c-.42-1.16-.88-2.37-1.16-3s-.32-.63-.85-.71v-.26h2.1v.26c-.46.08-.52.17-.39.52l.89,2.39c.27-.61.7-1.77.89-2.36.13-.36.05-.47-.51-.55v-.26h1.81Z"/><path class="cls-5" d="M336.05,27.21a.56.56,0,0,1-.57-.61.58.58,0,0,1,.59-.58.57.57,0,0,1,.58.58.56.56,0,0,1-.58.61Z"/><path class="cls-5" d="M341.32,26.19a2.4,2.4,0,0,1-1.7,1,2,2,0,0,1-2-2,2.32,2.32,0,0,1,1-1.9,2.8,2.8,0,0,1,1.54-.56h0A1.4,1.4,0,0,1,341,23a.32.32,0,0,1,.16.3.49.49,0,0,1-.34.44c-.06,0-.11,0-.2-.11a1.48,1.48,0,0,0-1-.42c-.62,0-1.18.49-1.18,1.53A1.56,1.56,0,0,0,341.16,26Z"/><path class="cls-5" d="M344.08,22.71a2.17,2.17,0,0,1,2.21,2.17,2.22,2.22,0,0,1-2.21,2.33,2.16,2.16,0,0,1-2.26-2.15,2.29,2.29,0,0,1,2.26-2.35ZM344,23c-.58,0-1.11.58-1.11,1.69s.53,2.13,1.33,2.13c.58,0,1.09-.38,1.09-1.75,0-1.17-.46-2.07-1.3-2.07Z"/><path class="cls-5" d="M352.36,27.09v-.26c.56-.06.67-.1.67-.8V24.45c0-.73-.28-1.13-.85-1.13a1.81,1.81,0,0,0-1.06.49,3.88,3.88,0,0,1,0,.41V26.1c0,.61.09.67.63.73v.26H349.6v-.26c.59-.06.68-.1.68-.75V24.43c0-.73-.28-1.11-.84-1.11a1.88,1.88,0,0,0-1.05.48v2.28c0,.63.09.69.54.75v.26H346.8v-.26c.64-.06.73-.12.73-.76v-2c0-.62,0-.68-.6-.76v-.25a6.54,6.54,0,0,0,1.45-.39v.8c.21-.14.43-.32.73-.5a1.51,1.51,0,0,1,.82-.27,1.23,1.23,0,0,1,1.11.81c.29-.22.57-.4.81-.56a1.49,1.49,0,0,1,.75-.25c.79,0,1.3.55,1.3,1.53v1.84c0,.65.07.68.64.75v.26Z"/><g class="cls-6"><path class="cls-7" d="M263.19,24.09c.05.1-.08,0-.08.08l0,0s.26,0,.24-.06S263.21,24.1,263.19,24.09Z"/><path class="cls-8" d="M265.94,21.89c.07,0,.18-.12.07-.11s-.25,0-.31,0h.08C265.79,21.9,265.86,21.92,265.94,21.89Z"/><path class="cls-9" d="M266.22,22.45s.13-.14,0-.16-.15.08-.15.13S266.17,22.47,266.22,22.45Z"/><path class="cls-10" d="M263.15,24.06c0-.11-.5-.21-.44,0,0-.09.19,0,.22,0s0,.1.06.1S263.16,24.09,263.15,24.06Z"/><path class="cls-11" d="M266.32,22.28s.12.14,0,.13v0s-.05,0-.05,0l.06,0-.08.05s.29,0,.25-.07.09,0,0-.07,0,0-.07-.08a.69.69,0,0,1,0-.1s0-.07,0-.07a.29.29,0,0,0,0-.06c-.05,0-.19.08-.13.15s0,0,0,0S266.3,22.29,266.32,22.28Z"/><path class="cls-12" d="M265.16,21A3.86,3.86,0,1,0,269,24.83,3.86,3.86,0,0,0,265.16,21ZM267,23.2a.86.86,0,0,0-.52.11s-.22,0-.12-.08.22-.06.21-.11.14-.11.13-.21.21-.09.25-.09.16.19.23.21,0,.13-.1.12.12.06.12.08,0-.09.07-.13,0-.05,0-.07.07,0,.06,0-.27-.16-.22-.32c0,.05.14.15.17.17s.05.06.09.12.11.17.14.17,0-.13,0-.17.12-.05.15,0a.16.16,0,0,0,0,.09l.08.06s.14,0,.23,0a.75.75,0,0,1,.07.12c0,.07-.07.18-.12.15s-.17,0-.25,0-.34-.17-.32,0-.19,0-.26-.07-.17,0-.13-.1S267,23.2,267,23.2Zm.17-.95h0a.31.31,0,0,1,.09.07.93.93,0,0,0-.24,0s.13-.09.14-.06S267.16,22.26,267.19,22.25Zm1.23,2.15-.07-.09a.21.21,0,0,1-.09-.15L268.2,24a2.68,2.68,0,0,0-.17-.34.37.37,0,0,1,.23.27.42.42,0,0,0,.13.21A2.42,2.42,0,0,0,268.42,24.4Zm-.65-1.58a1.58,1.58,0,0,1,.12.15.13.13,0,0,1-.17,0S267.75,22.86,267.77,22.82Zm.29,3.56-.06.11A.13.13,0,0,1,268.06,26.38Zm.05-.2c0-.08,0-.08.08-.14l.05,0a2.06,2.06,0,0,1-.12.26S268.11,26.21,268.11,26.18Zm.25-.92a.31.31,0,0,1,.07-.09c0,.16,0,.31-.07.45A.45.45,0,0,1,268.36,25.26Zm-6.5-.43a3.73,3.73,0,0,1,.07-.68c.09.06.23.17.32.14s.11,0,.17.08.12,0,.16.05.1.17.19.24.07,0,.11.05,0-.08.08-.06c.31.07-.18.49,0,.6-.14.09.05.3.1.39s.08.2.16.25.21.12.24.26a4.2,4.2,0,0,1,.06.61c0,.1,0,.54.08.54a.17.17,0,0,0,0-.05h0a.59.59,0,0,1,0,.13c-.11,0,0,.15,0,.17s0,.17.17.26A3.31,3.31,0,0,1,261.86,24.83Zm3.3,3.3a3.58,3.58,0,0,1-1.13-.2c.05,0,.09,0,.1-.06-.16,0-.29-.19-.16-.33-.11,0-.08-.2,0-.27s-.09,0-.09-.08.07,0,.11,0,0,0,.08-.06.09-.19,0-.23.12.05.17,0,.06-.14.1-.21.11-.08.09-.17.06-.14.15-.18a.44.44,0,0,0,.22-.46c0-.16.25-.29.15-.47-.08,0-.34-.26-.43-.14.06-.07-.12-.12-.17-.08s-.08-.11-.1-.16-.05-.19-.22-.2-.21-.18-.31-.24l0,0c-.11,0-.32.07-.38-.06,0,0-.08.08-.07.14s0-.09,0-.14v0c-.05,0-.2.06-.2.14s-.15,0-.23,0-.11-.17-.1-.23-.22-.15-.22-.11a1.82,1.82,0,0,1,.11-.28c-.15,0-.1,0-.18.11s-.21.05-.21,0-.07-.12-.07-.17,0-.14.06-.21.21-.25.29-.17.1-.05.14,0h.18c.09.08,0,.19.12.25.07-.14,0-.25.08-.38s.14-.06.19-.11a.59.59,0,0,0,.08-.16.34.34,0,0,0,.12-.12c.05-.05.15,0,.19-.08s0-.08.05-.1a1,1,0,0,1,.23-.08c-.09,0-.07.11,0,.06a1.76,1.76,0,0,1,.2-.09.09.09,0,0,0,0-.05s-.1.09-.15.06,0-.11,0-.16a.93.93,0,0,0-.24.06.41.41,0,0,1,.27-.13,1.53,1.53,0,0,0,.32-.05,1,1,0,0,0-.17.18c.06,0,.12,0,.16,0l0,0,0,0a.14.14,0,0,0,.05-.15s-.11,0-.09-.05.11-.16,0-.22a.24.24,0,0,1-.09-.26c-.07.13-.3.09-.17,0-.1,0-.1-.06-.2-.07s-.1.13-.19.18c.12,0-.12.18-.11.17s-.06,0-.08.11,0,.07-.08.08a.63.63,0,0,0,0-.09h0a0,0,0,0,1,0,0h0s0-.07,0-.1c-.14,0-.19-.12-.31-.09h0a2.52,2.52,0,0,1,.44-.28h0a.25.25,0,0,1,.19,0,.07.07,0,0,0,0-.06,1.34,1.34,0,0,1,.3-.12l.07,0h0c.07,0,0,.07-.05.09l-.07,0c-.06,0-.07,0-.13,0s.11,0,.17,0,.18.14.18.1-.05-.07,0-.08.09,0,.1.05,0-.15,0-.17.08.1.12,0,.07,0,.1,0-.12-.06-.15-.1,0,0,0-.06a2.73,2.73,0,0,1,.5-.06l0,0c-.06,0-.1,0-.1.05H265a.25.25,0,0,0-.11.33c0,.06.06.12.14.13s.1-.06.17-.13a.74.74,0,0,1,.32-.16,1.17,1.17,0,0,1,.38-.17,3.28,3.28,0,0,1,.95.39c0,.05,0,.12,0,.14s.16,0,.17,0h0c0,.05.07.21,0,.14s0-.08,0-.09c-.17,0,0,.18-.14.2s-.08.11-.19.14-.12.08-.15.07v0c0-.05-.19,0,0,.06s0,.23-.1.19-.15,0-.19,0,0,.28,0,.29.15,0,.12.09-.13.14-.17.22,0,.09-.09.14-.11.05-.13.11-.13.17-.13.26,0,.1,0,.17a.29.29,0,0,1-.05.14s0,0,0,.08.14.11.14.2.17.19.25.26a2.64,2.64,0,0,1,.29,0c.14-.07.25-.14.34,0s.12,0,.16,0,0,.09,0,.15,0,.07,0,.1.1.12.13.19a1.27,1.27,0,0,1,.09.3c0,.14-.11.25-.08.39s.13.22.13.37a1.36,1.36,0,0,0,.14.33.69.69,0,0,0,0,.13c0,.06.09,0,.11,0s.3-.07.39-.17l.07-.08A3.32,3.32,0,0,1,265.16,28.13Z"/></g><path class="cls-5" d="M35.49,25.2v1.95H35V25.2H33.19v-.45H35V23h.52v1.77h1.78v.45Z"/><path class="cls-5" d="M39.86,21.71c1.12,0,1.76,1,1.76,2.15A3.28,3.28,0,0,1,39.53,27a4.45,4.45,0,0,1-1.27.27l0-.26a3,3,0,0,0,2.5-2.34l-.57.3a1,1,0,0,1-.52.14A1.52,1.52,0,0,1,38,23.55a1.85,1.85,0,0,1,1.82-1.84Zm-.14.3c-.63,0-.88.71-.88,1.23A1.25,1.25,0,0,0,40,24.62a1.33,1.33,0,0,0,.74-.23,3.83,3.83,0,0,0,0-.57c0-.78-.21-1.81-1-1.81Z"/><path class="cls-5" d="M43.8,23.92a1.27,1.27,0,0,1,.54-.14,1.53,1.53,0,0,1,1.59,1.58,1.84,1.84,0,0,1-1.82,1.89,1.92,1.92,0,0,1-1.85-2.15,3.31,3.31,0,0,1,2.29-3.16,7.12,7.12,0,0,1,1.15-.28l.06.28a4.84,4.84,0,0,0-.94.3,2.77,2.77,0,0,0-1.61,2Zm.17.36a1.84,1.84,0,0,0-.8.21,2.8,2.8,0,0,0-.05.6c0,1,.45,1.85,1.13,1.85s.87-.71.87-1.27c0-.71-.38-1.39-1.14-1.39Z"/><path class="cls-5" d="M49.41,25.63v.58c0,.58.05.63.75.7v.24H47.83v-.24c.79-.07.82-.14.82-.7v-.58H46.37v-.27c.88-1.25,1.76-2.47,2.64-3.62h.4V25.2h.84v.43Zm-.76-2.9h0c-.54.71-1.1,1.53-1.69,2.47h1.71Z"/><path class="cls-5" d="M56.84,21.92c-.82,1.74-1.66,3.47-2.49,5.23l-.7.1-.06-.1a42.78,42.78,0,0,0,2.63-4.65h-1.9c-.58,0-.64.08-.87.64H53.2c.08-.52.12-1,.17-1.32h3.4Z"/><path class="cls-5" d="M61.09,21.92l-2.5,5.23-.69.1-.07-.1a44.64,44.64,0,0,0,2.64-4.65H58.56c-.58,0-.64.08-.86.64h-.26c.09-.52.13-1,.18-1.32H61Z"/><path class="cls-5" d="M63.42,21.71c1.32,0,1.79,1.45,1.79,2.77s-.47,2.77-1.8,2.77-1.82-1.41-1.82-2.76.48-2.78,1.82-2.78Zm0,.3c-.76,0-1,1.27-1,2.46s.23,2.48,1,2.48.94-1.28.94-2.48-.2-2.46-1-2.46Z"/><path class="cls-5" d="M71.09,25.63v.58c0,.58,0,.63.74.7v.24H69.51v-.24c.78-.07.82-.14.82-.7v-.58H68.05v-.27c.88-1.25,1.76-2.47,2.64-3.62h.4V25.2h.84v.43Zm-.76-2.9h0c-.54.71-1.1,1.53-1.69,2.47h1.71Z"/><path class="cls-5" d="M73.23,24a3.61,3.61,0,0,1,1-.27,1.52,1.52,0,0,1,1.69,1.44,1.81,1.81,0,0,1-.8,1.44,2.69,2.69,0,0,1-1.53.6,1.5,1.5,0,0,1-.91-.3c-.13-.13-.18-.2-.16-.31a.48.48,0,0,1,.2-.31.17.17,0,0,1,.24,0,1.69,1.69,0,0,0,1.11.47,1.11,1.11,0,0,0,1-1.24,1.24,1.24,0,0,0-1.41-1.29,3.13,3.13,0,0,0-.91.17l.35-2.63h2.56l0,.06-.24.62H73.46Z"/><path class="cls-5" d="M78.5,21.71c1.32,0,1.8,1.45,1.8,2.77s-.48,2.77-1.81,2.77-1.81-1.41-1.81-2.76.48-2.78,1.81-2.78Zm0,.3c-.77,0-1,1.27-1,2.46s.23,2.48,1,2.48,1-1.28,1-2.48-.21-2.46-1-2.46Z"/><path class="cls-5" d="M86.17,25.63v.58c0,.58,0,.63.75.7v.24H84.6v-.24c.78-.07.82-.14.82-.7v-.58H83.14v-.27c.87-1.25,1.75-2.47,2.64-3.62h.39V25.2H87v.43Zm-.75-2.9h0c-.54.71-1.11,1.53-1.7,2.47h1.72Z"/><path class="cls-5" d="M89.42,21.71A1.34,1.34,0,0,1,90.86,23a1,1,0,0,1-.25.69,4.24,4.24,0,0,1-.68.51c.62.35,1.16.75,1.16,1.5a1.71,1.71,0,0,1-1.78,1.56c-1,0-1.71-.54-1.71-1.45A1,1,0,0,1,88,25a4.78,4.78,0,0,1,.77-.53,1.54,1.54,0,0,1-1-1.34,1.51,1.51,0,0,1,1.6-1.42Zm0,5.25a.93.93,0,0,0,.91-1c0-.63-.58-1-1.29-1.33a1.39,1.39,0,0,0-.68,1.14A1.1,1.1,0,0,0,89.4,27ZM89.31,22a.8.8,0,0,0-.78.85c0,.63.5.9,1.14,1.21a1.24,1.24,0,0,0,.5-1,.9.9,0,0,0-.86-1Z"/><path class="cls-5" d="M93.29,23.92a1.31,1.31,0,0,1,.54-.14,1.53,1.53,0,0,1,1.6,1.58,1.84,1.84,0,0,1-1.83,1.89,1.92,1.92,0,0,1-1.84-2.15A3.3,3.3,0,0,1,94,21.94a7.5,7.5,0,0,1,1.16-.28l.06.28a4.84,4.84,0,0,0-.94.3,2.77,2.77,0,0,0-1.61,2Zm.17.36a1.84,1.84,0,0,0-.79.21,2.8,2.8,0,0,0,0,.6c0,1,.44,1.85,1.12,1.85s.88-.71.88-1.27a1.24,1.24,0,0,0-1.15-1.39Z"/><path class="cls-5" d="M97.91,21.71A1.34,1.34,0,0,1,99.35,23a1,1,0,0,1-.26.69,4,4,0,0,1-.67.51c.61.35,1.15.75,1.15,1.5a1.7,1.7,0,0,1-1.77,1.56c-1,0-1.71-.54-1.71-1.45a1,1,0,0,1,.39-.8,4.36,4.36,0,0,1,.77-.53,1.54,1.54,0,0,1-1-1.34,1.51,1.51,0,0,1,1.6-1.42Zm0,5.25a.93.93,0,0,0,.91-1c0-.63-.59-1-1.3-1.33a1.4,1.4,0,0,0-.67,1.14,1.1,1.1,0,0,0,1,1.22ZM97.8,22a.81.81,0,0,0-.79.85c0,.63.51.9,1.14,1.21a1.22,1.22,0,0,0,.51-1,.9.9,0,0,0-.86-1Z"/><g class="cls-6"><path class="cls-13" d="M22.71,22.65A2.2,2.2,0,0,1,23.48,21c.19-.19.45-.51.74-.47s.53.37.68.6c.26.41.69,1,.29,1.47-.18.22-.47.34-.64.57a.77.77,0,0,0,0,.8,4.79,4.79,0,0,0,1.21,1.44,1.07,1.07,0,0,0,.77.34c.3-.05.54-.38.75-.56.55-.45,1.18.16,1.59.53.19.18.42.4.4.68s-.38.52-.58.68a2.22,2.22,0,0,1-1.92.45,4.21,4.21,0,0,1-1.92-1.09,8.75,8.75,0,0,1-1.47-1.74,4.41,4.41,0,0,1-.49-.94,5.69,5.69,0,0,1-.22-1.09C22.72,22.28,22.74,22.85,22.71,22.65Z"/></g><polygon class="cls-14" points="138.96 25.48 135.44 22.77 142.49 22.77 138.96 25.48"/><polygon class="cls-15" points="137.73 25.26 134.88 27.58 134.88 23.07 137.73 25.26"/><polygon class="cls-16" points="138.2 25.61 138.96 26.2 139.75 25.59 142.54 27.9 135.4 27.9 138.2 25.61"/><polygon class="cls-17" points="140.22 25.23 143.04 23.06 143.04 27.57 140.22 25.23"/><path class="cls-5" d="M147.84,27.6v-.26c.62-.06.7-.12.7-.81v-2c0-.62,0-.66-.63-.76v-.24a7.22,7.22,0,0,0,1.49-.37v3.33c0,.68.06.73.7.81v.26Zm.52-5.74a.55.55,0,0,1,.55-.55.54.54,0,0,1,0,1.08A.56.56,0,0,1,148.36,21.86Z"/><path class="cls-5" d="M153.41,27.6v-.26c.57-.06.64-.14.64-.83V24.92c0-.68-.28-1.09-.88-1.09a1.75,1.75,0,0,0-1,.48v2.26c0,.67.06.71.63.77v.26h-2.2v-.26c.66-.08.71-.13.71-.79v-2c0-.64-.07-.68-.59-.77v-.25a6.74,6.74,0,0,0,1.45-.38V24c.2-.15.42-.31.67-.47a1.49,1.49,0,0,1,.82-.29c.79,0,1.29.55,1.29,1.52v1.83c0,.67.06.69.64.77v.26Z"/><path class="cls-5" d="M156.74,23.33v-.22a2.6,2.6,0,0,1,.11-.79,2.32,2.32,0,0,1,.79-1.15,1.94,1.94,0,0,1,1.1-.52,1.07,1.07,0,0,1,.81.33.33.33,0,0,1,0,.38.7.7,0,0,1-.2.23.19.19,0,0,1-.29,0,1.2,1.2,0,0,0-.81-.39.55.55,0,0,0-.51.3,2.89,2.89,0,0,0-.19,1.45v.4h1.17a.37.37,0,0,1-.11.41H157.6v2.77c0,.72.08.75.85.83v.26H156v-.26c.63-.06.71-.12.71-.77V23.74H156l0-.11.28-.3Z"/><path class="cls-5" d="M161.28,23.22a2.16,2.16,0,0,1,2.2,2.17,2.21,2.21,0,0,1-2.21,2.32A2.16,2.16,0,0,1,159,25.57a2.29,2.29,0,0,1,2.25-2.35Zm-.13.33c-.58,0-1.11.58-1.11,1.68s.53,2.14,1.34,2.14c.57,0,1.09-.39,1.09-1.76,0-1.17-.47-2.06-1.31-2.06Z"/><path class="cls-5" d="M169.37,28a3.74,3.74,0,0,1-2,.52,2.86,2.86,0,0,1-3-3,3.66,3.66,0,0,1,3.83-3.63A2.56,2.56,0,0,1,171,24.46a2.39,2.39,0,0,1-2.37,2.43c-.54,0-.55-.28-.48-.72l.12-.54h0c-.33.49-1.23,1.27-1.71,1.27-.24,0-.48-.27-.47-.84a2.54,2.54,0,0,1,.8-1.83,2.48,2.48,0,0,1,1.62-.73,2.72,2.72,0,0,1,.51.08,2.38,2.38,0,0,0,.34,0c-.15.6-.32,1.39-.48,2.2-.1.51-.06.66.18.65.68,0,1.47-.68,1.47-2a2.13,2.13,0,0,0-2.38-2.14A3,3,0,0,0,165,25.48a2.48,2.48,0,0,0,2.69,2.63,4,4,0,0,0,1.57-.36Zm-1.32-4.14a.84.84,0,0,0-.64.29,2.75,2.75,0,0,0-.56,1.6c0,.36.09.46.2.46s.7-.34,1.28-1.17A10.33,10.33,0,0,0,168.6,24a1.33,1.33,0,0,0-.53-.12Z"/><path class="cls-5" d="M171.54,27.6v-.26c.62-.08.71-.13.71-.79V22c0-.66-.07-.68-.69-.74V21a9.42,9.42,0,0,0,1.54-.34v5.9c0,.67.09.73.74.79v.26Z"/><path class="cls-5" d="M176.57,23.22a2.16,2.16,0,0,1,2.21,2.17,2.22,2.22,0,0,1-2.22,2.32,2.16,2.16,0,0,1-2.25-2.14,2.29,2.29,0,0,1,2.25-2.35Zm-.13.33c-.57,0-1.11.58-1.11,1.68s.54,2.14,1.34,2.14c.57,0,1.09-.39,1.09-1.76,0-1.17-.47-2.06-1.3-2.06Z"/><path class="cls-5" d="M181.55,27.6v-.26c.42-.06.5-.14.34-.4l-.72-1.11c-.22.34-.45.7-.63,1s-.16.43.33.51v.26H179v-.26a1.32,1.32,0,0,0,1.11-.64c.29-.34.55-.72.85-1.15l-.87-1.33a1.06,1.06,0,0,0-1-.63v-.26h2.07v.26c-.43.06-.46.15-.28.43l.57.86c.2-.3.4-.59.56-.89s.11-.34-.32-.4v-.26h1.84v.26a1.33,1.33,0,0,0-1.1.52c-.21.23-.44.57-.78,1l1,1.46a1.22,1.22,0,0,0,1.08.73v.26Z"/><path class="cls-5" d="M187.19,27.71a.83.83,0,0,1-.51-.19.94.94,0,0,1-.24-.42,3.23,3.23,0,0,1-1.15.61,1.21,1.21,0,0,1-1.23-1.2c0-.49.27-.78.81-1a6.21,6.21,0,0,0,1.54-.63v-.18c0-.7-.32-1.07-.8-1.07a.56.56,0,0,0-.42.17,1.7,1.7,0,0,0-.3.66.3.3,0,0,1-.32.24.49.49,0,0,1-.45-.43c0-.15.12-.27.32-.4a4.62,4.62,0,0,1,1.51-.69,1.28,1.28,0,0,1,.83.25,1.45,1.45,0,0,1,.48,1.23v1.76c0,.44.17.58.35.58a.78.78,0,0,0,.36-.1l.1.26Zm-.78-2.45-.81.38c-.39.17-.6.36-.6.72a.69.69,0,0,0,.68.74,1.16,1.16,0,0,0,.73-.32Z"/><path class="cls-5" d="M192.81,23.41a1.2,1.2,0,0,1-.45.5l-.56,0a1.35,1.35,0,0,1,.28.85,1.62,1.62,0,0,1-1.78,1.56,4.17,4.17,0,0,1-.52-.05.57.57,0,0,0-.25.37c0,.19.18.38.63.38l1,0c.6,0,1.45.19,1.45,1.17a2.39,2.39,0,0,1-2.52,2c-1.13,0-1.73-.64-1.75-1.2a.73.73,0,0,1,.26-.56c.22-.21.57-.46.81-.65a1.3,1.3,0,0,1-.75-.53.7.7,0,0,1-.11-.44,2.1,2.1,0,0,0,.88-.59,1.39,1.39,0,0,1-.87-1.31,1.7,1.7,0,0,1,1.81-1.62h0a2.08,2.08,0,0,1,1,.25c.51,0,1-.09,1.39-.14Zm-2.32,4.33a1.27,1.27,0,0,0-.86.2,1.05,1.05,0,0,0-.42.73c0,.51.55.95,1.32.95s1.38-.47,1.38-1.07a.69.69,0,0,0-.46-.69,2.58,2.58,0,0,0-.95-.12Zm-.19-4.21c-.4,0-.78.38-.78,1.15s.35,1.3.89,1.3.8-.39.8-1.16-.34-1.29-.9-1.29Z"/><path class="cls-5" d="M196.72,26.73a2.29,2.29,0,0,1-1.68,1,2,2,0,0,1-1.94-2.07,2.43,2.43,0,0,1,.63-1.67,2.1,2.1,0,0,1,1.5-.75h0a1.55,1.55,0,0,1,1.52,1.5c0,.19-.06.28-.24.32s-1.42.12-2.57.16c0,1.27.76,1.8,1.45,1.8a1.63,1.63,0,0,0,1.15-.49ZM195,23.59c-.42,0-.85.38-1,1.19.53,0,1.05,0,1.61,0,.17,0,.23-.06.23-.18a.9.9,0,0,0-.84-1Z"/><path class="cls-5" d="M200.16,27.6v-.26c.57-.06.63-.14.63-.83V24.92c0-.68-.27-1.09-.88-1.09a1.75,1.75,0,0,0-1,.48v2.26c0,.67,0,.71.63.77v.26h-2.21v-.26c.66-.08.72-.13.72-.79v-2c0-.64-.07-.68-.59-.77v-.25a6.89,6.89,0,0,0,1.45-.38V24c.2-.15.41-.31.67-.47a1.49,1.49,0,0,1,.82-.29c.79,0,1.29.55,1.29,1.52v1.83c0,.67.06.69.63.77v.26Z"/><path class="cls-5" d="M206.59,26.69a2.4,2.4,0,0,1-1.71,1,2,2,0,0,1-2-2,2.32,2.32,0,0,1,1-1.9,2.75,2.75,0,0,1,1.53-.55h0a1.44,1.44,0,0,1,.9.26.35.35,0,0,1,.16.3.48.48,0,0,1-.35.45c-.06,0-.11,0-.19-.12a1.57,1.57,0,0,0-1-.42c-.62,0-1.18.5-1.18,1.53A1.61,1.61,0,0,0,205.22,27a1.59,1.59,0,0,0,1.2-.53Z"/><path class="cls-5" d="M211.68,23.59c-.52.08-.61.16-.88.73s-.57,1.31-1.25,2.9a24.15,24.15,0,0,0-1.06,2.66.29.29,0,0,1-.31.24.59.59,0,0,1-.59-.5c0-.16.08-.25.25-.37a1.94,1.94,0,0,0,.78-.86,4.36,4.36,0,0,0,.29-.63.56.56,0,0,0,0-.44c-.42-1.15-.88-2.37-1.16-3s-.32-.64-.85-.72v-.26H209v.26c-.46.08-.52.17-.39.52l.89,2.4c.27-.62.7-1.77.89-2.36.13-.36.05-.48-.51-.56v-.26h1.81Z"/><path class="cls-5" d="M211.88,27.71a.56.56,0,0,1-.57-.6.57.57,0,0,1,.59-.58.59.59,0,0,1,0,1.18Z"/><path class="cls-5" d="M217.16,26.69a2.4,2.4,0,0,1-1.71,1,2,2,0,0,1-2-2,2.34,2.34,0,0,1,1-1.9,2.78,2.78,0,0,1,1.54-.55h0a1.4,1.4,0,0,1,.89.26.33.33,0,0,1,.16.3.49.49,0,0,1-.34.45c-.06,0-.11,0-.2-.12a1.52,1.52,0,0,0-1-.42c-.62,0-1.18.5-1.18,1.53A1.61,1.61,0,0,0,215.79,27a1.59,1.59,0,0,0,1.2-.53Z"/><path class="cls-5" d="M219.91,23.22a2.16,2.16,0,0,1,2.21,2.17,2.21,2.21,0,0,1-2.21,2.32,2.15,2.15,0,0,1-2.25-2.14,2.29,2.29,0,0,1,2.25-2.35Zm-.12.33c-.58,0-1.11.58-1.11,1.68s.53,2.14,1.33,2.14c.58,0,1.09-.39,1.09-1.76,0-1.17-.46-2.06-1.3-2.06Z"/><path class="cls-5" d="M228.19,27.6v-.26c.56-.06.67-.11.67-.81V25c0-.74-.28-1.13-.85-1.13a1.81,1.81,0,0,0-1.06.49,3.88,3.88,0,0,1,0,.4V26.6c0,.62.09.68.63.74v.26h-2.18v-.26c.59-.06.68-.11.68-.75V24.94q0-1.11-.84-1.11a1.81,1.81,0,0,0-1.05.48v2.28c0,.63.09.69.54.75v.26h-2.13v-.26c.64-.06.73-.12.73-.77v-2c0-.62,0-.68-.6-.77v-.25a6.49,6.49,0,0,0,1.45-.38V24c.21-.14.43-.32.73-.5a1.51,1.51,0,0,1,.82-.27,1.22,1.22,0,0,1,1.11.8c.29-.21.57-.39.81-.55a1.4,1.4,0,0,1,.75-.25c.79,0,1.3.54,1.3,1.52v1.85c0,.65.07.67.64.75v.26Z"/><path class="cls-5" d="M36.65,46.57c-.12.4-.22.8-.32,1.19H33v-.21c.48-.47,1-.95,1.41-1.44a3.47,3.47,0,0,0,1.08-2c0-.7-.37-1.12-1-1.12a1.52,1.52,0,0,0-1.2.81l-.21-.18.52-.73a1.69,1.69,0,0,1,1.2-.51,1.43,1.43,0,0,1,1.49,1.46c0,.73-.32,1.22-1.16,2.07l-1.2,1.21h1.59c.49,0,.59,0,.86-.58Z"/><path class="cls-5" d="M39.06,44.76v-.17c.38,0,.42-.09.42-.55V43c0-.45-.18-.72-.58-.72a1.19,1.19,0,0,0-.69.32v1.48c0,.44,0,.47.42.51v.17H37.18v-.17c.43-.05.47-.08.47-.52V42.78c0-.41,0-.44-.39-.5v-.17a4,4,0,0,0,1-.25v.52l.44-.31a1,1,0,0,1,.54-.19c.52,0,.85.37.85,1v1.2c0,.44,0,.46.42.51v.17Z"/><path class="cls-5" d="M44,44.59a10,10,0,0,0-1.06.24v-.41l-.39.23a1.12,1.12,0,0,1-.5.18,1.3,1.3,0,0,1-1.24-1.36,1.67,1.67,0,0,1,1.71-1.59A1.58,1.58,0,0,1,43,42v-.9c0-.42,0-.44-.51-.47v-.17a6.6,6.6,0,0,0,1.08-.22V44c0,.35,0,.38.31.41l.18,0ZM43,42.46a.81.81,0,0,0-.66-.33c-.28,0-.83.23-.83,1.16,0,.77.49,1.12.9,1.12a1.1,1.1,0,0,0,.59-.2Z"/><path class="cls-5" d="M50.58,43.51a1.6,1.6,0,0,0-.26-.7c-.15-.24-.34-.32-1-.32h-.64c-.28,0-.3,0-.3.28v2h.88c.8,0,.85-.08,1-.64h.26v1.69h-.27c-.1-.6-.15-.69-.95-.69h-.88v1.5c0,.76.07.81.88.87v.25H46.79v-.25c.7,0,.78-.11.78-.87V43.28c0-.75-.08-.8-.75-.85v-.26h3.93c0,.32.06.87.1,1.3Z"/><path class="cls-5" d="M51.29,47.76v-.23c.55-.06.62-.11.62-.69v-4c0-.58-.06-.6-.6-.65V42a7.6,7.6,0,0,0,1.35-.3v5.19c0,.59.08.64.65.69v.23Z"/><path class="cls-5" d="M55.72,43.91a1.9,1.9,0,0,1,1.93,1.91,1.94,1.94,0,0,1-1.94,2,1.9,1.9,0,0,1-2-1.89,2,2,0,0,1,2-2.06Zm-.12.29c-.5,0-1,.51-1,1.48s.47,1.88,1.17,1.88c.51,0,1-.34,1-1.54,0-1-.41-1.82-1.14-1.82Z"/><path class="cls-5" d="M60.35,43.91a1.91,1.91,0,0,1,1.94,1.91,2,2,0,0,1-1.95,2,1.9,1.9,0,0,1-2-1.89,2,2,0,0,1,2-2.06Zm-.11.29c-.51,0-1,.51-1,1.48s.47,1.88,1.18,1.88c.5,0,1-.34,1-1.54,0-1-.41-1.82-1.14-1.82Z"/><path class="cls-5" d="M64.16,44.84c.29-.47.64-.93,1-.93a.5.5,0,0,1,.53.44.52.52,0,0,1-.31.47.2.2,0,0,1-.23,0,.54.54,0,0,0-.38-.17c-.23,0-.49.25-.68.71v1.53c0,.57,0,.62.72.67v.23H62.78v-.23c.53-.05.6-.1.6-.67V45.08c0-.55-.05-.58-.53-.65v-.19a6.59,6.59,0,0,0,1.29-.36v1Z"/><path class="cls-5" d="M66.09,46.6a1,1,0,0,1,.83,1c0,.69-.63,1.08-1.2,1.23l-.1-.26c.44-.18.7-.41.7-.73s-.25-.52-.58-.6c0,0-.1-.07-.1-.23a.41.41,0,0,1,.44-.37Z"/><path class="cls-5" d="M73,44.76c.9.12,1.59.49,1.59,1.36a1.46,1.46,0,0,1-.84,1.3,3.77,3.77,0,0,1-1.75.34h-2v-.25c.76,0,.81-.11.81-.83V43.27c0-.74,0-.79-.73-.84v-.26h2.33a2.24,2.24,0,0,1,1.34.3,1.17,1.17,0,0,1,.49,1A1.38,1.38,0,0,1,73,44.73Zm-1-.11c1,0,1.35-.37,1.35-1.08a1,1,0,0,0-1.14-1.11,1,1,0,0,0-.49.11c-.08,0-.1.15-.1.41v1.67Zm-.38,2c0,.64.17.8.72.79A1.19,1.19,0,0,0,73.6,46.2c0-.86-.6-1.25-1.67-1.25h-.36Z"/><path class="cls-5" d="M79.43,47.55c-.2,0-.45.08-.69.14l-.66.17-.06,0V47.2a6,6,0,0,1-.61.44,1.4,1.4,0,0,1-.7.22c-.61,0-1.1-.36-1.1-1.29V44.93c0-.47-.07-.51-.29-.56l-.24-.06v-.2l.66-.06.66-.1c0,.27,0,.68,0,1.25v1.16c0,.71.37.94.75.94a1.28,1.28,0,0,0,.9-.39v-2c0-.47-.07-.52-.35-.57l-.32,0v-.2c.25,0,.56,0,.83-.07a4.11,4.11,0,0,0,.6-.09v2.83c0,.45.07.51.41.53l.24,0Z"/><path class="cls-5" d="M79.82,47.76v-.23c.55-.05.61-.1.61-.7V45.1c0-.54,0-.58-.55-.67v-.21a6.44,6.44,0,0,0,1.31-.32v2.93c0,.59.06.64.61.7v.23Zm.46-5a.47.47,0,0,1,.48-.48.47.47,0,0,1,0,.94A.47.47,0,0,1,80.28,42.72Z"/><path class="cls-5" d="M82.13,47.76v-.23c.55-.06.62-.11.62-.69v-4c0-.58-.06-.6-.6-.65V42a7.6,7.6,0,0,0,1.35-.3v5.19c0,.59.08.64.65.69v.23Z"/><path class="cls-5" d="M88.86,47.54a10.11,10.11,0,0,0-1.42.32v-.55l-.52.3a1.6,1.6,0,0,1-.67.25A1.74,1.74,0,0,1,84.59,46a2.22,2.22,0,0,1,2.28-2.12,2.13,2.13,0,0,1,.57.1V42.8c0-.56-.06-.59-.68-.63V42a8.9,8.9,0,0,0,1.43-.3v5.09c0,.47.07.52.42.55l.25,0Zm-1.42-2.85a1.1,1.1,0,0,0-.89-.45c-.37,0-1.1.31-1.1,1.56,0,1,.65,1.5,1.19,1.5a1.56,1.56,0,0,0,.8-.27Z"/><path class="cls-5" d="M89.22,47.76v-.23c.55-.05.61-.1.61-.7V45.1c0-.54,0-.58-.54-.67v-.21a6.18,6.18,0,0,0,1.3-.32v2.93c0,.59.06.64.62.7v.23Zm.46-5a.48.48,0,0,1,.48-.48.47.47,0,0,1,0,.94A.48.48,0,0,1,89.68,42.72Z"/><path class="cls-5" d="M94.12,47.76v-.23c.5-.05.56-.12.56-.73V45.4c0-.59-.24-.95-.77-.95a1.56,1.56,0,0,0-.92.42v2c0,.58.05.62.55.67v.23H91.61v-.23c.58-.07.62-.11.62-.69V45.12c0-.56-.06-.6-.51-.68v-.22A5.31,5.31,0,0,0,93,43.88v.7l.59-.42a1.36,1.36,0,0,1,.72-.25c.69,0,1.14.49,1.14,1.34v1.61c0,.58,0,.61.55.67v.23Z"/><path class="cls-5" d="M100.28,44.08a1,1,0,0,1-.39.44l-.49,0a1.24,1.24,0,0,1,.24.75,1.42,1.42,0,0,1-1.56,1.37,3.28,3.28,0,0,1-.46,0,.48.48,0,0,0-.22.32c0,.17.16.34.55.34l.91,0c.53,0,1.27.16,1.27,1A2.1,2.1,0,0,1,97.92,50c-1,0-1.52-.57-1.54-1.06a.64.64,0,0,1,.23-.49c.2-.18.5-.41.71-.57a1,1,0,0,1-.65-.47.53.53,0,0,1-.1-.38,1.84,1.84,0,0,0,.77-.52,1.24,1.24,0,0,1-.77-1.15,1.5,1.5,0,0,1,1.59-1.43h0a1.85,1.85,0,0,1,.84.22c.45,0,.9-.08,1.22-.12Zm-2,3.81a1.07,1.07,0,0,0-.75.18.9.9,0,0,0-.37.63c0,.45.48.83,1.16.83s1.21-.41,1.21-.93a.61.61,0,0,0-.4-.61,2.51,2.51,0,0,0-.84-.1Zm-.16-3.71c-.35,0-.69.34-.69,1s.31,1.14.79,1.14.69-.34.69-1-.29-1.14-.78-1.14Z"/><path class="cls-5" d="M106,44.76c.9.12,1.59.49,1.59,1.36a1.46,1.46,0,0,1-.84,1.3,3.77,3.77,0,0,1-1.75.34h-2v-.25c.75,0,.81-.11.81-.83V43.27c0-.74,0-.79-.73-.84v-.26h2.32a2.28,2.28,0,0,1,1.35.3,1.2,1.2,0,0,1,.49,1A1.38,1.38,0,0,1,106,44.73Zm-1-.11c1,0,1.35-.37,1.35-1.08a1,1,0,0,0-1.14-1.11.9.9,0,0,0-.49.11c-.08,0-.1.15-.1.41v1.67Zm-.38,2c0,.64.17.8.72.79a1.19,1.19,0,0,0,1.31-1.25c0-.86-.6-1.25-1.67-1.25h-.36Z"/><path class="cls-5" d="M108.85,47.76v-.25c.78,0,.83-.14.83-.76V43.51c0-.45,0-.49-.4-.51l-.46,0v-.21a9.75,9.75,0,0,0,1.65-.44v4.42c0,.62.06.71.84.76v.25Z"/><path class="cls-5" d="M113,46.6a.94.94,0,0,1,.82,1c0,.69-.63,1.08-1.2,1.23l-.09-.26c.44-.18.69-.41.69-.73s-.24-.52-.57-.6c0,0-.11-.07-.11-.23a.41.41,0,0,1,.44-.37Z"/><path class="cls-5" d="M122.37,46.29a9.52,9.52,0,0,1-.51,1.36,8.15,8.15,0,0,1-1.69.25A3,3,0,0,1,116.89,45c0-1.81,1.47-3,3.51-3a7.5,7.5,0,0,1,1.63.25c.07.49.13.86.19,1.35l-.27,0a1.6,1.6,0,0,0-1.78-1.32,2.31,2.31,0,0,0-2.3,2.49,2.43,2.43,0,0,0,2.37,2.7c.91,0,1.41-.49,1.88-1.37Z"/><path class="cls-5" d="M125.28,47.76v-.23c.5-.05.57-.11.57-.67V45.47c0-.71-.3-1-.84-1a1.24,1.24,0,0,0-.88.42v2c0,.55.05.62.55.67v.23h-1.9v-.23c.52-.05.6-.1.6-.67V42.78c0-.54,0-.57-.58-.62V42a10.37,10.37,0,0,0,1.33-.3v2.88a2,2,0,0,1,1.25-.62c.72,0,1.22.44,1.22,1.49v1.46c0,.58.07.62.57.67v.23Z"/><path class="cls-5" d="M130.4,47.86a.75.75,0,0,1-.45-.17.83.83,0,0,1-.21-.36,2.91,2.91,0,0,1-1,.53,1.06,1.06,0,0,1-1.08-1.06c0-.43.24-.68.71-.84a5.08,5.08,0,0,0,1.35-.56v-.15c0-.61-.28-.94-.7-.94a.48.48,0,0,0-.37.15,1.37,1.37,0,0,0-.26.58.27.27,0,0,1-.28.21.43.43,0,0,1-.4-.38c0-.13.11-.23.28-.35a4.23,4.23,0,0,1,1.33-.61,1.19,1.19,0,0,1,.73.22,1.28,1.28,0,0,1,.42,1.09v1.54c0,.38.15.51.31.51a.69.69,0,0,0,.31-.09l.09.23Zm-.69-2.16c-.17.09-.52.26-.71.34-.34.15-.53.32-.53.63a.62.62,0,0,0,.6.66,1,1,0,0,0,.64-.29Z"/><path class="cls-5" d="M137.2,44.24c-.45.07-.52.17-.7.63-.27.68-.66,1.83-1.07,3h-.26c-.37-.92-.73-1.76-1.08-2.62-.33.86-.68,1.71-1,2.62h-.28c-.32-1-.66-2-1-3.05-.15-.44-.23-.51-.64-.56V44H133v.23c-.52.09-.56.14-.43.52.19.64.41,1.3.62,1.92h0c.33-.8.65-1.67,1-2.63h.25c.33.87.69,1.77,1,2.66h0c.17-.53.43-1.31.58-1.91.11-.42,0-.48-.51-.56V44h1.6Z"/><path class="cls-5" d="M137.39,47.76v-.23c.55-.05.61-.1.61-.7V45.1c0-.54,0-.58-.54-.67v-.21a6.18,6.18,0,0,0,1.3-.32v2.93c0,.59.06.64.62.7v.23Zm.46-5a.47.47,0,0,1,.48-.48.47.47,0,0,1,0,.94A.47.47,0,0,1,137.85,42.72Z"/><path class="cls-5" d="M145.26,43.52c-.16-.55-.43-1.18-1.17-1.18a.91.91,0,0,0-1,.94c0,.6.41.9,1.13,1.24s1.52.77,1.52,1.72a1.78,1.78,0,0,1-2,1.66,3,3,0,0,1-1.31-.33,12,12,0,0,1-.24-1.37l.26-.07c.15.54.58,1.44,1.47,1.44a.94.94,0,0,0,1-1c0-.62-.47-.91-1.14-1.27s-1.45-.73-1.45-1.68A1.65,1.65,0,0,1,144.23,42a3.61,3.61,0,0,1,1.14.21c0,.31.08.66.15,1.22Z"/><path class="cls-5" d="M146.16,47.76v-.23c.54-.06.62-.11.62-.69v-4c0-.58-.06-.6-.6-.65V42a7.6,7.6,0,0,0,1.35-.3v5.19c0,.59.08.64.65.69v.23Z"/><path class="cls-5" d="M151.79,47a2,2,0,0,1-1.47.86A1.71,1.71,0,0,1,148.61,46a2.12,2.12,0,0,1,.56-1.47,1.84,1.84,0,0,1,1.31-.66h0a1.36,1.36,0,0,1,1.34,1.32c0,.17-.05.25-.21.28s-1.25.11-2.26.15c0,1.11.67,1.58,1.28,1.58a1.49,1.49,0,0,0,1-.43Zm-1.51-2.76c-.38,0-.75.33-.88,1,.47,0,.93,0,1.42,0,.15,0,.2-.05.2-.16a.79.79,0,0,0-.74-.87Z"/><path class="cls-5" d="M157.18,47.76v-.23c.48-.05.58-.09.58-.7V45.44c0-.65-.24-1-.75-1a1.58,1.58,0,0,0-.93.43,1.69,1.69,0,0,1,0,.35v1.66c0,.54.08.59.56.64v.23h-1.93v-.23c.53-.05.6-.09.6-.66V45.42c0-.64-.24-1-.74-1a1.59,1.59,0,0,0-.91.42v2c0,.56.07.61.47.66v.23h-1.88v-.23c.57-.05.65-.1.65-.67V45.12c0-.55,0-.6-.53-.68v-.22a6.1,6.1,0,0,0,1.28-.34v.71a7.6,7.6,0,0,1,.64-.44,1.32,1.32,0,0,1,.72-.24,1.06,1.06,0,0,1,1,.71c.26-.19.51-.35.72-.49a1.24,1.24,0,0,1,.66-.22c.69,0,1.14.48,1.14,1.34v1.62c0,.57.06.6.56.66v.23Z"/><path class="cls-5" d="M162.33,47.86a.7.7,0,0,1-.44-.17.74.74,0,0,1-.21-.36,3.09,3.09,0,0,1-1,.53,1.07,1.07,0,0,1-1.09-1.06c0-.43.24-.68.72-.84a5.39,5.39,0,0,0,1.35-.56v-.15c0-.61-.28-.94-.7-.94a.47.47,0,0,0-.37.15,1.36,1.36,0,0,0-.27.58.27.27,0,0,1-.28.21.43.43,0,0,1-.4-.38c0-.13.11-.23.28-.35a4.3,4.3,0,0,1,1.34-.61,1.21,1.21,0,0,1,.73.22,1.3,1.3,0,0,1,.41,1.09v1.54c0,.38.16.51.31.51a.77.77,0,0,0,.32-.09l.08.23Zm-.68-2.16-.71.34c-.34.15-.53.32-.53.63a.62.62,0,0,0,.6.66,1,1,0,0,0,.64-.29Z"/><path class="cls-5" d="M165.86,47.76v-.23c.5-.05.55-.12.55-.73V45.4c0-.59-.24-.95-.77-.95a1.56,1.56,0,0,0-.92.42v2c0,.58.05.62.55.67v.23h-1.93v-.23c.58-.07.62-.11.62-.69V45.12c0-.56-.05-.6-.51-.68v-.22a5.31,5.31,0,0,0,1.27-.34v.7l.59-.42a1.36,1.36,0,0,1,.72-.25c.7,0,1.14.49,1.14,1.34v1.61c0,.58.05.61.55.67v.23Z"/><path class="cls-5" d="M168.18,47.76v-.23c.55-.05.61-.1.61-.7V45.1c0-.54,0-.58-.55-.67v-.21a6.44,6.44,0,0,0,1.31-.32v2.93c0,.59.06.64.61.7v.23Zm.46-5a.47.47,0,0,1,.48-.48.47.47,0,0,1,0,.94A.47.47,0,0,1,168.64,42.72Z"/><path class="cls-5" d="M177.71,43.56a1.93,1.93,0,0,0-.3-.8c-.15-.2-.3-.27-1-.27h-.6v4.19c0,.68.08.78.91.83v.25h-2.6v-.25c.81,0,.88-.14.88-.83V42.49h-.51c-.76,0-1,.08-1.06.27a2.46,2.46,0,0,0-.3.8h-.27c.05-.56.09-1.13.1-1.6h.19c.13.21.24.21.5.21h3.56a.49.49,0,0,0,.46-.21h.19c0,.39,0,1,.09,1.57Z"/><path class="cls-5" d="M179.6,43.91a1.9,1.9,0,0,1,1.94,1.91,2,2,0,0,1-1.95,2,1.9,1.9,0,0,1-2-1.89,2,2,0,0,1,2-2.06Zm-.11.29c-.51,0-1,.51-1,1.48s.47,1.88,1.18,1.88c.5,0,1-.34,1-1.54,0-1-.42-1.82-1.15-1.82Z"/><path class="cls-5" d="M187.87,44.24c-.44.07-.52.17-.7.63-.26.68-.66,1.83-1.07,3h-.26c-.36-.92-.73-1.76-1.07-2.62-.34.86-.69,1.71-1,2.62h-.28c-.31-1-.66-2-1-3.05-.16-.44-.23-.51-.64-.56V44h1.86v.23c-.52.09-.57.14-.44.52.2.64.41,1.3.63,1.92h0c.33-.8.66-1.67,1-2.63h.25c.33.87.69,1.77,1.05,2.66h0c.17-.53.43-1.31.58-1.91.11-.42.05-.48-.5-.56V44h1.59Z"/><path class="cls-5" d="M191.2,47a2,2,0,0,1-1.47.86A1.71,1.71,0,0,1,188,46a2.12,2.12,0,0,1,.56-1.47,1.84,1.84,0,0,1,1.31-.66h0a1.36,1.36,0,0,1,1.34,1.32c0,.17-.05.25-.21.28s-1.25.11-2.26.15c0,1.11.67,1.58,1.28,1.58a1.49,1.49,0,0,0,1-.43Zm-1.51-2.76c-.38,0-.75.33-.88,1,.47,0,.93,0,1.42,0,.15,0,.2-.05.2-.16a.79.79,0,0,0-.74-.87Z"/><path class="cls-5" d="M193.12,44.84c.28-.47.64-.93,1-.93a.5.5,0,0,1,.53.44.52.52,0,0,1-.31.47.2.2,0,0,1-.23,0,.55.55,0,0,0-.39-.17c-.22,0-.48.25-.67.71v1.53c0,.57,0,.62.72.67v.23h-2.08v-.23c.52-.05.6-.1.6-.67V45.08c0-.55-.05-.58-.53-.65v-.19a6.59,6.59,0,0,0,1.29-.36v1Z"/><path class="cls-5" d="M197.31,45.06c-.17-.51-.47-.87-.9-.87a.53.53,0,0,0-.54.57c0,.36.33.56.72.72.66.26,1.11.57,1.11,1.18a1.31,1.31,0,0,1-1.46,1.2,1.85,1.85,0,0,1-1-.28,4.58,4.58,0,0,1-.15-1.06l.24,0c.16.57.56,1.08,1.07,1.08A.58.58,0,0,0,197,47c0-.35-.23-.55-.67-.75s-1.11-.52-1.11-1.2a1.22,1.22,0,0,1,1.35-1.13,2,2,0,0,1,.79.15,5.69,5.69,0,0,1,.2.93Z"/><path class="cls-5" d="M198.78,46.6a.94.94,0,0,1,.83,1c0,.69-.63,1.08-1.2,1.23l-.1-.26c.44-.18.7-.41.7-.73a.65.65,0,0,0-.57-.6c-.05,0-.11-.07-.11-.23a.41.41,0,0,1,.44-.37Z"/><path class="cls-5" d="M205.71,43.52c-.16-.55-.43-1.18-1.17-1.18a.91.91,0,0,0-1,.94c0,.6.41.9,1.13,1.24s1.52.77,1.52,1.72a1.78,1.78,0,0,1-2,1.66,3,3,0,0,1-1.31-.33c-.06-.17-.19-1-.25-1.37l.27-.07c.15.54.57,1.44,1.47,1.44a.94.94,0,0,0,1-1c0-.62-.47-.91-1.14-1.27s-1.45-.73-1.45-1.68A1.65,1.65,0,0,1,204.68,42a3.67,3.67,0,0,1,1.14.21c0,.31.07.66.15,1.22Z"/><path class="cls-5" d="M209.63,47.86a.7.7,0,0,1-.45-.17.74.74,0,0,1-.21-.36,3,3,0,0,1-1,.53,1.06,1.06,0,0,1-1.08-1.06c0-.43.23-.68.71-.84a5.23,5.23,0,0,0,1.35-.56v-.15c0-.61-.28-.94-.7-.94a.48.48,0,0,0-.37.15,1.26,1.26,0,0,0-.26.58.28.28,0,0,1-.29.21.43.43,0,0,1-.4-.38c0-.13.12-.23.29-.35a4.13,4.13,0,0,1,1.33-.61,1.19,1.19,0,0,1,.73.22,1.31,1.31,0,0,1,.42,1.09v1.54c0,.38.15.51.31.51a.73.73,0,0,0,.31-.09l.09.23Zm-.69-2.16-.71.34c-.34.15-.53.32-.53.63a.62.62,0,0,0,.6.66,1,1,0,0,0,.64-.29Z"/><path class="cls-5" d="M212,44.84c.29-.47.65-.93,1.05-.93a.5.5,0,0,1,.53.44.53.53,0,0,1-.3.47.22.22,0,0,1-.24,0,.51.51,0,0,0-.38-.17c-.22,0-.49.25-.68.71v1.53c0,.57.05.62.73.67v.23h-2.09v-.23c.53-.05.61-.1.61-.67V45.08c0-.55,0-.58-.54-.65v-.19a6.22,6.22,0,0,0,1.29-.36v1Z"/><path class="cls-5" d="M217.19,47a2.11,2.11,0,0,1-1.5.89,1.74,1.74,0,0,1-1.79-1.79,2,2,0,0,1,.88-1.67,2.46,2.46,0,0,1,1.35-.49h0a1.28,1.28,0,0,1,.79.23.33.33,0,0,1,.14.27.43.43,0,0,1-.31.39s-.09,0-.17-.1a1.32,1.32,0,0,0-.89-.37c-.54,0-1,.43-1,1.34A1.41,1.41,0,0,0,216,47.24a1.39,1.39,0,0,0,1-.47Z"/><path class="cls-5" d="M219.91,47.76v-.23c.49-.05.56-.11.56-.67V45.47c0-.71-.29-1-.83-1a1.23,1.23,0,0,0-.88.42v2c0,.55.05.62.55.67v.23h-1.9v-.23c.52-.05.6-.1.6-.67V42.78c0-.54,0-.57-.59-.62V42a10.16,10.16,0,0,0,1.34-.3v2.88a2,2,0,0,1,1.25-.62c.72,0,1.22.44,1.22,1.49v1.46c0,.58.07.62.56.67v.23Z"/><path class="cls-5" d="M222.24,47.76v-.23c.54-.05.61-.1.61-.7V45.1c0-.54,0-.58-.55-.67v-.21a6.44,6.44,0,0,0,1.31-.32v2.93c0,.59.06.64.61.7v.23Zm.46-5a.47.47,0,0,1,.48-.48.47.47,0,0,1,0,.94A.47.47,0,0,1,222.7,42.72Z"/><path class="cls-5" d="M227.14,47.76v-.23c.5-.05.56-.12.56-.73V45.4c0-.59-.24-.95-.78-.95a1.56,1.56,0,0,0-.92.42v2c0,.58.05.62.56.67v.23h-1.94v-.23c.58-.07.63-.11.63-.69V45.12c0-.56-.06-.6-.52-.68v-.22a5.19,5.19,0,0,0,1.27-.34v.7l.59-.42a1.39,1.39,0,0,1,.73-.25c.69,0,1.13.49,1.13,1.34v1.61c0,.58.05.61.56.67v.23Z"/><path class="cls-5" d="M232.25,47.86a.7.7,0,0,1-.44-.17.86.86,0,0,1-.22-.36,2.91,2.91,0,0,1-1,.53,1.06,1.06,0,0,1-1.08-1.06c0-.43.24-.68.71-.84a5.33,5.33,0,0,0,1.36-.56v-.15c0-.61-.29-.94-.7-.94a.45.45,0,0,0-.37.15,1.25,1.25,0,0,0-.27.58.27.27,0,0,1-.28.21.43.43,0,0,1-.4-.38c0-.13.11-.23.28-.35a4.19,4.19,0,0,1,1.34-.61,1.16,1.16,0,0,1,.72.22,1.28,1.28,0,0,1,.42,1.09v1.54c0,.38.15.51.31.51a.69.69,0,0,0,.31-.09l.09.23Zm-.68-2.16-.72.34c-.34.15-.52.32-.52.63a.62.62,0,0,0,.6.66,1,1,0,0,0,.64-.29Z"/><path class="cls-5" d="M234.66,44.84c.29-.47.64-.93,1.05-.93a.5.5,0,0,1,.53.44.52.52,0,0,1-.31.47.2.2,0,0,1-.23,0,.54.54,0,0,0-.38-.17c-.23,0-.49.25-.68.71v1.53c0,.57,0,.62.72.67v.23h-2.08v-.23c.53-.05.6-.1.6-.67V45.08c0-.55,0-.58-.53-.65v-.19a6.59,6.59,0,0,0,1.29-.36v1Z"/><path class="cls-5" d="M236.59,46.6a.94.94,0,0,1,.83,1c0,.69-.63,1.08-1.2,1.23l-.1-.26c.44-.18.7-.41.7-.73a.65.65,0,0,0-.57-.6c-.05,0-.11-.07-.11-.23a.41.41,0,0,1,.44-.37Z"/><path class="cls-5" d="M243.52,43.52c-.16-.55-.43-1.18-1.17-1.18a.91.91,0,0,0-1,.94c0,.6.41.9,1.13,1.24s1.52.77,1.52,1.72a1.78,1.78,0,0,1-2,1.66,3,3,0,0,1-1.31-.33,12,12,0,0,1-.24-1.37l.26-.07c.15.54.57,1.44,1.47,1.44a.94.94,0,0,0,1-1c0-.62-.47-.91-1.14-1.27s-1.45-.73-1.45-1.68A1.65,1.65,0,0,1,242.49,42a3.61,3.61,0,0,1,1.14.21c0,.31.07.66.15,1.22Z"/><path class="cls-5" d="M244.42,47.76v-.23c.54-.06.62-.11.62-.69v-4c0-.58-.06-.6-.6-.65V42a7.6,7.6,0,0,0,1.35-.3v5.19c0,.59.08.64.65.69v.23Z"/><path class="cls-5" d="M250.05,47a2,2,0,0,1-1.47.86A1.71,1.71,0,0,1,246.87,46a2.12,2.12,0,0,1,.56-1.47,1.84,1.84,0,0,1,1.31-.66h0a1.36,1.36,0,0,1,1.34,1.32c0,.17-.05.25-.21.28s-1.25.11-2.26.15c0,1.11.67,1.58,1.28,1.58a1.49,1.49,0,0,0,1-.43Zm-1.51-2.76c-.38,0-.76.33-.88,1,.47,0,.93,0,1.42,0,.15,0,.2-.05.2-.16a.79.79,0,0,0-.74-.87Z"/><path class="cls-5" d="M255.44,47.76v-.23c.48-.05.58-.09.58-.7V45.44c0-.65-.24-1-.75-1a1.58,1.58,0,0,0-.93.43,1.69,1.69,0,0,1,0,.35v1.66c0,.54.08.59.56.64v.23H253v-.23c.53-.05.6-.09.6-.66V45.42c0-.64-.24-1-.74-1a1.56,1.56,0,0,0-.91.42v2c0,.56.07.61.47.66v.23h-1.88v-.23c.57-.05.65-.1.65-.67V45.12c0-.55,0-.6-.53-.68v-.22a6.1,6.1,0,0,0,1.28-.34v.71a7.6,7.6,0,0,1,.64-.44,1.32,1.32,0,0,1,.72-.24,1.06,1.06,0,0,1,1,.71c.26-.19.51-.35.72-.49a1.24,1.24,0,0,1,.66-.22c.69,0,1.14.48,1.14,1.34v1.62c0,.57.06.6.56.66v.23Z"/><path class="cls-5" d="M260.59,47.86a.7.7,0,0,1-.44-.17.74.74,0,0,1-.21-.36,3.09,3.09,0,0,1-1,.53,1.07,1.07,0,0,1-1.09-1.06c0-.43.24-.68.72-.84a5.39,5.39,0,0,0,1.35-.56v-.15c0-.61-.29-.94-.7-.94a.47.47,0,0,0-.37.15,1.36,1.36,0,0,0-.27.58.27.27,0,0,1-.28.21.43.43,0,0,1-.4-.38c0-.13.11-.23.28-.35a4.3,4.3,0,0,1,1.34-.61,1.21,1.21,0,0,1,.73.22,1.3,1.3,0,0,1,.41,1.09v1.54c0,.38.16.51.31.51a.77.77,0,0,0,.32-.09l.08.23Zm-.68-2.16-.71.34c-.34.15-.53.32-.53.63a.62.62,0,0,0,.6.66,1,1,0,0,0,.64-.29Z"/><path class="cls-5" d="M264.12,47.76v-.23c.5-.05.55-.12.55-.73V45.4c0-.59-.24-.95-.77-.95a1.56,1.56,0,0,0-.92.42v2c0,.58,0,.62.55.67v.23H261.6v-.23c.58-.07.62-.11.62-.69V45.12c0-.56-.06-.6-.51-.68v-.22a5.31,5.31,0,0,0,1.27-.34v.7l.59-.42a1.36,1.36,0,0,1,.72-.25c.7,0,1.14.49,1.14,1.34v1.61c0,.58.05.61.55.67v.23Z"/><path class="cls-5" d="M266.44,47.76v-.23c.55-.05.61-.1.61-.7V45.1c0-.54,0-.58-.55-.67v-.21a6.44,6.44,0,0,0,1.31-.32v2.93c0,.59.06.64.61.7v.23Zm.46-5a.47.47,0,0,1,.48-.48.47.47,0,0,1,0,.94A.47.47,0,0,1,266.9,42.72Z"/><path class="cls-5" d="M269.34,46.6a.94.94,0,0,1,.83,1c0,.69-.63,1.08-1.2,1.23l-.1-.26c.44-.18.7-.41.7-.73a.65.65,0,0,0-.57-.6c-.05,0-.11-.07-.11-.23a.41.41,0,0,1,.44-.37Z"/><path class="cls-5" d="M277.43,47.76c-.65-.73-1.35-1.54-2.15-2.47-.21-.25-.32-.28-.48-.26v1.6c0,.76.08.83.82.88v.25h-2.37v-.25c.68,0,.75-.12.75-.88V43.31c0-.78-.07-.83-.77-.88v-.26h2.33v.26c-.68,0-.76.11-.76.88v1.48a1.36,1.36,0,0,0,.64-.41,17.83,17.83,0,0,0,1.44-1.48c.27-.31.25-.4-.16-.46h-.18v-.26h2.16v.26a2,2,0,0,0-1.44.63c-.37.33-1,.92-1.53,1.46.65.81,1.59,1.85,2.07,2.37a1.47,1.47,0,0,0,1.06.62v.25Z"/><path class="cls-5" d="M283.1,47.55c-.2,0-.44.08-.69.14l-.65.17-.06,0V47.2a5.2,5.2,0,0,1-.62.44,1.39,1.39,0,0,1-.69.22c-.61,0-1.11-.36-1.11-1.29V44.93c0-.47-.07-.51-.29-.56l-.24-.06v-.2l.66-.06.66-.1c0,.27,0,.68,0,1.25v1.16c0,.71.36.94.75.94a1.3,1.3,0,0,0,.9-.39v-2c0-.47-.08-.52-.36-.57l-.31,0v-.2c.24,0,.56,0,.82-.07a4.54,4.54,0,0,0,.61-.09v2.83c0,.45.07.51.41.53l.23,0Z"/><path class="cls-5" d="M284.88,44.84c.29-.47.65-.93,1.05-.93a.5.5,0,0,1,.53.44.52.52,0,0,1-.31.47.2.2,0,0,1-.23,0,.54.54,0,0,0-.38-.17c-.23,0-.49.25-.68.71v1.53c0,.57,0,.62.72.67v.23H283.5v-.23c.53-.05.6-.1.6-.67V45.08c0-.55,0-.58-.53-.65v-.19a6.59,6.59,0,0,0,1.29-.36v1Z"/><path class="cls-5" d="M291,47.54a10.11,10.11,0,0,0-1.42.32v-.55l-.52.3a1.51,1.51,0,0,1-.67.25A1.74,1.74,0,0,1,286.75,46,2.22,2.22,0,0,1,289,43.91a2,2,0,0,1,.57.1V42.8c0-.56-.06-.59-.68-.63V42a9.28,9.28,0,0,0,1.44-.3v5.09c0,.47.06.52.41.55l.25,0Zm-1.42-2.85a1.08,1.08,0,0,0-.89-.45c-.37,0-1.1.31-1.1,1.56a1.33,1.33,0,0,0,1.2,1.5,1.53,1.53,0,0,0,.79-.27Z"/><path class="cls-5" d="M291.39,47.76v-.23c.54-.05.61-.1.61-.7V45.1c0-.54,0-.58-.55-.67v-.21a6.44,6.44,0,0,0,1.31-.32v2.93c0,.59.06.64.61.7v.23Zm.46-5a.47.47,0,0,1,.48-.48.47.47,0,0,1,0,.94A.47.47,0,0,1,291.85,42.72Z"/><path class="cls-5" d="M296.08,45.06c-.17-.51-.48-.87-.91-.87a.54.54,0,0,0-.54.57c0,.36.33.56.72.72.67.26,1.12.57,1.12,1.18a1.31,1.31,0,0,1-1.46,1.2,1.82,1.82,0,0,1-1-.28,5.08,5.08,0,0,1-.16-1.06l.25,0c.16.57.55,1.08,1.07,1.08a.58.58,0,0,0,.6-.58c0-.35-.23-.55-.68-.75S294,45.72,294,45a1.22,1.22,0,0,1,1.35-1.13,2,2,0,0,1,.79.15,4.81,4.81,0,0,1,.2.93Z"/><path class="cls-5" d="M298.74,47.74a.81.81,0,0,1-.37.12c-.58,0-.9-.33-.9-1V44.37h-.6l0-.1.24-.26h.4v-.62l.64-.6.11,0V44h1a.25.25,0,0,1-.06.36h-.92v2.17c0,.69.3.81.52.81a1.14,1.14,0,0,0,.53-.15l.08.24Z"/><path class="cls-5" d="M302.53,47.86a.7.7,0,0,1-.45-.17.74.74,0,0,1-.21-.36,3.09,3.09,0,0,1-1,.53,1.06,1.06,0,0,1-1.08-1.06c0-.43.23-.68.71-.84a5.39,5.39,0,0,0,1.35-.56v-.15c0-.61-.28-.94-.7-.94a.48.48,0,0,0-.37.15,1.36,1.36,0,0,0-.27.58.27.27,0,0,1-.28.21.43.43,0,0,1-.4-.38c0-.13.11-.23.29-.35a4.13,4.13,0,0,1,1.33-.61,1.21,1.21,0,0,1,.73.22,1.3,1.3,0,0,1,.41,1.09v1.54c0,.38.16.51.32.51a.77.77,0,0,0,.31-.09l.08.23Zm-.69-2.16-.71.34c-.34.15-.53.32-.53.63a.62.62,0,0,0,.6.66,1,1,0,0,0,.64-.29Z"/><path class="cls-5" d="M306.05,47.76v-.23c.5-.05.56-.12.56-.73V45.4c0-.59-.25-.95-.78-.95a1.56,1.56,0,0,0-.92.42v2c0,.58,0,.62.56.67v.23h-1.94v-.23c.58-.07.63-.11.63-.69V45.12c0-.56-.06-.6-.52-.68v-.22a5.19,5.19,0,0,0,1.27-.34v.7l.59-.42a1.36,1.36,0,0,1,.72-.25c.7,0,1.14.49,1.14,1.34v1.61c0,.58.05.61.55.67v.23Z"/><path class="cls-5" d="M316,47.84l-.31,0a1.66,1.66,0,0,1-1.48-.79c-.3-.42-.58-.94-.85-1.35-.16-.25-.31-.35-.76-.35h-.25v1.34c0,.72.08.78.79.84v.25H310.8v-.25c.71-.06.79-.12.79-.84V43.26c0-.73-.07-.78-.76-.83v-.26h2.25a2.5,2.5,0,0,1,1.43.3,1.27,1.27,0,0,1,.58,1.13A1.56,1.56,0,0,1,314,45.06c.16.28.51.84.78,1.24a6.09,6.09,0,0,0,.71.9,1.17,1.17,0,0,0,.62.4ZM312.78,45a1.45,1.45,0,0,0,1-.25,1.2,1.2,0,0,0,.47-1A1.16,1.16,0,0,0,313,42.47a.85.85,0,0,0-.47.09c-.05,0-.09.14-.09.37V45Z"/><path class="cls-5" d="M319.54,47a2,2,0,0,1-1.48.86A1.72,1.72,0,0,1,316.35,46a2.16,2.16,0,0,1,.56-1.47,1.86,1.86,0,0,1,1.32-.66h0a1.36,1.36,0,0,1,1.34,1.32c0,.17,0,.25-.2.28s-1.25.11-2.26.15c0,1.11.67,1.58,1.27,1.58a1.47,1.47,0,0,0,1-.43ZM318,44.24c-.37,0-.75.33-.87,1,.46,0,.92,0,1.41,0,.15,0,.21-.05.21-.16a.79.79,0,0,0-.74-.87Z"/><path class="cls-5" d="M324,44.08a1.1,1.1,0,0,1-.39.44l-.49,0a1.24,1.24,0,0,1,.24.75,1.42,1.42,0,0,1-1.56,1.37,3.15,3.15,0,0,1-.46,0,.48.48,0,0,0-.22.32c0,.17.16.34.55.34l.9,0c.53,0,1.28.16,1.28,1A2.11,2.11,0,0,1,321.58,50c-1,0-1.52-.57-1.53-1.06a.64.64,0,0,1,.23-.49c.19-.18.5-.41.71-.57a1.1,1.1,0,0,1-.66-.47.66.66,0,0,1-.1-.38,1.88,1.88,0,0,0,.78-.52,1.24,1.24,0,0,1-.77-1.15,1.5,1.5,0,0,1,1.59-1.43h0a1.89,1.89,0,0,1,.85.22c.45,0,.9-.08,1.22-.12Zm-2,3.81a1.07,1.07,0,0,0-.75.18.86.86,0,0,0-.37.63c0,.45.48.83,1.15.83s1.22-.41,1.22-.93a.6.6,0,0,0-.41-.61,2.44,2.44,0,0,0-.83-.1Zm-.16-3.71c-.35,0-.69.34-.69,1s.31,1.14.78,1.14.7-.34.7-1-.3-1.14-.79-1.14Z"/><path class="cls-5" d="M324.27,47.76v-.23c.55-.05.61-.1.61-.7V45.1c0-.54,0-.58-.54-.67v-.21a6.18,6.18,0,0,0,1.3-.32v2.93c0,.59.06.64.62.7v.23Zm.46-5a.47.47,0,0,1,.48-.48.47.47,0,0,1,0,.94A.47.47,0,0,1,324.73,42.72Z"/><path class="cls-5" d="M328.69,43.91a1.9,1.9,0,0,1,1.93,1.91,1.94,1.94,0,0,1-1.94,2,1.9,1.9,0,0,1-2-1.89,2,2,0,0,1,2-2.06Zm-.12.29c-.5,0-1,.51-1,1.48s.47,1.88,1.17,1.88c.51,0,1-.34,1-1.54,0-1-.41-1.82-1.14-1.82Z"/><path class="cls-5" d="M333.61,47.76v-.23c.5-.05.56-.12.56-.73V45.4c0-.59-.24-.95-.78-.95a1.53,1.53,0,0,0-.91.42v2c0,.58,0,.62.55.67v.23h-1.94v-.23c.58-.07.63-.11.63-.69V45.12c0-.56-.06-.6-.52-.68v-.22a5.39,5.39,0,0,0,1.28-.34v.7c.17-.13.36-.27.59-.42a1.33,1.33,0,0,1,.72-.25c.69,0,1.13.49,1.13,1.34v1.61c0,.58.05.61.56.67v.23Z"/><path class="cls-5" d="M336.52,46.6a.94.94,0,0,1,.82,1c0,.69-.63,1.08-1.2,1.23l-.09-.26c.44-.18.69-.41.69-.73s-.24-.52-.57-.6c0,0-.11-.07-.11-.23a.41.41,0,0,1,.44-.37Z"/><path class="cls-5" d="M340.38,47.76v-.25c.72,0,.8-.1.8-.84V43.28c0-.75-.08-.8-.8-.85v-.26h2.4v.26c-.71,0-.79.1-.79.85v3.39c0,.74.08.79.79.84v.25Z"/><path class="cls-5" d="M344.66,44.84c.29-.47.64-.93,1-.93a.5.5,0,0,1,.53.44.52.52,0,0,1-.31.47.2.2,0,0,1-.23,0,.54.54,0,0,0-.38-.17c-.23,0-.49.25-.68.71v1.53c0,.57,0,.62.72.67v.23h-2.08v-.23c.53-.05.6-.1.6-.67V45.08c0-.55-.05-.58-.53-.65v-.19a6.59,6.59,0,0,0,1.29-.36v1Z"/><path class="cls-5" d="M349.4,47.86a.75.75,0,0,1-.45-.17.83.83,0,0,1-.21-.36,2.91,2.91,0,0,1-1,.53,1.06,1.06,0,0,1-1.08-1.06c0-.43.24-.68.71-.84a5.08,5.08,0,0,0,1.35-.56v-.15c0-.61-.28-.94-.7-.94a.48.48,0,0,0-.37.15,1.37,1.37,0,0,0-.26.58.27.27,0,0,1-.28.21.43.43,0,0,1-.4-.38c0-.13.11-.23.28-.35a4.23,4.23,0,0,1,1.33-.61,1.19,1.19,0,0,1,.73.22,1.28,1.28,0,0,1,.42,1.09v1.54c0,.38.15.51.31.51a.69.69,0,0,0,.31-.09l.09.23Zm-.69-2.16L348,46c-.34.15-.53.32-.53.63a.62.62,0,0,0,.6.66,1,1,0,0,0,.64-.29Z"/><path class="cls-5" d="M352.61,49.83v-.24c.68-.06.75-.11.75-.7V47.51l-.9.35a1.8,1.8,0,0,1-1.92-1.79,2.28,2.28,0,0,1,2.36-2.16,3.21,3.21,0,0,1,.63.11.51.51,0,0,0,.25,0,.81.81,0,0,0,.33-.09l0,0c0,.19,0,.35,0,.92v4c0,.59.06.62.67.69v.24Zm.75-5.19a1.21,1.21,0,0,0-.84-.38c-.55,0-1.12.5-1.12,1.51a1.47,1.47,0,0,0,1.35,1.6,1.34,1.34,0,0,0,.61-.14Z"/><path class="cls-18" d="M28.84,42.71a3.07,3.07,0,0,0-6.13,0,3,3,0,0,0,.53,1.7h0l2.53,3.81,2.55-3.82h0A3,3,0,0,0,28.84,42.71Zm-3.07,1.7a1.71,1.71,0,1,1,1.71-1.7A1.7,1.7,0,0,1,25.77,44.41Z"/></g></g></svg>