<svg xmlns="http://www.w3.org/2000/svg" xmlns:xlink="http://www.w3.org/1999/xlink" viewBox="0 0 595.28 71.63"><defs><style>.cls-1{isolation:isolate;}.cls-2{fill:#119147;}.cls-3{fill:#e82629;}.cls-4{fill:#211e1f;}.cls-19,.cls-5,.cls-7{mix-blend-mode:soft-light;}.cls-5{fill:url(#linear-gradient);}.cls-6{fill:#626462;}.cls-8{fill:url(#linear-gradient-2);}.cls-9{fill:url(#linear-gradient-3);}.cls-10{fill:url(#linear-gradient-4);}.cls-11{fill:url(#linear-gradient-5);}.cls-12{fill:url(#linear-gradient-6);}.cls-13{fill:url(#linear-gradient-7);}.cls-14{fill-rule:evenodd;fill:url(#linear-gradient-8);}.cls-15{fill:url(#linear-gradient-9);}.cls-16{fill:url(#linear-gradient-10);}.cls-17{fill:url(#linear-gradient-11);}.cls-18{fill:url(#linear-gradient-12);}.cls-19{fill:url(#linear-gradient-13);}</style><linearGradient id="linear-gradient" x1="27.08" y1="-1193.62" x2="569.39" y2="-1193.62" gradientTransform="matrix(1, 0, 0, -1.18, 0, -1399.65)" gradientUnits="userSpaceOnUse"><stop offset="0" stop-color="#a76001"/><stop offset="0.09" stop-color="#a76001" stop-opacity="0.87"/><stop offset="0.29" stop-color="#a66001" stop-opacity="0.53"/><stop offset="0.51" stop-color="#a56001" stop-opacity="0.1"/><stop offset="0.63" stop-color="#a35e01" stop-opacity="0.13"/><stop offset="0.73" stop-color="#9c5801" stop-opacity="0.24"/><stop offset="0.82" stop-color="#904e01" stop-opacity="0.41"/><stop offset="0.91" stop-color="#7f4000" stop-opacity="0.66"/><stop offset="0.99" stop-color="#692d00" stop-opacity="0.98"/><stop offset="1" stop-color="#682c00"/></linearGradient><linearGradient id="linear-gradient-2" x1="267.5" y1="23.71" x2="267.78" y2="23.71" gradientUnits="userSpaceOnUse"><stop offset="0" stop-color="#a76001"/><stop offset="0.39" stop-color="#914e01"/><stop offset="1" stop-color="#682c00"/></linearGradient><linearGradient id="linear-gradient-3" x1="270.08" y1="21.41" x2="270.44" y2="21.41" xlink:href="#linear-gradient-2"/><linearGradient id="linear-gradient-4" x1="270.49" y1="21.95" x2="270.68" y2="21.95" xlink:href="#linear-gradient-2"/><linearGradient id="linear-gradient-5" x1="267.09" y1="23.58" x2="267.54" y2="23.58" xlink:href="#linear-gradient-2"/><linearGradient id="linear-gradient-6" x1="270.66" y1="21.89" x2="270.96" y2="21.89" xlink:href="#linear-gradient-2"/><linearGradient id="linear-gradient-7" x1="265.69" y1="24.4" x2="273.41" y2="24.4" xlink:href="#linear-gradient-2"/><linearGradient id="linear-gradient-8" x1="27.1" y1="23.61" x2="33.7" y2="23.61" xlink:href="#linear-gradient-2"/><linearGradient id="linear-gradient-9" x1="139.82" y1="23.7" x2="146.87" y2="23.7" xlink:href="#linear-gradient-2"/><linearGradient id="linear-gradient-10" x1="139.27" y1="24.9" x2="142.11" y2="24.9" xlink:href="#linear-gradient-2"/><linearGradient id="linear-gradient-11" x1="139.78" y1="26.31" x2="146.93" y2="26.31" xlink:href="#linear-gradient-2"/><linearGradient id="linear-gradient-12" x1="144.6" y1="24.89" x2="147.43" y2="24.89" xlink:href="#linear-gradient-2"/><linearGradient id="linear-gradient-13" x1="27.1" y1="43.51" x2="33.22" y2="43.51" xlink:href="#linear-gradient-2"/></defs><g class="cls-1"><g id="Layer_1" data-name="Layer 1"><path class="cls-2" d="M537.24,25.44l-1.08-1.28.25-.22,1.09,1.28Z"/><path class="cls-2" d="M537.75,25l-1-1.37.58-.41a1.37,1.37,0,0,1,.34-.19.46.46,0,0,1,.26,0,.6.6,0,0,1,.21.18.47.47,0,0,1,.09.31.57.57,0,0,1-.19.32.85.85,0,0,1,.23,0,2,2,0,0,1,.32.12l.35.15-.33.23-.41-.16-.29-.1h-.12a.56.56,0,0,0-.15.08l-.06,0,.4.58Zm-.28-1,.2-.14a1,1,0,0,0,.24-.19.17.17,0,0,0,0-.11.27.27,0,0,0-.05-.13.21.21,0,0,0-.11-.08.18.18,0,0,0-.14,0l-.21.13-.21.16Z"/><path class="cls-2" d="M540.47,23.32l-.32.18-.31-.27-.59.32.06.4-.32.18-.23-1.79.32-.17Zm-.86-.28-.51-.44.1.66Z"/><path class="cls-2" d="M541.8,22.55a1.55,1.55,0,0,0,.31,0l0,.26a.43.43,0,0,1-.16,0l-.27-.05a.87.87,0,0,1-.31.2.8.8,0,0,1-.64,0,.92.92,0,0,1-.45-.51.9.9,0,0,1,0-.68.78.78,0,0,1,.46-.43.79.79,0,0,1,.64,0,.84.84,0,0,1,.44.51,1.39,1.39,0,0,1,.09.38A1,1,0,0,1,541.8,22.55Zm-.32-.08a.47.47,0,0,0,0-.21,1.4,1.4,0,0,0-.06-.24.62.62,0,0,0-.29-.35.41.41,0,0,0-.36,0,.44.44,0,0,0-.26.26.62.62,0,0,0,.05.45.63.63,0,0,0,.28.36.45.45,0,0,0,.36,0l.12-.07a.65.65,0,0,0-.24,0l0-.22A1.11,1.11,0,0,1,541.48,22.47Z"/><path class="cls-2" d="M542.33,22.6l-.49-1.6.33-.1.49,1.6Z"/><path class="cls-2" d="M545,22l-.36.06-.21-.35-.66.11-.08.4-.35.06.37-1.76.35-.06Zm-.72-.55-.33-.58-.13.65Z"/><path class="cls-2" d="M546.26,21.35l.33.09a.71.71,0,0,1-.23.42.77.77,0,0,1-.44.15.7.7,0,0,1-.56-.21.88.88,0,0,1-.24-.62.92.92,0,0,1,.2-.65.71.71,0,0,1,.56-.25.66.66,0,0,1,.5.16.74.74,0,0,1,.19.3l-.34.09a.34.34,0,0,0-.13-.2.35.35,0,0,0-.23-.07.44.44,0,0,0-.3.15.73.73,0,0,0-.1.44.68.68,0,0,0,.13.44.38.38,0,0,0,.3.13.36.36,0,0,0,.23-.09A.52.52,0,0,0,546.26,21.35Z"/><path class="cls-2" d="M548,21.46l.32.14a.77.77,0,0,1-.29.38.7.7,0,0,1-.46.09.73.73,0,0,1-.52-.28.86.86,0,0,1-.15-.65.92.92,0,0,1,.28-.62.71.71,0,0,1,.59-.17.65.65,0,0,1,.47.23.59.59,0,0,1,.14.32l-.34.05a.34.34,0,0,0-.32-.32.38.38,0,0,0-.31.1.68.68,0,0,0-.16.42.79.79,0,0,0,.06.47.41.41,0,0,0,.29.16.34.34,0,0,0,.24-.06A.51.51,0,0,0,548,21.46Z"/><path class="cls-2" d="M548.57,22.16l.38-1.63.69.16a1.3,1.3,0,0,1,.37.14.35.35,0,0,1,.16.2.49.49,0,0,1,0,.27.46.46,0,0,1-.18.28.51.51,0,0,1-.36.07.73.73,0,0,1,.14.18,1.69,1.69,0,0,1,.13.31l.12.37-.39-.1-.16-.41c-.05-.14-.09-.24-.11-.28a.26.26,0,0,0-.09-.09.53.53,0,0,0-.16-.06h-.06l-.17.68Zm.55-.86.24.06.3.05a.22.22,0,0,0,.11-.05.23.23,0,0,0,.06-.12.17.17,0,0,0,0-.14.2.2,0,0,0-.11-.09l-.24-.07-.26-.06Z"/><path class="cls-2" d="M550.2,22.57l.58-1.57,1.17.43-.1.27-.85-.32-.13.35.79.29-.09.27-.79-.29-.16.43.88.32-.1.26Z"/><path class="cls-2" d="M552.41,21.63l.55.27a1,1,0,0,1,.27.17.51.51,0,0,1,.16.25.68.68,0,0,1,0,.32,1.17,1.17,0,0,1-.12.38.94.94,0,0,1-.21.29.85.85,0,0,1-.29.19.6.6,0,0,1-.27,0,.91.91,0,0,1-.29-.1l-.57-.28Zm.18.4-.5,1,.23.12a.93.93,0,0,0,.19.07.19.19,0,0,0,.15,0,.33.33,0,0,0,.15-.1,1.17,1.17,0,0,0,.17-.26.91.91,0,0,0,.1-.29.35.35,0,0,0,0-.18.3.3,0,0,0-.11-.14,1.25,1.25,0,0,0-.24-.14Z"/><path class="cls-2" d="M553.17,23.91l.85-1.45.29.18-.85,1.44Z"/><path class="cls-2" d="M554.07,24.47l.78-1.16-.42-.28.16-.23,1.11.74-.16.23-.41-.27-.78,1.16Z"/><path class="cls-2" d="M556,25.92l-.29-.23.13-.39-.51-.43-.35.21-.28-.23,1.58-.88.27.23Zm-.06-.91.22-.62-.57.33Z"/><path class="cls-2" d="M556.22,26.21l1-1-.34-.36.21-.19.91,1-.2.2-.35-.36-1,1Z"/><path class="cls-2" d="M556.91,27l1.33-1,.2.27-1.32,1Z"/><path class="cls-2" d="M558,27a1.19,1.19,0,0,1,.41-.16.69.69,0,0,1,.52.12,1,1,0,0,1,.24.28.75.75,0,0,1,.11.62.83.83,0,0,1-.43.52.85.85,0,0,1-.65.14.77.77,0,0,1-.51-.38.85.85,0,0,1-.11-.63A.93.93,0,0,1,558,27Zm.2.29a.62.62,0,0,0-.31.34.46.46,0,0,0,.35.57.67.67,0,0,0,.44-.12.66.66,0,0,0,.3-.33.42.42,0,0,0-.05-.36.45.45,0,0,0-.3-.22A.64.64,0,0,0,558.2,27.31Z"/><path class="cls-2" d="M558.24,29.06l1.55-.62.13.31-.79,1.05,1-.41.12.29-1.56.62L558.6,30l.77-1-1,.41Z"/><path class="cls-2" d="M559.52,31.1l.09.32a.39.39,0,0,0-.22.16.36.36,0,0,0,0,.26.38.38,0,0,0,.11.23.23.23,0,0,0,.17,0l.1,0a.38.38,0,0,0,0-.14s0-.13,0-.28a.89.89,0,0,1,.1-.4.41.41,0,0,1,.3-.21.36.36,0,0,1,.25,0,.41.41,0,0,1,.2.17.76.76,0,0,1,.12.32.7.7,0,0,1,0,.49.49.49,0,0,1-.34.23l-.07-.33a.29.29,0,0,0,.17-.13.38.38,0,0,0,0-.22.32.32,0,0,0-.1-.21.15.15,0,0,0-.11,0,.13.13,0,0,0-.09.07.86.86,0,0,0-.06.33,1.25,1.25,0,0,1,0,.38.57.57,0,0,1-.13.21.52.52,0,0,1-.26.11.46.46,0,0,1-.28,0,.5.5,0,0,1-.22-.19.8.8,0,0,1-.12-.35.73.73,0,0,1,0-.5A.69.69,0,0,1,559.52,31.1Z"/><path class="cls-2" d="M559.28,33.26l.7,0,.94-.67,0,.4-.64.43.68.35,0,.39-1-.56-.7,0Z"/><path class="cls-2" d="M559.87,34.32v.33a.39.39,0,0,0-.24.11.32.32,0,0,0-.09.24.36.36,0,0,0,.05.25.21.21,0,0,0,.16.09.1.1,0,0,0,.1,0,.24.24,0,0,0,.08-.11,2,2,0,0,0,.09-.27.84.84,0,0,1,.18-.37.43.43,0,0,1,.35-.14.4.4,0,0,1,.23.08.5.5,0,0,1,.16.22.68.68,0,0,1,0,.33.7.7,0,0,1-.16.47.5.5,0,0,1-.38.15v-.34a.33.33,0,0,0,.19-.08.33.33,0,0,0,.06-.21.36.36,0,0,0-.05-.24s0,0-.1-.06a.14.14,0,0,0-.1,0,.87.87,0,0,0-.13.3,1.07,1.07,0,0,1-.14.36.39.39,0,0,1-.18.18.45.45,0,0,1-.27,0,.43.43,0,0,1-.26-.09.55.55,0,0,1-.18-.24,1,1,0,0,1,0-.36.71.71,0,0,1,.17-.48A.69.69,0,0,1,559.87,34.32Z"/><path class="cls-2" d="M559.17,36.32l1.38.2.07-.5.28,0-.19,1.32-.28,0,.07-.49-1.38-.19Z"/><path class="cls-2" d="M559,37.37l1.63.38L560.36,39l-.27-.06.2-.89-.36-.08-.19.82-.28-.06.19-.82-.44-.1-.21.91-.28-.06Z"/><path class="cls-2" d="M558.65,38.9l1.59.53-.16.48-1.18-.07,1,.64-.16.49-1.59-.54.1-.29,1.25.41-1.15-.73.11-.31,1.35.11-1.25-.42Z"/><path class="cls-3" d="M534.83,21.6l-.06.06-.14.16.14.27.15.36a2,2,0,0,1,.23.91l-.1.36L535,24l-.13.34-.07.14-.09.18a2.58,2.58,0,0,1-.37.51,1.56,1.56,0,0,1-.84.53,1.14,1.14,0,0,1-1-.34l-.12-.11-.12-.12-.11-.14-.06-.07-.06-.1a4.15,4.15,0,0,1-.37-.7c-.18-.42-.25-.67-.21-.74l.11.13.12.14.39.75a1.41,1.41,0,0,0,.24.35,1,1,0,0,0,1,.24,2,2,0,0,0,.68-.54,3,3,0,0,0,.43-.54,2,2,0,0,0,.26-.53,1.11,1.11,0,0,0,.07-.29l0-.08v-.09a1,1,0,0,0,0-.2.62.62,0,0,0-.45-.16,1,1,0,0,0-.3.13l-.17.14-.17.16-.32.24q0-.1-.15-.42l-.08-.24.39-.47a3.25,3.25,0,0,0,.31-.4l.36-.44.13-.14Zm1.2,3.28.2.53-.7.18.14.38-.75.2-.21-.56.78-.17-.16-.4Z"/><path class="cls-3" d="M533.51,17l.13.61-.81.09.08.45-.85.08-.13-.65.89,0-.12-.48Zm.64,4.35,2.2-1.74-.05-.06-.06-.08-.09-.09a1.51,1.51,0,0,0-.29-.26,1.57,1.57,0,0,0-.45-.29l0,.5,0,.13,0,.14,0,.06-.09.12-.1.12-.06.05L535,20a.3.3,0,0,1-.1.05,1.14,1.14,0,0,1-.28,0,.46.46,0,0,1-.38-.13,1.91,1.91,0,0,1-.24-1.06q0-.84.3-1.08c.13-.1.43,0,.9.25a3.75,3.75,0,0,1,1.15.94l.17.3.12.21c.19.35.24.56.17.62l-2.19,1.74Zm1.07-2.61a1.09,1.09,0,0,0-.19-.1l-.11,0-.17-.05a.51.51,0,0,0-.42,0,.94.94,0,0,0-.09.7.3.3,0,0,0,.27.07l.16,0,.17-.1.15-.13.08-.11A.53.53,0,0,0,535.22,18.74Z"/><path class="cls-3" d="M537.61,18.56a1.6,1.6,0,0,1,.19.4,1,1,0,0,1,.08.27l.11.47-.18-.27-.15-.22-.08-.14L537.5,19l-.22-.28-.8-1-.58-.76c-.2-.28-.39-.51-.56-.72l0,0a.42.42,0,0,1,0-.1l0-.14a2,2,0,0,1-.08-.45l0-.53,0,.06.07.08.16.23.22.33.22.33.22.32.19.28.45.64.2.28.15.23.37.56.11.17Z"/><path class="cls-3" d="M541.12,17.84l-.17.08-.14,0h-.16a.77.77,0,0,1-.35-.12,2.83,2.83,0,0,1,.12,1.55c-.08.68-.25,1.09-.52,1.21a3.23,3.23,0,0,1-.91.09c-.5,0-.76,0-.79-.08a.09.09,0,0,1,0-.11h.5a1,1,0,0,0,.42-.07l.09-.05.07-.07a1.73,1.73,0,0,0,.32-.49,1.92,1.92,0,0,0,.14-.36,2.85,2.85,0,0,0,.12-.42,5,5,0,0,0,.14-.76,1.05,1.05,0,0,0-.06-.47l-.11-.09-.17-.13-.14-.1-.15-.09-.41-.24,0-.74.81.58a3.21,3.21,0,0,0,.47.25l.09,0,.13,0a.46.46,0,0,0,.2,0l.1,0Z"/><path class="cls-3" d="M540.56,17.33l.6-.16.08,0,.07,0a2.41,2.41,0,0,0,.43-.15,1.21,1.21,0,0,0,.4-.28l-.1-.13a.49.49,0,0,0-.15-.12h-.15l-.18.07a.2.2,0,0,1-.11,0,.11.11,0,0,1-.08-.09.68.68,0,0,1,0-.24l.15-.73,0-.1.07-.1a.53.53,0,0,1,.21-.11.63.63,0,0,1,.38,0,.15.15,0,0,1,.1,0l.11,0,.24.13c.21.12.32.23.31.3l-.08.68a.11.11,0,0,1,0,.06.31.31,0,0,1-.12.09l.06.08.07.06H543l.18,0,.32-.08.18.66-.37.1a.83.83,0,0,1-.47,0l-.19-.07a.6.6,0,0,1-.16-.14,1.64,1.64,0,0,1-.81.62l-.39.15-.58.15Z"/><path class="cls-3" d="M543.25,16.62l1.48-.17s0-.06,0-.17a3.66,3.66,0,0,0-.08-.5l0-.26-.06-.23-.09-.37c-.11-.47-.25-1-.43-1.66h0c-.06,0-.1-.09-.14-.18V13l0-.09.23-.67,0-.1a.06.06,0,0,1,.12,0l0,.12v.1a.21.21,0,0,0,.09.11l.28.14.15.07.12.06-.25.8-.09,0,.47,2.26a4.33,4.33,0,0,1,0,.82q0,.48-.12.51l-1.57.18Z"/><path class="cls-3" d="M546.59,16.16a1.52,1.52,0,0,1-.05.44,1.11,1.11,0,0,1-.07.28l-.15.45v-.87l0-.35-.15-1.3-.09-1a9,9,0,0,0-.12-.9V12.9a.25.25,0,0,1,0-.11l0-.14a2.51,2.51,0,0,1,.17-.43l.25-.46a.35.35,0,0,1,0,.07l0,.11,0,.28,0,.4V13l0,.39v.33l.06.78v.35l0,.28,0,.67V16Z"/><path class="cls-3" d="M551.51,17.06l-.26.66a2.84,2.84,0,0,1-.59,0h-.16l-.31,0-.25,0-.18,0-.14,0h-.1l-.11,0-.14,0a.83.83,0,0,1-.28-.1l.32-.68.29.1.34.1a7.27,7.27,0,0,0,.81.11l.1,0,.07,0h.27l0-.13,0-.12v-.28l0-.16,0-.16,0-.13a1,1,0,0,0-.11-.27l-.08-.17-.06-.1a1.37,1.37,0,0,0-.19-.27l0-.18,0-.07,0-.13.18-.45a2.23,2.23,0,0,1,.45.83,3.18,3.18,0,0,1,.16,1.36l0,.16,0,.09V17Z"/><path class="cls-3" d="M553.12,18.42,552,18.06l1.19-4.55.58-.46,0,.16,0,.16-.19.68c0,.15-.11.36-.18.65l-.19.8-.18.78-.12.54a2.59,2.59,0,0,0-.09.58l0,.08a.27.27,0,0,0,.09.12l.17.08.3.09Z"/><path class="cls-3" d="M553.07,17.64l1,.45c.1.05.23,0,.4-.17a2.7,2.7,0,0,1,.4-.4,3.32,3.32,0,0,1,.77-.18,2.13,2.13,0,0,1,.35,0,.62.62,0,0,1,.25.05c.09,0,.11.11.06.22l0,.08,0,.08,0,.08a3.05,3.05,0,0,0-.1.82.58.58,0,0,0,.17.44l.16.07-.29.62-.44-.2-.36.33-1-1.49c-.07,0-.17,0-.29.14s-.24.16-.33.12l-.94-.43Zm2.58,1.17.06-.23,0-.23c.06-.25,0-.41-.12-.47a.68.68,0,0,0-.27-.07.66.66,0,0,0-.27,0,.71.71,0,0,0-.21.11l.25.44.19.27.07.06.06.05Z"/><path class="cls-3" d="M556.16,19.07l1.34.82.49-.76.35-.16a4.36,4.36,0,0,1,.5-.19l-.36.52-.28.36-.08.11-.07.07-.15.19s0,.07,0,.14l.16.09-.36.58-.29-.17a.44.44,0,0,1-.15-.21.32.32,0,0,1,0-.2.3.3,0,0,0,0-.16l-.11,0-.11.06c-.12.08-.2.11-.25.09l-1-.64Zm3.31-1.48-.53.32-.33-.74-.39.25-.36-.75.54-.34.32.75.4-.24Z"/><path class="cls-3" d="M557.86,19.94l.72.69a.73.73,0,0,1,0-.22l.06-.14.09-.11,0-.05a1.69,1.69,0,0,1,.91-.3,1.59,1.59,0,0,1,1.41.29.52.52,0,0,1,.13.31,1.83,1.83,0,0,1,0,.54l-.14.27-.12.27,0-.26-.07-.25a1.72,1.72,0,0,0-.1-.26l-.08-.12-.1-.11a1.76,1.76,0,0,0-.59-.33c-.26-.1-.43-.12-.48-.06a1,1,0,0,0-.14.68l0,.25.05.29,0,.07,0,.1.06.08.07.09.63.51.55.48-.71.34-.2-.19-.21-.19-.45-.43-.29-.26-.39-.36-.64-.6-.55-.52Z"/><path class="cls-3" d="M566.14,24.2H566l-.58,0-.27.16,0,0-.14.08-.09,0-.21.11-.1,0-.13,0a2,2,0,0,1-.54.12l-.18,0H563l-.11.12-.09.1c-.14.14-.32.3-.53.49a1.32,1.32,0,0,0-.19.12c-.24.15-.43.12-.54-.08l-.88-1.51.68-.27a2.48,2.48,0,0,0,.85.4c.44.14.69.2.75.16a2.6,2.6,0,0,0,.43-.78l.14-.33.1-.26.17-.49-.37.11.07-.61.05-.3a.84.84,0,0,1,.35-.58l.12-.06.11-.07.11-.05.11-.06.1,0a.24.24,0,0,1,.28.05.5.5,0,0,1,0,.15l0,.34a5.42,5.42,0,0,1-.36,1.25c-.1.24-.25.54-.44.9l-.26.44-.3.47a1.07,1.07,0,0,0,.42,0h.09l.15,0,.22,0,.27-.14.23-.15.27-.2.47-.4,0-.15a.3.3,0,0,1,0-.08l.06-.1,0,0h.1l.34,0h.43a1,1,0,0,0-.21.21,1.31,1.31,0,0,0-.14.29l0,.14,0,.16A2.09,2.09,0,0,0,566.14,24.2Zm-4,1.11a2,2,0,0,0,.32-.25l.06,0,.1-.1c0-.05.08-.07.08-.09l.08-.1a1.74,1.74,0,0,1-.59-.15l-.64-.3v.09l.13.24.14.24.13.21,0,.06.06.08Z"/><path class="cls-3" d="M563.22,27.23a1.48,1.48,0,0,1-.43.1,1.6,1.6,0,0,1-.29,0H562l.3-.12.25-.09.16-.06.11-.06.31-.15,1.18-.56.87-.4a7.58,7.58,0,0,0,.81-.41l0,0,.11,0h.15a2.46,2.46,0,0,1,.45,0l.53.08-.07,0-.09.05-.26.11-.37.15-.37.14-.36.14-.31.12-.72.31-.32.13-.26.11-.63.24-.18.07Z"/><path class="cls-3" d="M564.09,32.1h-.15a.29.29,0,0,1-.12,0l-.24,0-.19-.05,0-.19,0-.38v-.64l0-.19a.71.71,0,0,0,0-.17l0-.13a.16.16,0,0,0,0-.09l-.05-.11a.56.56,0,0,0-.3-.36l-1,.37a5.56,5.56,0,0,1-1,.29l-.34,0h-.31l-.13,0q-.5,0-.51-.06h.06l.07,0,.2,0,.54-.16,1-.3c.71-.2,1.12-.32,1.24-.37l.17,0,.12,0a1.76,1.76,0,0,1,.3.1l.17.09a1.35,1.35,0,0,1,.3.32,3.42,3.42,0,0,1,.2.36,1.39,1.39,0,0,1,.1.33v.15a.69.69,0,0,1,0,.22l-.08.24.13-.09.41-.4a.6.6,0,0,0,.16-.44.57.57,0,0,0-.16-.29l-.11-.14-.15-.16.3.06c.46.23.71.51.75.82,0,.06,0,.15-.14.27a2.9,2.9,0,0,1-.19.22l-.14.13-.18.17-.34.32-.17.19Z"/><path class="cls-3" d="M563.3,34.14l0-1.15,4.68-.48.63.38h-.17l-.17,0-.7,0a5.38,5.38,0,0,0-.67.06l-.82.1-.79.1-.55.08a2,2,0,0,0-.57.13l-.07.05a.41.41,0,0,0-.08.13v.5Z"/><path class="cls-3" d="M564.06,33.81l-.07.85v.14a.43.43,0,0,0,0,.11l0,.14.09.13a.27.27,0,0,0,.22.09l3.07,0a.34.34,0,0,1,.12-.12l.16,0,.12,0,.66.39.07,0,0,0s0,0,0,.07a.1.1,0,0,1-.09,0l-.12,0-.11,0a.28.28,0,0,0-.13.06L568,36l-.18.25-.78-.42,0-.09h-1.29c-.39,0-.72-.08-1-.13a1.57,1.57,0,0,1-.56-.18,4.07,4.07,0,0,0,.64,1,2.41,2.41,0,0,1,.62,1.28,1.12,1.12,0,0,1-.46.67,1.54,1.54,0,0,1-.42.26.91.91,0,0,1-.41.08,2.25,2.25,0,0,1-.5-.19l0,.44-.68-.06.41-5.11Zm.41,4.06a2.1,2.1,0,0,0,.25-.31l0-.11a1.29,1.29,0,0,0,0-.19,1.42,1.42,0,0,0-.42-.89,2.11,2.11,0,0,1-.47-.77l-.17,2v.1l0,.2,0,.13a.15.15,0,0,0,.15.15H564l.13-.07A1.45,1.45,0,0,0,564.47,37.87Zm2.33-.42-.51-.33.5-.63.53.34Z"/><path class="cls-3" d="M563.61,38.6l-.32,1.76a1.63,1.63,0,0,0,.62,0l.19,0,.16,0,.09,0,.08,0,.18-.05.3.2.32.23a1.09,1.09,0,0,1-.23.06l-.36.08a2.8,2.8,0,0,1-.95,0l-.12,0-.09,0-.09,0a.33.33,0,0,1-.14,0l-.23-.09-.12,0-.18-.06-.13-.06.35-1.92Zm3.46,2.33-.53-.39.58-.6.5.36Z"/><path class="cls-4" d="M544,32.18l.67.58-.06.54-.27,0a.26.26,0,0,0-.16,0s0,.06-.06.14L544,34.68l.43.37,0,.55-2.17.16-.67-.57,0-.55.28,0a.4.4,0,0,0,.16,0,.27.27,0,0,0,0-.14l.11-1.17-.43-.37.06-.55Zm0,0-2.09.16-.05.47.28,0a.23.23,0,0,1,.13,0,.09.09,0,0,1,0,.08V33l-.14,1.49a.23.23,0,0,1-.06.13.21.21,0,0,1-.15,0l-.28,0,0,.45,2.09-.16,0-.46-.27,0a.23.23,0,0,1-.13,0,.13.13,0,0,1,0-.09v0l.14-1.49a.23.23,0,0,1,.06-.13.26.26,0,0,1,.15-.06l.27,0Zm-.21.34-.18,0a.33.33,0,0,0-.23.07s-.07.1-.08.19l-.15,1.57a.43.43,0,0,1,0,0v0a.22.22,0,0,0,.08.15.25.25,0,0,0,.2,0h.17l0,.2-1.75.13,0-.19.17,0a.39.39,0,0,0,.23-.07.26.26,0,0,0,.08-.19L542.4,33v-.06a.23.23,0,0,0-.08-.16.36.36,0,0,0-.19,0l-.17,0,0-.19,1.74-.14Z"/><path class="cls-4" d="M546.28,36.41l-1.12-1.12.11-.1-.45-.45a1,1,0,0,1-.2-.3,1.12,1.12,0,0,1-.06-.38,1.79,1.79,0,0,1,0-.21c0-.09,0-.18,0-.29s0-.21.06-.29a1.27,1.27,0,0,1,0-.18,1.11,1.11,0,0,1,.12-.27,1.42,1.42,0,0,1,.18-.22,1.36,1.36,0,0,1,.55-.28,3.47,3.47,0,0,1,.87-.09,3.16,3.16,0,0,1,.84.09,1.17,1.17,0,0,1,.5.28l.62.63a.92.92,0,0,1,.19.28,1,1,0,0,1,0,.54c0,.1,0,.21,0,.34s-.05.33-.07.42a.82.82,0,0,1,0,.18.85.85,0,0,1-.19.32,1.78,1.78,0,0,1-.32.25l.25.25-.11.59-.16.05h-.15a1.37,1.37,0,0,1-.55-.18l0,0-.24-.1-.19,0a.53.53,0,0,0-.24.06A1.37,1.37,0,0,0,546.28,36.41Zm.45-1.39a1.88,1.88,0,0,0,.52-.13,1.22,1.22,0,0,0,.36-.27,1,1,0,0,0,.13-.18,1,1,0,0,0,.09-.21s0-.11,0-.19a2,2,0,0,0,0-.28c0-.11,0-.2,0-.29s0-.15,0-.2a.83.83,0,0,0-.38-.75,2.21,2.21,0,0,0-1.16-.24,4,4,0,0,0-.87.08,1.28,1.28,0,0,0-.53.28,1.63,1.63,0,0,0-.17.2,2,2,0,0,0-.11.26s0,.1,0,.19,0,.18-.05.28,0,.21,0,.29a1.64,1.64,0,0,0,0,.2.9.9,0,0,0,.26.66,1.07,1.07,0,0,0,.71.28,1,1,0,0,0-.2.13l-.15.17.4.41a.73.73,0,0,1,.24-.2.55.55,0,0,1,.25-.07l.19,0,.24.11.06,0a1.12,1.12,0,0,0,.5.18l.17,0,.21-.06.1-.59-.13,0h-.11l-.31,0ZM546.2,35a4.11,4.11,0,0,1,.52.18,1.42,1.42,0,0,0,.54.14h.13l0,.32-.13,0h-.09a1.26,1.26,0,0,1-.56-.19l-.08,0a.49.49,0,0,0-.17-.06.69.69,0,0,0-.45,0,.73.73,0,0,0-.23.16l-.24-.23a1.21,1.21,0,0,1,.3-.24.65.65,0,0,1,.29-.11,1.79,1.79,0,0,1-.93-.28.75.75,0,0,1-.3-.64s0-.1,0-.18,0-.17,0-.27,0-.16.05-.24,0-.14,0-.19a.88.88,0,0,1,.1-.22,1.08,1.08,0,0,1,.16-.2,1.22,1.22,0,0,1,.48-.25,3.31,3.31,0,0,1,.79-.08,2,2,0,0,1,1.06.23.76.76,0,0,1,.34.68s0,.09,0,.17,0,.16,0,.27,0,.18,0,.25a1.27,1.27,0,0,1,0,.18.84.84,0,0,1-.13.27.8.8,0,0,1-.2.21,1.36,1.36,0,0,1-.47.21A2.38,2.38,0,0,1,546.2,35Zm.67-.84.17-.91a.22.22,0,0,0,0-.08.25.25,0,0,0,0-.08.38.38,0,0,0-.16-.32.8.8,0,0,0-.47-.11.75.75,0,0,0-.49.13.9.9,0,0,0-.23.48l-.16.91a.25.25,0,0,0,0,.08.2.2,0,0,0,0,.07.38.38,0,0,0,.16.34.85.85,0,0,0,.48.11.74.74,0,0,0,.48-.14A.83.83,0,0,0,546.87,34.11Zm-.16,0a.71.71,0,0,1-.18.4.52.52,0,0,1-.36.11.56.56,0,0,1-.35-.09.28.28,0,0,1-.11-.24V34.2a.87.87,0,0,0,0-.1l.15-.86a.71.71,0,0,1,.17-.4.54.54,0,0,1,.37-.11.61.61,0,0,1,.34.08.3.3,0,0,1,.12.26.35.35,0,0,0,0,.06s0,0,0,.1Zm-.42.46a.4.4,0,0,0,.25-.13.76.76,0,0,0,.12-.33l.12-.63a.39.39,0,0,0-.25.11.55.55,0,0,0-.12.29Z"/><path class="cls-4" d="M548.52,35.07l.09-.55h.18a.51.51,0,0,0,.21,0,.51.51,0,0,0,.13-.18l1.13-2.05h1.58l.85.83.42,1.78.21.19-.11.63h-4Zm.05,0h1.9l.08-.44h-.27l-.09,0a.06.06,0,0,1,0-.06v0s0,0,0,0l.1-.23H551l0,.13s0,.08,0,.11a.13.13,0,0,1,0,.09.16.16,0,0,1-.11,0h-.32l-.09.44h2.05l.08-.44h-.15a.34.34,0,0,1-.18,0,.26.26,0,0,1-.08-.15l-.45-2.1h-1.5l-1.14,2.08a.38.38,0,0,1-.14.16.43.43,0,0,1-.23,0h-.13Zm.17-.12,0-.2h.13a.4.4,0,0,0,.22-.06.69.69,0,0,0,.19-.25l1.1-2h1.23l.45,2a.38.38,0,0,0,.1.23.29.29,0,0,0,.21.06h.06l0,.2h-1.71l0-.2h.14a.41.41,0,0,0,.27-.07.23.23,0,0,0,.09-.2.69.69,0,0,0,0-.13l0-.2h-1a.56.56,0,0,0,0,.08.94.94,0,0,0-.12.33.19.19,0,0,0,.08.15.54.54,0,0,0,.25,0h0l0,.2Zm2.38-1.1-.25-1.06-.55,1.06Zm-.57-.13.26-.53.12.53Z"/><path class="cls-4" d="M557.6,32.89l-.17,1h-.75l.5.47a.34.34,0,0,1,.07.16.79.79,0,0,1-.33.92,2.36,2.36,0,0,1-1.14.22,4.78,4.78,0,0,1-.64,0,1,1,0,0,1-.35-.11v.12H554l-.61-.61.18-1.09h.86a1.25,1.25,0,0,1-.54-.33.75.75,0,0,1-.17-.49.72.72,0,0,1,.39-.67,2.32,2.32,0,0,1,1.15-.22l.38,0a1.52,1.52,0,0,1,.32.06v-.07h1Zm-3.45,2a.93.93,0,0,0,.32.1,2.81,2.81,0,0,0,.59,0,5.88,5.88,0,0,0,.7,0,1.28,1.28,0,0,0,.4-.11.81.81,0,0,0,.36-.29.77.77,0,0,0,.12-.43.71.71,0,0,0-.16-.49,1.18,1.18,0,0,0-.56-.31l-.39-.11c-.39-.11-.59-.22-.59-.32a.2.2,0,0,1,.11-.17.67.67,0,0,1,.32-.06.61.61,0,0,1,.43.12.52.52,0,0,1,.14.4v0h.82l.17-1h-.87v.11a.89.89,0,0,0-.31-.09,3.89,3.89,0,0,0-.51,0,2.13,2.13,0,0,0-1.06.21.7.7,0,0,0-.37.63.67.67,0,0,0,.18.49,1.5,1.5,0,0,0,.64.34l.2.07c.39.12.59.23.59.34a.16.16,0,0,1-.1.15,1,1,0,0,1-.35.05.7.7,0,0,1-.44-.12.43.43,0,0,1-.15-.36V34h-.73l-.18,1h.68Zm-.09-.18,0,.16h-.41l.15-.79h.48a.51.51,0,0,0,.17.42.91.91,0,0,0,.55.14,1,1,0,0,0,.44-.08.27.27,0,0,0,.14-.25c0-.15-.19-.29-.57-.4l-.36-.12a1.32,1.32,0,0,1-.52-.29.57.57,0,0,1-.16-.39.61.61,0,0,1,.32-.56,2,2,0,0,1,1-.19,2.59,2.59,0,0,1,.51,0,1.57,1.57,0,0,1,.4.13l0-.16h.54l-.13.76h-.53a.5.5,0,0,0-.18-.41.8.8,0,0,0-.51-.14.78.78,0,0,0-.41.09.27.27,0,0,0-.15.25c0,.15.2.28.6.4l.14,0a2,2,0,0,1,.75.34.55.55,0,0,1,.19.44.6.6,0,0,1-.32.56,2,2,0,0,1-1,.18,4.46,4.46,0,0,1-.75,0A1.26,1.26,0,0,1,554.06,34.74Z"/><path class="cls-3" d="M532.47,25.77s-5.27,9.36,1.91,15.84c11,9.91,19.69-1.18,19.69-1.18s-8.78,13.5-20.79,2.14C525.42,35.14,532.47,25.77,532.47,25.77Z"/><path class="cls-2" d="M536.83,26s-5.63,11.42,4.72,17.77c9.59,5.88,16.69-2.76,16.69-2.76s-6.29,8.4-14.86,5.1c-8.29-3.19-8.92-9.35-9.12-12C534,29.92,536.83,26,536.83,26Z"/><path class="cls-4" d="M541.5,25.72s-3.1,5.62-1.33,10.77a12.92,12.92,0,0,0,13.63,9c7.26-.5,9.1-5,9.1-5a11.59,11.59,0,0,1-8.83,6A13.64,13.64,0,0,1,539,36.49,12,12,0,0,1,541.5,25.72Z"/><path class="cls-4" d="M528.77,53.82V50.5h.44v3.32Z"/><path class="cls-4" d="M529.84,52.76l.41,0a1,1,0,0,0,.14.41.81.81,0,0,0,.33.26,1.36,1.36,0,0,0,.51.1,1.25,1.25,0,0,0,.45-.08.67.67,0,0,0,.28-.2.46.46,0,0,0,.1-.29.44.44,0,0,0-.09-.27.71.71,0,0,0-.3-.2c-.09,0-.29-.09-.59-.16a2.46,2.46,0,0,1-.64-.21.85.85,0,0,1-.36-.31.73.73,0,0,1-.12-.41.82.82,0,0,1,.15-.47.85.85,0,0,1,.41-.33,1.54,1.54,0,0,1,.61-.11,1.6,1.6,0,0,1,.65.12.86.86,0,0,1,.44.35,1,1,0,0,1,.16.52l-.42,0a.69.69,0,0,0-.23-.48.93.93,0,0,0-.58-.16.9.9,0,0,0-.58.15.44.44,0,0,0-.18.35.38.38,0,0,0,.13.3,1.82,1.82,0,0,0,.66.23,4.13,4.13,0,0,1,.73.21,1,1,0,0,1,.43.34.86.86,0,0,1,.14.47.89.89,0,0,1-.15.5,1,1,0,0,1-.44.37,1.47,1.47,0,0,1-.64.13,1.83,1.83,0,0,1-.75-.13,1.09,1.09,0,0,1-.66-1Z"/><path class="cls-4" d="M533,52.21a1.78,1.78,0,0,1,.44-1.3,1.53,1.53,0,0,1,1.15-.47,1.69,1.69,0,0,1,.83.22,1.47,1.47,0,0,1,.56.62,2,2,0,0,1,.19.89,2,2,0,0,1-.2.9,1.35,1.35,0,0,1-.58.6,1.63,1.63,0,0,1-.81.21,1.54,1.54,0,0,1-.83-.23,1.35,1.35,0,0,1-.56-.62A1.8,1.8,0,0,1,533,52.21Zm.45,0a1.36,1.36,0,0,0,.32.95,1.07,1.07,0,0,0,.81.34,1.05,1.05,0,0,0,.82-.35,1.41,1.41,0,0,0,.32-1,1.7,1.7,0,0,0-.14-.71,1,1,0,0,0-.4-.47,1.07,1.07,0,0,0-.59-.17,1.13,1.13,0,0,0-.8.32A1.42,1.42,0,0,0,533.4,52.21Z"/><path class="cls-4" d="M536.33,53.88l1-3.43h.33l-1,3.43Z"/><path class="cls-4" d="M538.05,53.82V50.5h.44v3.32Z"/><path class="cls-4" d="M539.27,53.82V50.5h2.4v.39h-2v1h1.84v.39h-1.84v1.13h2v.39Z"/><path class="cls-4" d="M544.72,52.66l.44.11a1.47,1.47,0,0,1-.49.82,1.39,1.39,0,0,1-.88.29,1.52,1.52,0,0,1-.87-.22,1.41,1.41,0,0,1-.52-.63,2.39,2.39,0,0,1-.17-.89,1.88,1.88,0,0,1,.2-.91,1.36,1.36,0,0,1,.56-.58,1.56,1.56,0,0,1,.8-.2,1.29,1.29,0,0,1,1.32,1l-.44.1a1,1,0,0,0-.33-.52.9.9,0,0,0-.55-.17,1,1,0,0,0-.64.19.89.89,0,0,0-.36.49,2,2,0,0,0-.11.64,2.13,2.13,0,0,0,.12.74,1,1,0,0,0,.39.47,1.09,1.09,0,0,0,.56.15,1,1,0,0,0,.63-.21A1.07,1.07,0,0,0,544.72,52.66Z"/><path class="cls-4" d="M547.07,53.82h-.4V51.23a2.84,2.84,0,0,1-.39.28,3.34,3.34,0,0,1-.43.21v-.4a2.07,2.07,0,0,0,.6-.39,1.52,1.52,0,0,0,.36-.44h.26Z"/><path class="cls-4" d="M548.14,50.94v-.39h2.15v.31a4.53,4.53,0,0,0-.62.9,5.76,5.76,0,0,0-.49,1.15,4.22,4.22,0,0,0-.15.91h-.42a3.69,3.69,0,0,1,.15-.94,4.7,4.7,0,0,1,.43-1.07,4,4,0,0,1,.58-.87Z"/><path class="cls-4" d="M550.7,52.19a3.05,3.05,0,0,1,.12-.95,1.19,1.19,0,0,1,.36-.56.92.92,0,0,1,.6-.19,1,1,0,0,1,.47.11.89.89,0,0,1,.33.31,1.57,1.57,0,0,1,.21.49,3.33,3.33,0,0,1,.07.79,3.07,3.07,0,0,1-.12.94,1.15,1.15,0,0,1-.36.55,1,1,0,0,1-1.35-.14A2.19,2.19,0,0,1,550.7,52.19Zm.42,0a2,2,0,0,0,.19,1.08.54.54,0,0,0,.94,0,3.19,3.19,0,0,0,0-2.17.57.57,0,0,0-.47-.27.53.53,0,0,0-.45.23A2.16,2.16,0,0,0,551.12,52.19Z"/><path class="cls-4" d="M555.42,53.43v.39h-2.2a.87.87,0,0,1,0-.28,1.58,1.58,0,0,1,.27-.44,4.43,4.43,0,0,1,.53-.51,4.15,4.15,0,0,0,.73-.7.8.8,0,0,0,.19-.49.53.53,0,0,0-.17-.41.62.62,0,0,0-.45-.16.61.61,0,0,0-.65.66l-.42,0a1.05,1.05,0,0,1,.32-.71,1.09,1.09,0,0,1,.76-.25,1.05,1.05,0,0,1,.75.26.87.87,0,0,1,.28.66.91.91,0,0,1-.08.39,1.31,1.31,0,0,1-.27.41,4.91,4.91,0,0,1-.63.58l-.47.42a1.63,1.63,0,0,0-.17.22Z"/><path class="cls-4" d="M555.86,53l.42,0a.8.8,0,0,0,.22.47.64.64,0,0,0,.42.15.65.65,0,0,0,.5-.22.86.86,0,0,0,.2-.59.77.77,0,0,0-.19-.55.7.7,0,0,0-.52-.2.68.68,0,0,0-.35.09.7.7,0,0,0-.25.23l-.38,0,.32-1.7h1.65v.39h-1.33l-.17.89a1.05,1.05,0,0,1,.62-.21,1,1,0,0,1,.74.3,1.06,1.06,0,0,1,.3.78,1.19,1.19,0,0,1-.27.78,1.06,1.06,0,0,1-.87.4,1.12,1.12,0,0,1-.74-.25A1,1,0,0,1,555.86,53Z"/><path class="cls-4" d="M558.66,51.88v-.46h.46v.46Zm0,1.94v-.46h.46v.46Z"/><path class="cls-4" d="M561.86,53.43v.39h-2.19a.66.66,0,0,1,.05-.28,1.22,1.22,0,0,1,.27-.44,4.43,4.43,0,0,1,.53-.51,4.55,4.55,0,0,0,.73-.7.8.8,0,0,0,.19-.49.57.57,0,0,0-.17-.41.72.72,0,0,0-.92,0,.66.66,0,0,0-.18.49l-.42,0a1,1,0,0,1,.32-.71,1.25,1.25,0,0,1,1.51,0,.87.87,0,0,1,.28.66,1.09,1.09,0,0,1-.08.39,1.8,1.8,0,0,1-.27.41,6.85,6.85,0,0,1-.63.58c-.25.21-.4.35-.47.42a1.09,1.09,0,0,0-.17.22Z"/><path class="cls-4" d="M562.3,52.19a3.05,3.05,0,0,1,.12-.95,1.19,1.19,0,0,1,.36-.56.92.92,0,0,1,.6-.19,1,1,0,0,1,.47.11.84.84,0,0,1,.34.31,1.85,1.85,0,0,1,.2.49,3.25,3.25,0,0,1,.08.79,3.07,3.07,0,0,1-.12.94,1.15,1.15,0,0,1-.36.55.93.93,0,0,1-.61.2.92.92,0,0,1-.75-.34A2.19,2.19,0,0,1,562.3,52.19Zm.42,0a2,2,0,0,0,.19,1.08.55.55,0,0,0,1,0,3.19,3.19,0,0,0,0-2.17.58.58,0,0,0-.48-.27.53.53,0,0,0-.45.23A2.16,2.16,0,0,0,562.72,52.19Z"/><path class="cls-4" d="M566.42,53.82H566V51.23a2.84,2.84,0,0,1-.39.28,3.34,3.34,0,0,1-.43.21v-.4a2.07,2.07,0,0,0,.6-.39,1.52,1.52,0,0,0,.36-.44h.27Z"/><path class="cls-4" d="M567.49,50.94v-.39h2.14v.31a4.53,4.53,0,0,0-.62.9,5.19,5.19,0,0,0-.48,1.15,4.21,4.21,0,0,0-.16.91H568a5.13,5.13,0,0,1,.58-2,4.38,4.38,0,0,1,.58-.87Z"/><path class="cls-2" d="M486.75,25.44l-1.09-1.28.26-.22L487,25.22Z"/><path class="cls-2" d="M487.25,25l-1-1.37.58-.41a1.39,1.39,0,0,1,.35-.19.43.43,0,0,1,.25,0,.52.52,0,0,1,.21.18.47.47,0,0,1,.09.31.5.5,0,0,1-.18.32.87.87,0,0,1,.23,0,1.67,1.67,0,0,1,.31.12l.36.15-.34.23-.4-.16-.29-.1h-.13l-.15.08-.05,0,.4.58ZM487,24l.21-.14a1.91,1.91,0,0,0,.24-.19.23.23,0,0,0,0-.11.24.24,0,0,0,0-.13.2.2,0,0,0-.12-.08.18.18,0,0,0-.14,0l-.2.13-.22.16Z"/><path class="cls-2" d="M490,23.32l-.32.18-.31-.27-.59.32.06.4-.31.18-.23-1.79.31-.17Zm-.86-.28-.5-.44.1.66Z"/><path class="cls-2" d="M491.31,22.55a1.53,1.53,0,0,0,.3,0l0,.26a.49.49,0,0,1-.17,0l-.26-.05a1.1,1.1,0,0,1-.31.2.82.82,0,0,1-.65,0,1.06,1.06,0,0,1-.48-1.19.8.8,0,0,1,.47-.43.77.77,0,0,1,.63,0,.84.84,0,0,1,.44.51.92.92,0,0,1,.09.38A1,1,0,0,1,491.31,22.55Zm-.33-.08a.47.47,0,0,0,0-.21.82.82,0,0,0-.34-.59.41.41,0,0,0-.36,0,.42.42,0,0,0-.26.26.61.61,0,0,0,0,.45.68.68,0,0,0,.29.36.43.43,0,0,0,.35,0,.35.35,0,0,0,.12-.07.62.62,0,0,0-.23,0v-.22A1.11,1.11,0,0,1,491,22.47Z"/><path class="cls-2" d="M491.84,22.6l-.49-1.6.32-.1.49,1.6Z"/><path class="cls-2" d="M494.54,22l-.36.06-.21-.35-.66.11-.07.4-.36.06.37-1.76.36-.06Zm-.72-.55-.33-.58-.12.65Z"/><path class="cls-2" d="M495.77,21.35l.33.09a.72.72,0,0,1-.24.42.75.75,0,0,1-.44.15.72.72,0,0,1-.56-.21.92.92,0,0,1-.23-.62.87.87,0,0,1,.19-.65.72.72,0,0,1,.56-.25.67.67,0,0,1,.51.16.64.64,0,0,1,.18.3l-.33.09a.39.39,0,0,0-.13-.2.37.37,0,0,0-.23-.07.4.4,0,0,0-.3.15.61.61,0,0,0-.1.44.62.62,0,0,0,.13.44.38.38,0,0,0,.3.13.39.39,0,0,0,.23-.09A.61.61,0,0,0,495.77,21.35Z"/><path class="cls-2" d="M497.53,21.46l.31.14a.72.72,0,0,1-.29.38.66.66,0,0,1-.45.09.73.73,0,0,1-.53-.28,1,1,0,0,1-.15-.65.92.92,0,0,1,.28-.62.72.72,0,0,1,.59-.17.69.69,0,0,1,.48.23.68.68,0,0,1,.14.32l-.34.05a.41.41,0,0,0-.1-.22.37.37,0,0,0-.23-.1.39.39,0,0,0-.31.1.68.68,0,0,0-.16.42.71.71,0,0,0,.07.47.39.39,0,0,0,.28.16.34.34,0,0,0,.24-.06A.51.51,0,0,0,497.53,21.46Z"/><path class="cls-2" d="M498.07,22.16l.39-1.63.69.16a1.43,1.43,0,0,1,.37.14.38.38,0,0,1,.15.2.49.49,0,0,1,0,.27.46.46,0,0,1-.18.28.51.51,0,0,1-.36.07,1.19,1.19,0,0,1,.15.18c0,.06.07.17.12.31l.13.37-.4-.1L499,22l-.12-.28a.24.24,0,0,0-.08-.09l-.16-.06h-.07l-.16.68Zm.55-.86.25.06.3.05a.19.19,0,0,0,.1-.05.24.24,0,0,0,.07-.12.17.17,0,0,0,0-.14.18.18,0,0,0-.1-.09l-.24-.07-.26-.06Z"/><path class="cls-2" d="M499.71,22.57l.58-1.57,1.16.43-.09.27-.85-.32-.13.35.79.29-.1.27-.79-.29-.16.43.88.32-.09.26Z"/><path class="cls-2" d="M501.91,21.63l.56.27a1.42,1.42,0,0,1,.27.17.6.6,0,0,1,.16.25.84.84,0,0,1,0,.32,1.56,1.56,0,0,1-.13.38,1.13,1.13,0,0,1-.2.29.85.85,0,0,1-.29.19.64.64,0,0,1-.28,0,.87.87,0,0,1-.28-.1l-.57-.28Zm.18.4-.49,1,.22.12.19.07a.29.29,0,0,0,.16,0,.48.48,0,0,0,.15-.1,1.68,1.68,0,0,0,.17-.26,1.25,1.25,0,0,0,.1-.29.35.35,0,0,0,0-.18.28.28,0,0,0-.1-.14,1.7,1.7,0,0,0-.24-.14Z"/><path class="cls-2" d="M502.67,23.91l.85-1.45.29.18L503,24.08Z"/><path class="cls-2" d="M503.58,24.47l.77-1.16-.41-.28.15-.23,1.11.74-.16.23-.41-.27-.77,1.16Z"/><path class="cls-2" d="M505.47,25.92l-.28-.23.13-.39-.52-.43-.35.21-.27-.23,1.57-.88.28.23Zm-.05-.91.22-.62-.58.33Z"/><path class="cls-2" d="M505.73,26.21l1-1-.35-.36.21-.19.92,1-.21.2L507,25.5l-1,1Z"/><path class="cls-2" d="M506.42,27l1.32-1,.21.27-1.32,1Z"/><path class="cls-2" d="M507.51,27a1.12,1.12,0,0,1,.41-.16.72.72,0,0,1,.52.12,1,1,0,0,1,.24.28.78.78,0,0,1,.11.62,1,1,0,0,1-1.09.66.75.75,0,0,1-.5-.38.77.77,0,0,1-.11-.63A.85.85,0,0,1,507.51,27Zm.19.29a.64.64,0,0,0-.3.34.42.42,0,0,0,.05.36.45.45,0,0,0,.29.21.66.66,0,0,0,.44-.12.64.64,0,0,0,.31-.33.43.43,0,0,0-.06-.36.45.45,0,0,0-.29-.22A.66.66,0,0,0,507.7,27.31Z"/><path class="cls-2" d="M507.74,29.06l1.56-.62.12.31-.79,1.05,1-.41.12.29-1.56.62-.12-.32.76-1-1,.41Z"/><path class="cls-2" d="M509,31.1l.08.32a.39.39,0,0,0-.21.16.42.42,0,0,0,0,.26.45.45,0,0,0,.11.23.25.25,0,0,0,.18,0,.19.19,0,0,0,.09,0,.26.26,0,0,0,.05-.14,2.07,2.07,0,0,0,0-.28.91.91,0,0,1,.09-.4.42.42,0,0,1,.31-.21.37.37,0,0,1,.25,0,.46.46,0,0,1,.2.17.93.93,0,0,1,.11.32.7.7,0,0,1,0,.49.47.47,0,0,1-.33.23l-.08-.33a.26.26,0,0,0,.17-.13.3.3,0,0,0,0-.22.38.38,0,0,0-.1-.21.15.15,0,0,0-.11,0,.17.17,0,0,0-.1.07,1.25,1.25,0,0,0-.05.33,2.53,2.53,0,0,1,0,.38.6.6,0,0,1-.14.21.48.48,0,0,1-.25.11.45.45,0,0,1-.28,0,.45.45,0,0,1-.22-.19,1,1,0,0,1-.13-.35.68.68,0,0,1,.06-.5A.65.65,0,0,1,509,31.1Z"/><path class="cls-2" d="M508.78,33.26l.71,0,.93-.67,0,.4-.64.43.69.35,0,.39-1-.56-.7,0Z"/><path class="cls-2" d="M509.37,34.32l0,.33a.45.45,0,0,0-.25.11.43.43,0,0,0-.09.24.36.36,0,0,0,.06.25.18.18,0,0,0,.15.09.11.11,0,0,0,.11,0,.35.35,0,0,0,.08-.11l.08-.27a1,1,0,0,1,.19-.37.45.45,0,0,1,.58-.06.6.6,0,0,1,.16.22,1.06,1.06,0,0,1,0,.33.75.75,0,0,1-.16.47.52.52,0,0,1-.38.15v-.34a.31.31,0,0,0,.19-.08.4.4,0,0,0,.07-.21.43.43,0,0,0-.05-.24.13.13,0,0,0-.1-.06.16.16,0,0,0-.11,0,.92.92,0,0,0-.12.3,1.79,1.79,0,0,1-.14.36.52.52,0,0,1-.18.18.49.49,0,0,1-.27,0,.44.44,0,0,1-.27-.09.46.46,0,0,1-.17-.24.81.81,0,0,1,0-.36.62.62,0,0,1,.6-.67Z"/><path class="cls-2" d="M508.67,36.32l1.38.2.07-.5.28,0-.18,1.32-.28,0,.06-.49-1.37-.19Z"/><path class="cls-2" d="M508.51,37.37l1.64.38L509.87,39l-.28-.06.2-.89-.36-.08-.19.82-.27-.06.19-.82-.45-.1-.21.91-.27-.06Z"/><path class="cls-2" d="M508.16,38.9l1.59.53-.16.48-1.19-.07,1,.64-.16.49-1.59-.54.1-.29,1.25.41-1.14-.73.1-.31,1.36.11-1.25-.42Z"/><path class="cls-3" d="M484.33,21.6l-.06.06-.13.16.13.27c0,.09.1.21.16.36a1.93,1.93,0,0,1,.22.91l-.09.36-.09.29-.13.34-.07.14-.09.18a2.55,2.55,0,0,1-.36.51,1.63,1.63,0,0,1-.84.53,1.16,1.16,0,0,1-1-.34l-.11-.11-.12-.12-.12-.14-.05-.07-.06-.1a3.53,3.53,0,0,1-.37-.7c-.19-.42-.26-.67-.21-.74l.1.13.12.14.39.75a2.35,2.35,0,0,0,.24.35,1,1,0,0,0,1,.24,1.92,1.92,0,0,0,.69-.54,4.3,4.3,0,0,0,.43-.54,2,2,0,0,0,.25-.53,1.15,1.15,0,0,0,.08-.29l0-.08v-.09a1.15,1.15,0,0,0,0-.2.6.6,0,0,0-.45-.16,1.35,1.35,0,0,0-.3.13l-.16.14-.17.16-.32.24-.16-.42-.07-.24.38-.47a3.3,3.3,0,0,0,.32-.4l.35-.44.13-.14Zm1.2,3.28.21.52-.71.19.15.38-.76.2-.21-.56.79-.17-.17-.4Z"/><path class="cls-3" d="M483,17l.14.61-.82.09.08.45-.85.08-.13-.65.9,0-.13-.48Zm.65,4.35,2.19-1.74,0-.06-.07-.08-.09-.09a1.43,1.43,0,0,0-.28-.26,1.59,1.59,0,0,0-.46-.29l0,.5,0,.13-.05.14,0,.06-.08.12-.11.12-.06.05-.1.07a.38.38,0,0,1-.11.05,1,1,0,0,1-.27,0,.45.45,0,0,1-.38-.13,1.82,1.82,0,0,1-.24-1.06q0-.84.3-1.08c.12-.1.42,0,.9.25a3.83,3.83,0,0,1,1.14.94l.18.3.12.21c.18.35.23.56.16.62l-2.19,1.74Zm1.07-2.61a1.23,1.23,0,0,0-.2-.1l-.11,0-.16-.05a.53.53,0,0,0-.43,0,.8.8,0,0,0-.1.32.67.67,0,0,0,0,.38c0,.06.13.08.26.07l.16,0a.81.81,0,0,0,.18-.1l.14-.13.09-.11A.53.53,0,0,0,484.73,18.74Z"/><path class="cls-3" d="M487.12,18.56a2,2,0,0,1,.18.4,1.39,1.39,0,0,1,.09.27l.1.47-.17-.27-.15-.22-.09-.14L487,19l-.21-.28-.8-1-.58-.76c-.2-.28-.39-.51-.57-.72l0,0a.42.42,0,0,1-.05-.1l-.05-.14a2.13,2.13,0,0,1-.07-.45l0-.53.06.06.06.08.17.23.22.33.22.33.21.32.19.28.46.64.19.28.16.23.36.56.11.17Z"/><path class="cls-3" d="M490.63,17.84l-.18.08-.13,0h-.17a.73.73,0,0,1-.34-.12,3,3,0,0,1,.12,1.55c-.08.68-.26,1.09-.52,1.21a3.32,3.32,0,0,1-.92.09c-.5,0-.76,0-.78-.08s0-.09,0-.11h.51a1,1,0,0,0,.41-.07l.09-.05s.05,0,.08-.07a2,2,0,0,0,.32-.49,3,3,0,0,0,.14-.36l.12-.42a4.82,4.82,0,0,0,.13-.76.83.83,0,0,0-.06-.47l-.11-.09-.17-.13-.14-.1-.15-.09-.4-.24v-.74l.82.58a3.2,3.2,0,0,0,.46.25l.1,0,.13,0a.49.49,0,0,0,.2,0l.1,0Z"/><path class="cls-3" d="M490.07,17.33l.59-.16.08,0,.08,0a2.29,2.29,0,0,0,.42-.15,1.12,1.12,0,0,0,.4-.28l-.1-.13a.47.47,0,0,0-.14-.12h-.16l-.18.07a.2.2,0,0,1-.11,0s-.06,0-.08-.09a.78.78,0,0,1,0-.24l.15-.73,0-.1.08-.1a.42.42,0,0,1,.21-.11.6.6,0,0,1,.37,0,.18.18,0,0,1,.11,0l.11,0,.23.13c.22.12.32.23.32.3l-.09.68s0,0,0,.06a.35.35,0,0,1-.11.09l.06.08.07.06h.12l.18,0,.32-.09.18.67-.37.1a.79.79,0,0,1-.46,0l-.19-.07a.5.5,0,0,1-.17-.14,1.55,1.55,0,0,1-.81.62l-.39.15-.57.15Z"/><path class="cls-3" d="M492.75,16.62l1.48-.17s0-.06,0-.17-.05-.31-.08-.5l-.05-.26-.06-.23-.09-.37c-.11-.47-.25-1-.43-1.66h0a.27.27,0,0,1-.14-.18V13l0-.09.23-.67,0-.1a.1.1,0,0,1,.07-.05s0,0,0,.07l0,.12v.1s0,.07.08.11l.29.14.14.07.12.06-.24.8-.09,0,.47,2.26a7.05,7.05,0,0,1,0,.82c0,.32-.06.49-.13.51l-1.56.18Z"/><path class="cls-3" d="M496.1,16.16a2,2,0,0,1-.05.44,1.86,1.86,0,0,1-.07.28l-.16.45v-.75l0-.12,0-.35-.14-1.3-.1-1c0-.34-.06-.64-.11-.9V12.9a.8.8,0,0,1,0-.11l0-.14a1.89,1.89,0,0,1,.17-.43l.24-.46a.1.1,0,0,1,0,.07l0,.11,0,.28v.4l0,.39v.39l0,.33.05.78,0,.35v.28l0,.67V16Z"/><path class="cls-3" d="M501,17.06l-.27.66a2.71,2.71,0,0,1-.58,0H500l-.31,0-.25,0-.18,0-.14,0H499l-.12,0-.13,0a1,1,0,0,1-.29-.1l.33-.68.29.1.34.1a7,7,0,0,0,.8.11l.1,0,.08,0h.26l.05-.13,0-.12a.28.28,0,0,0,0-.13v-.15l0-.16,0-.16-.05-.13a1,1,0,0,0-.1-.27l-.08-.17-.06-.1a2,2,0,0,0-.19-.27l0-.18,0-.07.06-.13.18-.45a2.55,2.55,0,0,1,.45.83,3.18,3.18,0,0,1,.15,1.36l0,.16,0,.09,0,.07Z"/><path class="cls-3" d="M502.63,18.42l-1.09-.36,1.19-4.55.58-.46-.05.16-.05.16-.2.68c-.05.15-.11.36-.18.65l-.19.8-.18.78-.12.54a3,3,0,0,0-.08.58l0,.08a.23.23,0,0,0,.1.12l.17.08.29.09Z"/><path class="cls-3" d="M502.58,17.64l1,.45c.09.05.23,0,.39-.17a2.56,2.56,0,0,1,.41-.4,3.21,3.21,0,0,1,.77-.18,2,2,0,0,1,.34,0,.55.55,0,0,1,.25.05c.1,0,.12.11.07.22l0,.08,0,.08,0,.08a3.05,3.05,0,0,0-.1.82.58.58,0,0,0,.18.44l.15.07-.29.62-.44-.2-.35.33-1-1.49c-.07,0-.16,0-.29.14s-.23.16-.32.12l-.95-.43Zm2.58,1.17,0-.23.06-.23c.05-.25,0-.41-.12-.47a.77.77,0,0,0-.27-.07.64.64,0,0,0-.27,0,.89.89,0,0,0-.22.11l.26.44.19.27.07.06.06.05Z"/><path class="cls-3" d="M505.67,19.07l1.33.82.49-.76.35-.16a5.24,5.24,0,0,1,.5-.19l-.36.52-.27.36-.08.11-.08.07-.15.19s0,.07.05.13l.16.1-.36.58-.29-.17a.39.39,0,0,1-.16-.21s0-.1,0-.2a.47.47,0,0,0,0-.16l-.11,0-.12.06c-.11.08-.2.11-.24.09l-1-.64Zm3.3-1.48-.52.32-.33-.74-.4.25-.35-.75.53-.34.32.75.41-.24Z"/><path class="cls-3" d="M507.37,19.94l.72.69a.51.51,0,0,1,0-.22l.06-.14a.44.44,0,0,1,.09-.11l0-.05a1.64,1.64,0,0,1,.9-.3,1.59,1.59,0,0,1,1.41.29.43.43,0,0,1,.13.31,1.54,1.54,0,0,1,0,.54l-.13.27-.13.27,0-.26-.06-.25a1.83,1.83,0,0,0-.11-.26l-.08-.12-.1-.11a1.7,1.7,0,0,0-.58-.33c-.27-.1-.43-.12-.49-.06a1,1,0,0,0-.13.68l0,.25,0,.29,0,.07,0,.1.05.08.08.09.63.51.55.48-.72.34-.2-.19-.2-.19-.46-.43-.28-.26-.39-.36-.65-.6-.55-.52Z"/><path class="cls-3" d="M515.64,24.2h-.16l-.58,0-.27.16,0,0-.14.08-.09,0-.21.11-.11,0-.12,0a2.2,2.2,0,0,1-.55.12l-.18,0h-.65l-.11.12-.09.1c-.14.14-.31.3-.53.49a.74.74,0,0,0-.18.12c-.25.15-.43.12-.55-.08l-.87-1.51.68-.27a2.38,2.38,0,0,0,.85.4c.43.14.68.2.74.16a2.38,2.38,0,0,0,.43-.78l.14-.33.1-.26.17-.49-.37.11L513,22l0-.3a.89.89,0,0,1,.36-.58l.11-.06.11-.07.12-.05.1-.06.1,0a.24.24,0,0,1,.28.05.29.29,0,0,1,0,.15l0,.34a5.42,5.42,0,0,1-.36,1.25c-.1.24-.24.54-.43.9l-.27.44-.3.47a1.11,1.11,0,0,0,.43,0h.09l.14,0,.22,0,.28-.14.23-.15.26-.2.47-.4,0-.15s0-.05,0-.08l.07-.1,0,0h.1l.34,0h.43a2.08,2.08,0,0,0-.21.21,1.32,1.32,0,0,0-.13.29l0,.14,0,.16A1.13,1.13,0,0,0,515.64,24.2Zm-4,1.11a2,2,0,0,0,.33-.25l0,0,.1-.1c0-.05.08-.07.08-.09l.08-.1a1.79,1.79,0,0,1-.59-.15l-.64-.3v.09l.13.24.15.24.12.21,0,.06.06.08Z"/><path class="cls-3" d="M512.72,27.23a1.41,1.41,0,0,1-.43.1,1.58,1.58,0,0,1-.28,0h-.48l.3-.12.24-.09.16-.06.11-.06.31-.15,1.18-.56.87-.4a8.93,8.93,0,0,0,.82-.41l.05,0,.11,0h.14a2.59,2.59,0,0,1,.46,0l.52.08-.07,0-.09.05-.26.11-.37.15-.36.14-.37.14-.31.12-.72.31-.32.13-.26.11-.62.24-.19.07Z"/><path class="cls-3" d="M513.59,32.1h-.15a.29.29,0,0,1-.12,0l-.23,0-.2-.05,0-.19,0-.38V31l0-.26,0-.19c0-.07,0-.12,0-.17l0-.13a.16.16,0,0,0,0-.09l0-.11a.6.6,0,0,0-.31-.36l-1,.37a5.56,5.56,0,0,1-1,.29l-.35,0h-.31l-.12,0c-.33,0-.5,0-.52-.06h.06l.08,0,.19,0,.55-.16,1-.3c.7-.2,1.11-.32,1.23-.37l.18,0,.11,0a1.76,1.76,0,0,1,.3.1l.17.09a1.35,1.35,0,0,1,.3.32,3.42,3.42,0,0,1,.2.36.84.84,0,0,1,.1.33v.15a.39.39,0,0,1,0,.22l-.07.24.12-.09.41-.4a.56.56,0,0,0,.16-.44.62.62,0,0,0-.15-.29L514,30l-.15-.16.29.06c.46.23.71.51.75.82,0,.06,0,.15-.14.27a1.62,1.62,0,0,1-.19.22l-.14.13-.18.17-.34.32-.16.19Z"/><path class="cls-3" d="M512.8,34.14l0-1.15,4.68-.48.63.38h-.16l-.17,0-.7,0a5.51,5.51,0,0,0-.68.06l-.82.1-.78.1-.55.08a2.13,2.13,0,0,0-.58.13l-.06.05a.22.22,0,0,0-.08.13v.5Z"/><path class="cls-3" d="M513.56,33.81l-.06.85v.14a.41.41,0,0,0,0,.11l0,.14.08.13a.28.28,0,0,0,.22.09l3.07,0a.37.37,0,0,1,.13-.12l.16,0,.12,0,.65.39s.06,0,.07,0l.05,0s0,0,0,.07a.09.09,0,0,1-.09,0l-.12,0-.11,0a.33.33,0,0,0-.13.06l-.21.26-.17.25-.78-.42,0-.09h-1.29c-.4,0-.73-.08-1-.13a1.65,1.65,0,0,1-.56-.18,4.32,4.32,0,0,0,.65,1,2.5,2.5,0,0,1,.62,1.28,1.14,1.14,0,0,1-.47.67,1.66,1.66,0,0,1-.41.26.93.93,0,0,1-.41.08,2.08,2.08,0,0,1-.5-.19l0,.44-.68-.06.41-5.11Zm.41,4.06a2.12,2.12,0,0,0,.26-.31l0-.11a.43.43,0,0,0,0-.19,1.42,1.42,0,0,0-.42-.89,2.27,2.27,0,0,1-.47-.77l-.16,2v.3l0,.13a.16.16,0,0,0,.16.15h.08l.13-.07A1.45,1.45,0,0,0,514,37.87Zm2.34-.42-.52-.33.51-.63.52.34Z"/><path class="cls-3" d="M513.12,38.6l-.32,1.76a1.63,1.63,0,0,0,.62,0l.19,0,.16,0,.08,0,.09,0,.17-.05.3.2.33.23a1,1,0,0,1-.24.06l-.36.08a2.74,2.74,0,0,1-.94,0l-.13,0-.08,0-.09,0a.42.42,0,0,1-.15,0l-.22-.09-.13,0-.18-.06-.12-.06.34-1.92Zm3.46,2.33-.54-.39.58-.6.51.36Z"/><path class="cls-4" d="M493.45,32.18l.67.58-.06.54-.27,0a.28.28,0,0,0-.16,0s0,.06-.05.14l-.11,1.17.43.37-.06.55-2.17.16-.66-.57.05-.55.28,0a.39.39,0,0,0,.15,0,.17.17,0,0,0,.05-.14l.12-1.17-.43-.37,0-.55Zm0,0-2.09.16,0,.47.28,0a.21.21,0,0,1,.12,0,.08.08,0,0,1,.05.08V33l-.15,1.49a.18.18,0,0,1-.06.13.21.21,0,0,1-.15,0l-.27,0-.05.45,2.1-.16,0-.46-.28,0a.21.21,0,0,1-.12,0,.13.13,0,0,1-.05-.09v0l.15-1.49a.17.17,0,0,1,.05-.13.34.34,0,0,1,.16-.06l.27,0Zm-.2.34-.18,0a.38.38,0,0,0-.24.07.28.28,0,0,0-.08.19l-.15,1.57v.07a.16.16,0,0,0,.08.15.23.23,0,0,0,.19,0H493l0,.2-1.75.13,0-.19.18,0a.39.39,0,0,0,.23-.07.31.31,0,0,0,.08-.19L491.9,33v-.06a.22.22,0,0,0-.07-.16.37.37,0,0,0-.2,0l-.17,0,0-.19,1.75-.14Z"/><path class="cls-4" d="M495.79,36.41l-1.12-1.12.1-.1-.45-.45a1,1,0,0,1-.19-.3,1.12,1.12,0,0,1-.06-.38,1.79,1.79,0,0,1,0-.21c0-.09,0-.18,0-.29s0-.21.05-.29a1.06,1.06,0,0,1,.05-.18,1.11,1.11,0,0,1,.12-.27.79.79,0,0,1,.18-.22,1.3,1.3,0,0,1,.55-.28,3.38,3.38,0,0,1,.86-.09,3.06,3.06,0,0,1,.84.09,1.17,1.17,0,0,1,.5.28l.63.63a.75.75,0,0,1,.18.28,1,1,0,0,1,.07.34s0,.1,0,.2,0,.21,0,.34,0,.33-.06.42,0,.15,0,.18a1,1,0,0,1-.19.32,1.57,1.57,0,0,1-.33.25l.25.25-.1.59-.17.05h-.15a1.33,1.33,0,0,1-.54-.18l0,0a1.12,1.12,0,0,0-.24-.1.63.63,0,0,0-.19,0,.46.46,0,0,0-.23.06A1.14,1.14,0,0,0,495.79,36.41Zm.44-1.39a1.88,1.88,0,0,0,.52-.13,1.14,1.14,0,0,0,.37-.27l.13-.18a1.8,1.8,0,0,0,.08-.21,1.67,1.67,0,0,0,.05-.19c0-.08,0-.18.05-.28s0-.2,0-.29a1.64,1.64,0,0,0,0-.2.82.82,0,0,0-.37-.75,2.21,2.21,0,0,0-1.16-.24,3.89,3.89,0,0,0-.87.08,1.17,1.17,0,0,0-.53.28,1.06,1.06,0,0,0-.17.2.85.85,0,0,0-.11.26.56.56,0,0,0,0,.19,2,2,0,0,0-.05.28c0,.11,0,.21,0,.29s0,.15,0,.2a.9.9,0,0,0,.26.66,1.09,1.09,0,0,0,.71.28l-.19.13a.8.8,0,0,0-.15.17l.4.41a.7.7,0,0,1,.23-.2.59.59,0,0,1,.25-.07l.2,0,.23.11.06,0a1.19,1.19,0,0,0,.51.18l.16,0,.22-.06.1-.59-.14,0h-.11a1.6,1.6,0,0,1-.3,0Zm-.52-.07a4.74,4.74,0,0,1,.52.18,1.34,1.34,0,0,0,.53.14h.13l-.05.32-.13,0h-.09a1.3,1.3,0,0,1-.56-.19l-.07,0a.48.48,0,0,0-.18-.06.55.55,0,0,0-.18,0,.62.62,0,0,0-.26.06.63.63,0,0,0-.23.16l-.25-.23a1.42,1.42,0,0,1,.3-.24.69.69,0,0,1,.29-.11,1.86,1.86,0,0,1-.93-.28.77.77,0,0,1-.29-.64,1.36,1.36,0,0,1,0-.18c0-.07,0-.17,0-.27s0-.16,0-.24,0-.14,0-.19a.62.62,0,0,1,.1-.22.75.75,0,0,1,.15-.2,1.2,1.2,0,0,1,.49-.25,3.28,3.28,0,0,1,.78-.08,2,2,0,0,1,1.06.23.74.74,0,0,1,.34.68,1.23,1.23,0,0,1,0,.17c0,.07,0,.16,0,.27s0,.18,0,.25,0,.14,0,.18a1.13,1.13,0,0,1-.13.27,1,1,0,0,1-.2.21,1.34,1.34,0,0,1-.48.21A2.31,2.31,0,0,1,495.71,35Zm.67-.84.16-.91s0-.05,0-.08V33a.35.35,0,0,0-.16-.32.75.75,0,0,0-.46-.11.75.75,0,0,0-.49.13.83.83,0,0,0-.23.48l-.17.91s0,.06,0,.08v.07a.39.39,0,0,0,.15.34.9.9,0,0,0,.48.11.71.71,0,0,0,.48-.14A.83.83,0,0,0,496.38,34.11Zm-.17,0a.71.71,0,0,1-.17.4.54.54,0,0,1-.37.11.53.53,0,0,1-.34-.09.26.26,0,0,1-.12-.24s0,0,0-.07,0-.06,0-.1l.16-.86a.65.65,0,0,1,.17-.4.53.53,0,0,1,.36-.11.65.65,0,0,1,.35.08.32.32,0,0,1,.11.26v.06a.56.56,0,0,0,0,.1Zm-.42.46a.38.38,0,0,0,.25-.13.64.64,0,0,0,.13-.33l.11-.63a.39.39,0,0,0-.25.11.79.79,0,0,0-.12.29Z"/><path class="cls-4" d="M498,35.07l.09-.55h.18a.46.46,0,0,0,.2,0,.5.5,0,0,0,.14-.18l1.13-2.05h1.58l.85.83.42,1.78.21.19-.12.63h-4Zm.05,0H500l.08-.44h-.27l-.1,0a.06.06,0,0,1,0-.06v0l.1-.23h.78a.59.59,0,0,1,0,.13.45.45,0,0,1,0,.11.12.12,0,0,1,0,.09.19.19,0,0,1-.12,0h-.31L500,35h2.05l.08-.44H502a.36.36,0,0,1-.18,0s-.05-.07-.07-.15l-.46-2.1h-1.5l-1.14,2.08c0,.09-.09.14-.14.16a.41.41,0,0,1-.22,0h-.14Zm.16-.12,0-.2h.12a.38.38,0,0,0,.22-.06.69.69,0,0,0,.2-.25l1.09-2h1.24l.44,2a.45.45,0,0,0,.1.23.29.29,0,0,0,.21.06H502l0,.2h-1.7l0-.2h.13a.41.41,0,0,0,.27-.07.23.23,0,0,0,.1-.2.69.69,0,0,0,0-.13,1.36,1.36,0,0,0-.06-.2h-1l0,.08a1,1,0,0,0-.13.33.19.19,0,0,0,.08.15.57.57,0,0,0,.25,0h0l0,.2Zm2.38-1.1-.24-1.06-.55,1.06Zm-.56-.13.26-.53.12.53Z"/><path class="cls-4" d="M507.11,32.89l-.17,1h-.75l.5.47a.5.5,0,0,1,.07.16,1.07,1.07,0,0,1,0,.25.71.71,0,0,1-.37.67,2.32,2.32,0,0,1-1.13.22,4.66,4.66,0,0,1-.64,0,.9.9,0,0,1-.35-.11l0,.12h-.74l-.61-.61.19-1.09H504a1.27,1.27,0,0,1-.53-.33.7.7,0,0,1-.17-.49.73.73,0,0,1,.38-.67,2.36,2.36,0,0,1,1.16-.22l.38,0a1.42,1.42,0,0,1,.31.06v-.07h1Zm-3.45,2a.87.87,0,0,0,.31.1,3,3,0,0,0,.6,0,5.68,5.68,0,0,0,.69,0,1.35,1.35,0,0,0,.41-.11.81.81,0,0,0,.36-.29.77.77,0,0,0,.12-.43.71.71,0,0,0-.17-.49,1.13,1.13,0,0,0-.56-.31l-.39-.11c-.39-.11-.58-.22-.58-.32a.18.18,0,0,1,.11-.17.66.66,0,0,1,.31-.06.64.64,0,0,1,.44.12.52.52,0,0,1,.13.4v0h.82l.17-1h-.86l0,.11a.77.77,0,0,0-.31-.09,3.68,3.68,0,0,0-.51,0,2.16,2.16,0,0,0-1.06.21.71.71,0,0,0-.36.63.67.67,0,0,0,.18.49,1.5,1.5,0,0,0,.64.34l.2.07c.39.12.58.23.58.34a.15.15,0,0,1-.1.15.9.9,0,0,1-.34.05.68.68,0,0,1-.44-.12.43.43,0,0,1-.15-.36V34h-.73L503,35h.68Zm-.1-.18,0,.16h-.4l.14-.79h.48a.49.49,0,0,0,.18.42.89.89,0,0,0,.54.14,1,1,0,0,0,.44-.08.27.27,0,0,0,.14-.25c0-.15-.19-.29-.56-.4l-.37-.12a1.2,1.2,0,0,1-.51-.29.53.53,0,0,1-.16-.39.59.59,0,0,1,.32-.56,2,2,0,0,1,1-.19,2.44,2.44,0,0,1,.51,0,1.64,1.64,0,0,1,.41.13l0-.16h.55l-.13.76h-.53a.56.56,0,0,0-.18-.41.84.84,0,0,0-.51-.14.82.82,0,0,0-.42.09.29.29,0,0,0-.14.25c0,.15.2.28.59.4l.14,0a2.19,2.19,0,0,1,.76.34.58.58,0,0,1,.19.44.62.62,0,0,1-.32.56,2.07,2.07,0,0,1-1,.18,4.4,4.4,0,0,1-.74,0A1.32,1.32,0,0,1,503.56,34.74Z"/><path class="cls-3" d="M482,25.77s-5.26,9.36,1.91,15.84c11,9.91,19.7-1.18,19.7-1.18s-8.78,13.5-20.79,2.14C474.93,35.14,482,25.77,482,25.77Z"/><path class="cls-2" d="M486.33,26s-5.63,11.42,4.72,17.77c9.6,5.88,16.69-2.76,16.69-2.76s-6.29,8.4-14.86,5.1c-8.29-3.19-8.92-9.35-9.11-12C483.47,29.92,486.33,26,486.33,26Z"/><path class="cls-4" d="M491,25.72s-3.11,5.62-1.34,10.77a12.93,12.93,0,0,0,13.64,9c7.26-.5,9.09-5,9.09-5a11.58,11.58,0,0,1-8.82,6,13.63,13.63,0,0,1-15.09-10.08A11.93,11.93,0,0,1,491,25.72Z"/><path class="cls-4" d="M478.28,53.82V50.5h.44v3.32Z"/><path class="cls-4" d="M479.34,52.76l.42,0a.94.94,0,0,0,.13.41.93.93,0,0,0,.34.26,1.36,1.36,0,0,0,.51.1,1.19,1.19,0,0,0,.44-.08.65.65,0,0,0,.29-.2.52.52,0,0,0,.09-.29.44.44,0,0,0-.09-.27.71.71,0,0,0-.3-.2,6.08,6.08,0,0,0-.59-.16,2.61,2.61,0,0,1-.64-.21.77.77,0,0,1-.35-.31.73.73,0,0,1-.12-.41.89.89,0,0,1,.14-.47.93.93,0,0,1,.42-.33,1.51,1.51,0,0,1,.61-.11,1.67,1.67,0,0,1,.65.12.83.83,0,0,1,.43.35,1,1,0,0,1,.17.52l-.43,0a.65.65,0,0,0-.23-.48,1.14,1.14,0,0,0-1.15,0,.45.45,0,0,0-.19.35.42.42,0,0,0,.13.3,2,2,0,0,0,.67.23,4.42,4.42,0,0,1,.73.21,1.08,1.08,0,0,1,.43.34.86.86,0,0,1,.14.47.83.83,0,0,1-.16.5,1,1,0,0,1-.43.37,1.47,1.47,0,0,1-.64.13,1.92,1.92,0,0,1-.76-.13,1,1,0,0,1-.47-.4A1.09,1.09,0,0,1,479.34,52.76Z"/><path class="cls-4" d="M482.45,52.21a1.79,1.79,0,0,1,.45-1.3,1.49,1.49,0,0,1,1.14-.47,1.66,1.66,0,0,1,.83.22,1.4,1.4,0,0,1,.56.62,2,2,0,0,1,.2.89,1.93,1.93,0,0,1-.21.9,1.33,1.33,0,0,1-.57.6,1.63,1.63,0,0,1-.81.21,1.6,1.6,0,0,1-.84-.23,1.47,1.47,0,0,1-.56-.62A1.93,1.93,0,0,1,482.45,52.21Zm.45,0a1.32,1.32,0,0,0,.33.95,1,1,0,0,0,.81.34,1,1,0,0,0,.81-.35,1.36,1.36,0,0,0,.32-1,1.7,1.7,0,0,0-.13-.71,1.09,1.09,0,0,0-.4-.47,1.15,1.15,0,0,0-1.4.15A1.46,1.46,0,0,0,482.9,52.21Z"/><path class="cls-4" d="M485.83,53.88l1-3.43h.32l-1,3.43Z"/><path class="cls-4" d="M487.55,53.82V50.5H488v3.32Z"/><path class="cls-4" d="M488.78,53.82V50.5h2.4v.39h-2v1h1.83v.39h-1.83v1.13h2v.39Z"/><path class="cls-4" d="M494.23,52.66l.44.11a1.42,1.42,0,0,1-.5.82,1.37,1.37,0,0,1-.88.29,1.56,1.56,0,0,1-.87-.22,1.46,1.46,0,0,1-.51-.63,2.21,2.21,0,0,1-.18-.89,2,2,0,0,1,.2-.91,1.33,1.33,0,0,1,.57-.58,1.56,1.56,0,0,1,.8-.2,1.37,1.37,0,0,1,.84.25,1.32,1.32,0,0,1,.47.71l-.43.1a1,1,0,0,0-.34-.52.88.88,0,0,0-.55-.17,1,1,0,0,0-.64.19,1,1,0,0,0-.36.49,2,2,0,0,0-.1.64,2.13,2.13,0,0,0,.12.74.91.91,0,0,0,.39.47,1.09,1.09,0,0,0,.56.15,1,1,0,0,0,.62-.21A1.08,1.08,0,0,0,494.23,52.66Z"/><path class="cls-4" d="M496.58,53.82h-.41V51.23a2.68,2.68,0,0,1-.38.28,4.13,4.13,0,0,1-.43.21v-.4a2.38,2.38,0,0,0,.6-.39,1.7,1.7,0,0,0,.36-.44h.26Z"/><path class="cls-4" d="M497.65,50.94v-.39h2.15v.31a5,5,0,0,0-.63.9,5.19,5.19,0,0,0-.48,1.15,4.92,4.92,0,0,0-.16.91h-.41a3.69,3.69,0,0,1,.15-.94,5.17,5.17,0,0,1,.42-1.07,4,4,0,0,1,.59-.87Z"/><path class="cls-4" d="M500.2,52.19a3.05,3.05,0,0,1,.12-.95,1.27,1.27,0,0,1,.36-.56.93.93,0,0,1,.61-.19,1,1,0,0,1,.46.11.84.84,0,0,1,.34.31,1.85,1.85,0,0,1,.2.49,3.25,3.25,0,0,1,.08.79,3.07,3.07,0,0,1-.12.94,1.15,1.15,0,0,1-.36.55,1,1,0,0,1-1.36-.14A2.19,2.19,0,0,1,500.2,52.19Zm.42,0a2.14,2.14,0,0,0,.19,1.08.55.55,0,0,0,.95,0,3.19,3.19,0,0,0,0-2.17.58.58,0,0,0-.48-.27.53.53,0,0,0-.45.23A2.16,2.16,0,0,0,500.62,52.19Z"/><path class="cls-4" d="M504.92,53.43v.39h-2.19a.66.66,0,0,1,0-.28,1.34,1.34,0,0,1,.26-.44,5.63,5.63,0,0,1,.54-.51,4.55,4.55,0,0,0,.73-.7.8.8,0,0,0,.19-.49.57.57,0,0,0-.17-.41.65.65,0,0,0-.46-.16.68.68,0,0,0-.47.17.69.69,0,0,0-.17.49l-.42,0a1,1,0,0,1,.32-.71,1.25,1.25,0,0,1,1.51,0,.87.87,0,0,1,.28.66,1.09,1.09,0,0,1-.08.39,1.8,1.8,0,0,1-.27.41,6.85,6.85,0,0,1-.63.58c-.25.21-.4.35-.47.42a1.74,1.74,0,0,0-.18.22Z"/><path class="cls-4" d="M505.36,52.19a3.05,3.05,0,0,1,.12-.95,1.19,1.19,0,0,1,.36-.56.92.92,0,0,1,.6-.19,1,1,0,0,1,.47.11.76.76,0,0,1,.33.31,1.57,1.57,0,0,1,.21.49,3.25,3.25,0,0,1,.08.79,3.07,3.07,0,0,1-.12.94,1.15,1.15,0,0,1-.36.55.93.93,0,0,1-.61.2.92.92,0,0,1-.75-.34A2.19,2.19,0,0,1,505.36,52.19Zm.42,0a2,2,0,0,0,.19,1.08.55.55,0,0,0,.95,0,3.19,3.19,0,0,0,0-2.17.58.58,0,0,0-.48-.27.53.53,0,0,0-.45.23A2.16,2.16,0,0,0,505.78,52.19Z"/><path class="cls-4" d="M508.17,51.88v-.46h.46v.46Zm0,1.94v-.46h.46v.46Z"/><path class="cls-4" d="M511.37,53.43v.39h-2.19a.66.66,0,0,1,0-.28,1.58,1.58,0,0,1,.27-.44,4.64,4.64,0,0,1,.54-.51,4.55,4.55,0,0,0,.73-.7.87.87,0,0,0,.19-.49.54.54,0,0,0-.18-.41.61.61,0,0,0-.45-.16.61.61,0,0,0-.65.66l-.42,0a1,1,0,0,1,.33-.71,1.06,1.06,0,0,1,.75-.25,1.09,1.09,0,0,1,.76.26.91.91,0,0,1,.28.66.92.92,0,0,1-.09.39,1.31,1.31,0,0,1-.27.41,4.91,4.91,0,0,1-.63.58l-.47.42a1.63,1.63,0,0,0-.17.22Z"/><path class="cls-4" d="M511.81,52.19a3.05,3.05,0,0,1,.12-.95,1.19,1.19,0,0,1,.36-.56.92.92,0,0,1,.6-.19,1,1,0,0,1,.47.11.89.89,0,0,1,.33.31,1.57,1.57,0,0,1,.21.49,3.33,3.33,0,0,1,.07.79,3.07,3.07,0,0,1-.12.94,1.15,1.15,0,0,1-.36.55.92.92,0,0,1-.6.2,1,1,0,0,1-.76-.34A2.27,2.27,0,0,1,511.81,52.19Zm.42,0a2,2,0,0,0,.19,1.08.55.55,0,0,0,.47.27.56.56,0,0,0,.47-.27,3.19,3.19,0,0,0,0-2.17.58.58,0,0,0-.48-.27.53.53,0,0,0-.44.23A2.16,2.16,0,0,0,512.23,52.19Z"/><path class="cls-4" d="M515.92,53.82h-.41V51.23a2.2,2.2,0,0,1-.38.28,3.34,3.34,0,0,1-.43.21v-.4a2.22,2.22,0,0,0,.6-.39,1.52,1.52,0,0,0,.36-.44h.26Z"/><path class="cls-4" d="M519.11,53.43v.39h-2.2a.87.87,0,0,1,.05-.28,1.58,1.58,0,0,1,.27-.44,4.43,4.43,0,0,1,.53-.51,4.15,4.15,0,0,0,.73-.7.8.8,0,0,0,.19-.49.53.53,0,0,0-.17-.41.64.64,0,0,0-.45-.16.61.61,0,0,0-.65.66l-.42,0a1.05,1.05,0,0,1,.32-.71,1.09,1.09,0,0,1,.76-.25,1.05,1.05,0,0,1,.75.26.87.87,0,0,1,.28.66.91.91,0,0,1-.08.39,1.31,1.31,0,0,1-.27.41,5.72,5.72,0,0,1-.63.58l-.47.42a1.63,1.63,0,0,0-.17.22Z"/><rect class="cls-5" x="27.08" y="6.39" width="542.31" height="1.46"/><path class="cls-6" d="M284.57,22.66c-.5.08-.59.19-.8.72-.3.76-.74,2.07-1.21,3.39h-.3c-.41-1.05-.83-2-1.22-3-.38,1-.78,1.94-1.17,3h-.31c-.36-1.16-.75-2.31-1.16-3.47-.17-.5-.26-.58-.73-.64V22.4h2.12v.26c-.59.1-.64.16-.49.6.22.72.46,1.46.7,2.17h0c.38-.91.75-1.89,1.15-3h.28c.38,1,.79,2,1.2,3h0c.19-.6.49-1.49.66-2.17.13-.48.06-.55-.57-.64V22.4h1.81Z"/><path class="cls-6" d="M291.54,22.66c-.5.08-.58.19-.79.72-.3.76-.75,2.07-1.22,3.39h-.29c-.42-1.05-.83-2-1.22-3-.39,1-.79,1.94-1.17,3h-.32c-.36-1.16-.75-2.31-1.15-3.47-.18-.5-.27-.58-.73-.64V22.4h2.12v.26c-.6.1-.65.16-.5.6.22.72.47,1.46.71,2.17h0c.37-.91.74-1.89,1.15-3h.28c.37,1,.78,2,1.2,3h0c.19-.6.48-1.49.66-2.17.12-.48.06-.55-.58-.64V22.4h1.81Z"/><path class="cls-6" d="M298.52,22.66c-.5.08-.59.19-.8.72-.3.76-.74,2.07-1.21,3.39h-.3c-.41-1.05-.83-2-1.22-3-.38,1-.78,1.94-1.17,3h-.31c-.37-1.16-.75-2.31-1.16-3.47-.17-.5-.26-.58-.73-.64V22.4h2.12v.26c-.6.1-.64.16-.49.6.22.72.46,1.46.7,2.17h0c.38-.91.75-1.89,1.15-3h.28c.38,1,.79,2,1.2,3h0c.19-.6.49-1.49.66-2.17.13-.48.06-.55-.57-.64V22.4h1.81Z"/><path class="cls-6" d="M298.78,26.78a.56.56,0,0,1-.57-.61.58.58,0,0,1,.59-.58.57.57,0,0,1,.58.58.56.56,0,0,1-.58.61Z"/><path class="cls-6" d="M300.09,26.66V26.4c.62-.07.71-.12.71-.78V21c0-.67-.07-.69-.68-.75v-.24a8.68,8.68,0,0,0,1.54-.34v5.91c0,.66.08.72.73.78v.26Z"/><path class="cls-6" d="M305.12,22.29a2.16,2.16,0,0,1,2.21,2.16,2.22,2.22,0,0,1-2.21,2.33,2.15,2.15,0,0,1-2.25-2.15,2.28,2.28,0,0,1,2.25-2.34Zm-.12.32c-.58,0-1.11.58-1.11,1.69s.53,2.14,1.34,2.14c.57,0,1.08-.39,1.08-1.76,0-1.17-.46-2.07-1.3-2.07Z"/><path class="cls-6" d="M310.11,26.66V26.4c.41-.06.5-.14.33-.4l-.72-1.1c-.22.33-.45.69-.62,1s-.17.43.33.51v.26h-1.87V26.4a1.3,1.3,0,0,0,1.12-.63c.29-.34.55-.72.85-1.15l-.88-1.33a1,1,0,0,0-1-.63V22.4h2.06v.26c-.42.06-.45.15-.27.42L310,24c.21-.31.41-.6.57-.89s.1-.34-.32-.4V22.4h1.84v.26a1.3,1.3,0,0,0-1.1.52c-.21.23-.44.57-.78,1l1,1.46a1.21,1.21,0,0,0,1.08.72v.26Z"/><path class="cls-6" d="M315.75,26.78a.78.78,0,0,1-.51-.2.83.83,0,0,1-.24-.41,3.41,3.41,0,0,1-1.15.61,1.21,1.21,0,0,1-1.23-1.21c0-.48.27-.78.81-.95A6.5,6.5,0,0,0,315,24v-.17c0-.7-.33-1.08-.8-1.08a.56.56,0,0,0-.42.18,1.4,1.4,0,0,0-.3.66.32.32,0,0,1-.32.24.49.49,0,0,1-.46-.43c0-.15.13-.27.32-.41a4.68,4.68,0,0,1,1.52-.68,1.38,1.38,0,0,1,.83.24,1.47,1.47,0,0,1,.47,1.24v1.76c0,.43.18.58.36.58a.76.76,0,0,0,.35-.11l.1.26ZM315,24.32l-.81.39c-.39.16-.6.36-.6.72a.69.69,0,0,0,.68.74,1.24,1.24,0,0,0,.73-.32Z"/><path class="cls-6" d="M321.37,22.48a1.43,1.43,0,0,1-.45.5l-.56,0a1.43,1.43,0,0,1,.28.86,1.63,1.63,0,0,1-1.78,1.56,4,4,0,0,1-.52-.05.55.55,0,0,0-.26.37c0,.18.19.38.63.38l1,0c.6,0,1.45.19,1.45,1.17a2.39,2.39,0,0,1-2.52,2c-1.13,0-1.73-.64-1.74-1.19a.75.75,0,0,1,.26-.57c.22-.2.57-.46.8-.64a1.25,1.25,0,0,1-.74-.54.69.69,0,0,1-.11-.43,2.24,2.24,0,0,0,.88-.59,1.4,1.4,0,0,1-.88-1.31A1.7,1.7,0,0,1,319,22.29h0a2.13,2.13,0,0,1,1,.24c.51,0,1-.08,1.39-.13ZM319,26.81a1.3,1.3,0,0,0-.86.2,1,1,0,0,0-.42.72c0,.52.55.95,1.32.95s1.38-.47,1.38-1.06a.7.7,0,0,0-.46-.7,2.85,2.85,0,0,0-.95-.11Zm-.18-4.22c-.4,0-.79.39-.79,1.16s.36,1.3.9,1.3.79-.39.79-1.16-.34-1.3-.89-1.3Z"/><path class="cls-6" d="M325.27,25.79a2.3,2.3,0,0,1-1.67,1,2,2,0,0,1-2-2.07,2.48,2.48,0,0,1,.64-1.68,2.1,2.1,0,0,1,1.49-.74h0a1.53,1.53,0,0,1,1.52,1.5c0,.19-.05.27-.23.31s-1.42.13-2.57.17c0,1.26.76,1.8,1.45,1.8a1.69,1.69,0,0,0,1.15-.49Zm-1.72-3.14c-.43,0-.86.38-1,1.2.53,0,1.06,0,1.61,0,.18,0,.24-.06.24-.19a.91.91,0,0,0-.84-1Z"/><path class="cls-6" d="M328.71,26.66V26.4c.57-.06.64-.14.64-.83V24c0-.68-.27-1.09-.88-1.09a1.79,1.79,0,0,0-1.05.49v2.25c0,.67.06.71.63.77v.26h-2.2V26.4c.66-.08.71-.12.71-.78v-2c0-.64-.06-.68-.59-.77v-.25a6.23,6.23,0,0,0,1.45-.39V23l.67-.47a1.47,1.47,0,0,1,.82-.28c.79,0,1.29.55,1.29,1.52v1.82c0,.67.07.7.64.77v.26Z"/><path class="cls-6" d="M335.14,25.76a2.42,2.42,0,0,1-1.7,1,2,2,0,0,1-2.05-2,2.32,2.32,0,0,1,1-1.9,2.77,2.77,0,0,1,1.53-.55h0a1.43,1.43,0,0,1,.89.26.32.32,0,0,1,.16.3.49.49,0,0,1-.35.45c-.06,0-.1,0-.19-.12a1.48,1.48,0,0,0-1-.42c-.61,0-1.17.5-1.17,1.53A1.56,1.56,0,0,0,335,25.54Z"/><path class="cls-6" d="M340.24,22.66c-.53.08-.62.16-.88.72s-.57,1.32-1.26,2.9A23.13,23.13,0,0,0,337.05,29a.28.28,0,0,1-.31.23.6.6,0,0,1-.6-.5c0-.16.09-.25.26-.36a1.93,1.93,0,0,0,.77-.86,4.18,4.18,0,0,0,.3-.63.56.56,0,0,0,0-.44c-.43-1.16-.89-2.37-1.16-3s-.32-.64-.86-.72V22.4h2.1l0,.26c-.46.08-.53.17-.4.52l.9,2.39c.26-.61.69-1.77.89-2.35.12-.37,0-.48-.51-.56V22.4h1.81Z"/><path class="cls-6" d="M340.44,26.78a.56.56,0,0,1-.58-.61.58.58,0,0,1,.59-.58.57.57,0,0,1,.58.58.56.56,0,0,1-.58.61Z"/><path class="cls-6" d="M345.71,25.76a2.42,2.42,0,0,1-1.7,1,2,2,0,0,1-2.05-2,2.32,2.32,0,0,1,1-1.9,2.77,2.77,0,0,1,1.53-.55h0a1.44,1.44,0,0,1,.9.26.34.34,0,0,1,.16.3.49.49,0,0,1-.35.45c-.06,0-.1,0-.19-.12a1.48,1.48,0,0,0-1-.42c-.61,0-1.17.5-1.17,1.53a1.61,1.61,0,0,0,1.51,1.78,1.57,1.57,0,0,0,1.19-.53Z"/><path class="cls-6" d="M348.47,22.29a2.15,2.15,0,0,1,2.2,2.16,2.22,2.22,0,0,1-2.21,2.33,2.16,2.16,0,0,1-2.25-2.15,2.28,2.28,0,0,1,2.25-2.34Zm-.13.32c-.57,0-1.11.58-1.11,1.69s.54,2.14,1.34,2.14c.57,0,1.09-.39,1.09-1.76,0-1.17-.47-2.07-1.3-2.07Z"/><path class="cls-6" d="M356.75,26.66V26.4c.55-.06.67-.1.67-.8V24c0-.73-.28-1.13-.86-1.13a1.86,1.86,0,0,0-1.06.49,2.37,2.37,0,0,1,0,.41v1.88c0,.61.1.67.64.73v.26H354V26.4c.6-.06.68-.1.68-.75V24c0-.73-.27-1.11-.84-1.11a1.83,1.83,0,0,0-1,.49v2.27c0,.63.08.69.54.75v.26h-2.14V26.4c.64-.06.74-.12.74-.76v-2c0-.63,0-.69-.61-.77v-.25a6.62,6.62,0,0,0,1.46-.39v.8c.21-.14.42-.32.72-.5a1.53,1.53,0,0,1,.82-.26,1.2,1.2,0,0,1,1.11.8c.3-.22.58-.4.82-.56a1.45,1.45,0,0,1,.75-.24c.79,0,1.3.54,1.3,1.52v1.84c0,.65.06.68.64.75v.26Z"/><g class="cls-7"><path class="cls-8" d="M267.58,23.66c.05.1-.08,0-.08.08l0,0s.26,0,.25-.06S267.6,23.67,267.58,23.66Z"/><path class="cls-9" d="M270.32,21.46c.07,0,.19-.12.07-.11s-.25,0-.31,0h.08C270.17,21.47,270.24,21.49,270.32,21.46Z"/><path class="cls-10" d="M270.6,22s.13-.14.06-.16-.15.08-.15.13S270.55,22,270.6,22Z"/><path class="cls-11" d="M267.54,23.63c0-.11-.51-.21-.44-.05,0-.09.19,0,.21,0s0,.1.07.1S267.55,23.66,267.54,23.63Z"/><path class="cls-12" d="M270.71,21.85s.12.14,0,.13v0s0,0,0,0l.06,0s-.05,0-.08.05.29,0,.25-.07.08-.05,0-.07,0,0-.07-.08a.93.93,0,0,1-.05-.1s0-.07,0-.07a.29.29,0,0,0,0-.06c-.05,0-.19.08-.13.15s0,0,0,0S270.68,21.86,270.71,21.85Z"/><path class="cls-13" d="M269.55,20.54a3.86,3.86,0,1,0,3.86,3.86A3.86,3.86,0,0,0,269.55,20.54Zm1.86,2.23a.89.89,0,0,0-.53.11s-.21,0-.12-.08.23-.06.21-.11.15-.11.13-.21.22-.08.25-.08.16.18.23.2,0,.13-.1.12.12.06.12.08,0-.09.08-.13,0-.05,0-.07.06,0,.05,0-.27-.16-.22-.32c0,.05.14.15.17.17s.06.06.1.12a.48.48,0,0,0,.13.17c.13,0,0-.13,0-.17s.11-.05.14,0,0,.07,0,.09.09.08.09.06.14,0,.23,0l.06.12c0,.07-.07.18-.11.15s-.18,0-.25,0-.34-.17-.32,0-.2,0-.26-.07-.17,0-.13-.1S271.38,22.77,271.41,22.77Zm.16-.95h0a.27.27,0,0,1,.08.07.83.83,0,0,0-.23,0s.12-.09.14-.06S271.55,21.83,271.57,21.82ZM272.81,24s-.06-.08-.08-.09a.2.2,0,0,1-.08-.15s-.06-.14-.07-.15a1.79,1.79,0,0,0-.17-.34.39.39,0,0,1,.24.27.48.48,0,0,0,.12.21C272.79,23.8,272.79,23.88,272.81,24Zm-.65-1.57a1.71,1.71,0,0,1,.11.14.14.14,0,0,1-.17,0Zm.28,3.55a.24.24,0,0,1-.06.11C272.4,26,272.39,26,272.44,26Zm.06-.2c0-.08,0-.08.08-.14l0,0a2,2,0,0,1-.11.26A.11.11,0,0,1,272.5,25.75Zm.25-.92s0-.06.06-.09a3,3,0,0,1-.07.45A.45.45,0,0,1,272.75,24.83Zm-6.5-.43a3,3,0,0,1,.07-.68c.08.06.23.17.32.14s.11,0,.17.08.12,0,.16,0,.09.17.19.24.06,0,.1.05,0-.08.08-.06c.31.07-.17.49,0,.6-.13.09.05.3.11.39s.08.2.15.25.21.12.24.26a2.53,2.53,0,0,1,.06.61c0,.1,0,.54.09.54a.08.08,0,0,1,0-.05h0a.57.57,0,0,1,0,.13c-.11,0,0,.15,0,.17s.05.17.16.26A3.3,3.3,0,0,1,266.25,24.4Zm3.3,3.3a3.53,3.53,0,0,1-1.13-.2s.08,0,.09-.06c-.16,0-.29-.19-.16-.33-.11,0-.08-.2,0-.27s-.08,0-.08-.08.06,0,.11,0,0-.05.08-.07.08-.19,0-.23.12.05.17,0,.06-.14.09-.21.11-.07.1-.17.05-.13.14-.18.22-.23.23-.46.24-.29.14-.47c-.08,0-.34-.26-.42-.14.06-.07-.12-.12-.18-.08s-.08-.11-.09-.16-.06-.19-.22-.2-.21-.18-.32-.24l0,0c-.1,0-.32.07-.38-.06,0,0-.08.08-.06.14s0-.09,0-.13v0c-.06,0-.2.05-.2.13s-.16,0-.23,0-.12-.17-.1-.23-.22-.14-.22-.11a1.82,1.82,0,0,1,.11-.28c-.16,0-.11.05-.19.11s-.21,0-.21,0-.07-.12-.07-.17.06-.14.07-.21.21-.25.29-.17.09-.05.14,0h.18c.09.08,0,.19.11.25.08-.14,0-.25.09-.38s.14-.06.18-.11a.68.68,0,0,0,.09-.16s.1-.09.12-.12.14,0,.19-.08,0-.08.05-.1l.23-.08c-.1,0-.08.11,0,.06l.21-.09s0,0,0-.05-.11.09-.16.06,0-.11,0-.16-.22,0-.25.06a.43.43,0,0,1,.27-.13,1.63,1.63,0,0,0,.33-.05.77.77,0,0,0-.18.18c.07,0,.13,0,.16,0l0,0a.08.08,0,0,1,0,.05c.06,0,.06-.09.06-.15s-.11,0-.09-.05.11-.16,0-.22-.13-.2-.09-.26c-.06.13-.3.09-.16,0-.1,0-.1-.06-.21-.07s-.1.13-.19.18c.12,0-.12.18-.11.17s0,0-.07.11a.12.12,0,0,1-.09.08l0-.09h0s0,0,0,0h0s0-.07,0-.1c-.13,0-.18-.12-.3-.09h0a2.44,2.44,0,0,1,.43-.28h0a.25.25,0,0,1,.19,0,.09.09,0,0,0,0-.06,1.26,1.26,0,0,1,.29-.12l.08,0h0c.06,0,0,.07-.06.09l-.07,0c-.06,0-.07,0-.12,0s.1,0,.16,0,.19.14.19.1-.05-.07-.05-.08.1,0,.11.05,0-.15,0-.17.07.1.11,0,.08,0,.11-.05-.12-.06-.16-.1,0,0,0-.06a2.73,2.73,0,0,1,.5-.06l0,0c-.05,0-.1,0-.1.05h.09a.26.26,0,0,0-.12.33.2.2,0,0,0,.14.13c.1,0,.1-.06.17-.13a.81.81,0,0,1,.32-.16,1.13,1.13,0,0,1,.39-.17,3.28,3.28,0,0,1,1,.39.13.13,0,0,0,0,.14s.16,0,.17,0h0s.08.21,0,.14,0-.08,0-.09c-.18,0,0,.18-.14.2s-.08.11-.19.14-.13.08-.16.07v0c0-.05-.2,0,0,.06s0,.23-.1.19-.15,0-.19,0,0,.28,0,.29a.08.08,0,0,1,.12.09c0,.08-.13.14-.17.22s0,.09-.1.14-.1.05-.12.11-.13.17-.13.26,0,.1,0,.17a.22.22,0,0,1,0,.14s0,0,0,.08.13.11.13.2.18.19.26.26a2.48,2.48,0,0,1,.29,0c.14-.07.24-.13.33,0s.12,0,.16,0,0,.09,0,.15-.05.07,0,.1.1.12.12.2a.84.84,0,0,1,.1.29c0,.14-.11.25-.08.39s.12.22.13.37.1.22.13.33a.51.51,0,0,1,0,.13c0,.06.09,0,.12,0a.37.37,0,0,0,.38-.17l.07-.08A3.3,3.3,0,0,1,269.55,27.7Z"/></g><path class="cls-6" d="M39.88,24.77v1.95h-.52V24.77H37.57v-.45h1.79V22.55h.52v1.77h1.78v.45Z"/><path class="cls-6" d="M44.25,21.28c1.12,0,1.76,1,1.76,2.15a3.28,3.28,0,0,1-2.09,3.15,4.51,4.51,0,0,1-1.28.27l0-.26a3,3,0,0,0,2.5-2.34l-.56.3a1,1,0,0,1-.52.14,1.52,1.52,0,0,1-1.59-1.57,1.85,1.85,0,0,1,1.82-1.84Zm-.14.3c-.63,0-.88.71-.88,1.23a1.25,1.25,0,0,0,1.16,1.38,1.35,1.35,0,0,0,.74-.23c0-.2,0-.4,0-.57,0-.78-.22-1.81-1-1.81Z"/><path class="cls-6" d="M48.18,23.49a1.31,1.31,0,0,1,.54-.14,1.53,1.53,0,0,1,1.6,1.58,1.84,1.84,0,0,1-1.83,1.89,1.92,1.92,0,0,1-1.84-2.15,3.3,3.3,0,0,1,2.28-3.16,7.5,7.5,0,0,1,1.16-.28l.06.28a4.92,4.92,0,0,0-.95.3,2.76,2.76,0,0,0-1.6,2Zm.17.36a1.76,1.76,0,0,0-.79.21,2.8,2.8,0,0,0-.05.6c0,1,.44,1.85,1.12,1.85s.88-.71.88-1.27a1.24,1.24,0,0,0-1.15-1.39Z"/><path class="cls-6" d="M53.8,25.2v.58c0,.58,0,.63.74.7v.24H52.22v-.24c.78-.07.82-.14.82-.7V25.2H50.76v-.27c.87-1.25,1.75-2.47,2.64-3.62h.4v3.46h.84v.43ZM53,22.3h0c-.54.71-1.11,1.53-1.7,2.47H53Z"/><path class="cls-6" d="M61.23,21.49l-2.5,5.23-.69.1-.06-.1a46.41,46.41,0,0,0,2.63-4.65H58.7c-.58,0-.64.08-.86.64h-.26c.09-.52.13-1,.18-1.32h3.4Z"/><path class="cls-6" d="M65.48,21.49c-.83,1.74-1.67,3.47-2.5,5.23l-.7.1-.06-.1a42.78,42.78,0,0,0,2.63-4.65H63c-.58,0-.64.08-.87.64h-.25c.08-.52.13-1,.17-1.32h3.4Z"/><path class="cls-6" d="M67.8,21.28c1.33,0,1.8,1.45,1.8,2.77s-.47,2.77-1.81,2.77S66,25.41,66,24.06s.48-2.78,1.81-2.78Zm0,.3c-.77,0-1,1.27-1,2.46s.23,2.48,1,2.48,1-1.28,1-2.48-.21-2.46-1-2.46Z"/><path class="cls-6" d="M75.48,25.2v.58c0,.58,0,.63.74.7v.24H73.9v-.24c.78-.07.82-.14.82-.7V25.2H72.44v-.27c.87-1.25,1.75-2.47,2.64-3.62h.4v3.46h.83v.43Zm-.76-2.9h0c-.54.71-1.11,1.53-1.7,2.47h1.72Z"/><path class="cls-6" d="M77.62,23.61a3.47,3.47,0,0,1,1-.27,1.53,1.53,0,0,1,1.7,1.45,1.81,1.81,0,0,1-.8,1.43,2.7,2.7,0,0,1-1.54.6,1.49,1.49,0,0,1-.9-.3c-.13-.13-.18-.2-.16-.31a.48.48,0,0,1,.2-.31.17.17,0,0,1,.24,0,1.65,1.65,0,0,0,1.11.47,1.11,1.11,0,0,0,1-1.24,1.24,1.24,0,0,0-1.41-1.29,3.21,3.21,0,0,0-.92.17l.36-2.63h2.55l0,.06-.24.62H77.84Z"/><path class="cls-6" d="M82.89,21.28c1.32,0,1.8,1.45,1.8,2.77s-.48,2.77-1.81,2.77-1.82-1.41-1.82-2.76.48-2.78,1.82-2.78Zm0,.3c-.76,0-1,1.27-1,2.46s.23,2.48,1,2.48.94-1.28.94-2.48-.2-2.46-1-2.46Z"/><path class="cls-6" d="M90.56,25.2v.58c0,.58,0,.63.75.7v.24H89v-.24c.79-.07.82-.14.82-.7V25.2H87.52v-.27c.88-1.25,1.76-2.47,2.64-3.62h.4v3.46h.84v.43Zm-.76-2.9h0c-.54.71-1.1,1.53-1.69,2.47H89.8Z"/><path class="cls-6" d="M93.81,21.28a1.35,1.35,0,0,1,1.44,1.28,1,1,0,0,1-.26.69,4.24,4.24,0,0,1-.68.51c.62.35,1.16.75,1.16,1.5a1.71,1.71,0,0,1-1.78,1.56A1.51,1.51,0,0,1,92,25.37a1,1,0,0,1,.4-.8,4.36,4.36,0,0,1,.77-.53,1.54,1.54,0,0,1-1-1.33,1.5,1.5,0,0,1,1.59-1.43Zm0,5.25a.94.94,0,0,0,.92-1c0-.63-.59-1-1.3-1.33a1.41,1.41,0,0,0-.68,1.14,1.11,1.11,0,0,0,1.06,1.22Zm-.1-5a.81.81,0,0,0-.78.85c0,.63.51.9,1.14,1.21a1.22,1.22,0,0,0,.51-1,.91.91,0,0,0-.86-1Z"/><path class="cls-6" d="M97.68,23.49a1.31,1.31,0,0,1,.54-.14,1.53,1.53,0,0,1,1.6,1.58A1.84,1.84,0,0,1,98,26.82a1.92,1.92,0,0,1-1.85-2.15,3.31,3.31,0,0,1,2.29-3.16,7.24,7.24,0,0,1,1.16-.28l.06.28a4.72,4.72,0,0,0-1,.3,2.76,2.76,0,0,0-1.6,2Zm.17.36a1.76,1.76,0,0,0-.79.21,2.26,2.26,0,0,0-.06.6c0,1,.45,1.85,1.13,1.85s.88-.71.88-1.27a1.24,1.24,0,0,0-1.15-1.39Z"/><path class="cls-6" d="M102.29,21.28a1.35,1.35,0,0,1,1.45,1.28,1,1,0,0,1-.26.69,4.24,4.24,0,0,1-.68.51c.62.35,1.16.75,1.16,1.5a1.71,1.71,0,0,1-1.78,1.56,1.51,1.51,0,0,1-1.71-1.45,1,1,0,0,1,.4-.8,4.36,4.36,0,0,1,.77-.53,1.55,1.55,0,0,1-1-1.33,1.51,1.51,0,0,1,1.6-1.43Zm0,5.25a.94.94,0,0,0,.92-1c0-.63-.59-1-1.3-1.33a1.41,1.41,0,0,0-.68,1.14,1.11,1.11,0,0,0,1.06,1.22Zm-.1-5a.8.8,0,0,0-.78.85c0,.63.5.9,1.14,1.21a1.25,1.25,0,0,0,.51-1,.91.91,0,0,0-.86-1Z"/><g class="cls-7"><path class="cls-14" d="M27.1,22.22a2.19,2.19,0,0,1,.76-1.67c.19-.19.46-.51.75-.47s.52.37.68.6c.26.41.68,1,.29,1.47-.19.22-.48.34-.65.57a.82.82,0,0,0,0,.8A5,5,0,0,0,30.18,25a1.12,1.12,0,0,0,.78.33c.3-.05.53-.38.75-.56.55-.45,1.17.16,1.58.53a1,1,0,0,1,.41.68c0,.29-.39.52-.58.68a2.27,2.27,0,0,1-1.93.46A4.37,4.37,0,0,1,29.27,26a9.1,9.1,0,0,1-1.47-1.74,4.89,4.89,0,0,1-.48-.94,5,5,0,0,1-.22-1.09C27.11,21.85,27.12,22.42,27.1,22.22Z"/></g><polygon class="cls-15" points="143.34 25.05 139.82 22.34 146.87 22.34 143.34 25.05"/><polygon class="cls-16" points="142.12 24.83 139.27 27.15 139.27 22.64 142.12 24.83"/><polygon class="cls-17" points="142.58 25.18 143.34 25.77 144.14 25.16 146.93 27.47 139.78 27.47 142.58 25.18"/><polygon class="cls-18" points="144.6 24.8 147.43 22.63 147.43 27.14 144.6 24.8"/><path class="cls-6" d="M152.23,27.17v-.26c.62-.06.69-.12.69-.8v-2c0-.61,0-.66-.62-.76v-.24a7.12,7.12,0,0,0,1.48-.37v3.34c0,.67.07.72.71.8v.26Zm.52-5.74a.54.54,0,0,1,.55-.54.52.52,0,0,1,.52.54.53.53,0,0,1-.54.53A.54.54,0,0,1,152.75,21.43Z"/><path class="cls-6" d="M157.8,27.17v-.26c.57-.06.63-.14.63-.83V24.49c0-.68-.27-1.09-.88-1.09a1.75,1.75,0,0,0-1,.48v2.26c0,.67.05.71.63.77v.26h-2.21v-.26c.66-.08.72-.13.72-.78v-2c0-.63-.07-.67-.59-.77v-.25a6.89,6.89,0,0,0,1.45-.38v.79c.2-.15.41-.3.67-.47a1.49,1.49,0,0,1,.82-.29c.79,0,1.29.55,1.29,1.52v1.83c0,.67.06.69.63.77v.26Z"/><path class="cls-6" d="M161.13,22.9v-.22a3,3,0,0,1,.1-.79,2.34,2.34,0,0,1,.79-1.14,1.92,1.92,0,0,1,1.11-.53,1,1,0,0,1,.8.33.32.32,0,0,1,.06.38.64.64,0,0,1-.21.23.18.18,0,0,1-.28,0,1.27,1.27,0,0,0-.82-.39.56.56,0,0,0-.51.3A3,3,0,0,0,162,22.5v.4h1.18a.36.36,0,0,1-.11.41H162v2.77c0,.72.08.75.86.83v.26h-2.42v-.26c.62-.06.71-.12.71-.76V23.31h-.71l0-.11.28-.3Z"/><path class="cls-6" d="M165.66,22.79A2.16,2.16,0,0,1,167.87,25a2.22,2.22,0,0,1-2.22,2.32,2.16,2.16,0,0,1-2.25-2.14,2.29,2.29,0,0,1,2.25-2.35Zm-.13.33c-.57,0-1.1.58-1.1,1.68s.53,2.14,1.33,2.14c.58,0,1.09-.39,1.09-1.76,0-1.17-.47-2.06-1.3-2.06Z"/><path class="cls-6" d="M173.75,27.61a3.73,3.73,0,0,1-2,.52,2.86,2.86,0,0,1-3-3,3.66,3.66,0,0,1,3.83-3.63A2.57,2.57,0,0,1,175.38,24,2.39,2.39,0,0,1,173,26.46c-.54,0-.56-.27-.49-.72l.12-.54h0c-.33.49-1.23,1.27-1.7,1.27-.24,0-.49-.27-.47-.84a2.57,2.57,0,0,1,.79-1.83,2.48,2.48,0,0,1,1.62-.73,2.59,2.59,0,0,1,.51.08,1.55,1.55,0,0,0,.34,0c-.14.6-.32,1.39-.47,2.2-.1.51-.06.66.18.65.67,0,1.46-.68,1.46-2a2.13,2.13,0,0,0-2.38-2.14,3,3,0,0,0-3.11,3.17,2.47,2.47,0,0,0,2.69,2.62,4,4,0,0,0,1.57-.36Zm-1.31-4.14a.83.83,0,0,0-.64.29,2.78,2.78,0,0,0-.57,1.6c0,.36.09.46.2.46s.71-.34,1.29-1.16a11,11,0,0,0,.26-1.07,1.29,1.29,0,0,0-.53-.12Z"/><path class="cls-6" d="M175.92,27.17v-.26c.62-.08.71-.13.71-.78V21.54c0-.66-.07-.68-.68-.74v-.24a9.66,9.66,0,0,0,1.54-.34v5.91c0,.66.08.72.73.78v.26Z"/><path class="cls-6" d="M181,22.79A2.16,2.16,0,0,1,183.16,25,2.21,2.21,0,0,1,181,27.28a2.15,2.15,0,0,1-2.25-2.14A2.29,2.29,0,0,1,181,22.79Zm-.12.33c-.58,0-1.11.58-1.11,1.68s.53,2.14,1.34,2.14c.57,0,1.08-.39,1.08-1.76,0-1.17-.46-2.06-1.3-2.06Z"/><path class="cls-6" d="M185.94,27.17v-.26c.41-.06.5-.14.33-.4l-.72-1.11c-.22.34-.45.7-.62,1s-.17.43.33.51v.26h-1.87v-.26a1.33,1.33,0,0,0,1.12-.64c.29-.34.55-.72.85-1.15l-.88-1.33a1,1,0,0,0-1-.62V22.9h2.06v.27c-.42,0-.45.14-.27.42l.56.86a10,10,0,0,0,.57-.88c.18-.3.1-.35-.32-.4V22.9H188v.27a1.3,1.3,0,0,0-1.1.52,11.47,11.47,0,0,0-.78,1l1,1.47a1.24,1.24,0,0,0,1.08.72v.26Z"/><path class="cls-6" d="M191.58,27.28a.83.83,0,0,1-.51-.19.86.86,0,0,1-.24-.42,3.23,3.23,0,0,1-1.15.61,1.21,1.21,0,0,1-1.23-1.2c0-.49.27-.78.81-1a6.57,6.57,0,0,0,1.54-.63v-.18c0-.7-.33-1.07-.8-1.07a.56.56,0,0,0-.42.17,1.45,1.45,0,0,0-.3.66.31.31,0,0,1-.32.24.49.49,0,0,1-.46-.43c0-.15.13-.27.32-.4a4.68,4.68,0,0,1,1.52-.69,1.32,1.32,0,0,1,.83.25,1.44,1.44,0,0,1,.47,1.23V26c0,.44.18.58.36.58a.74.74,0,0,0,.35-.1l.1.26Zm-.78-2.45-.81.38c-.39.17-.6.36-.6.72a.69.69,0,0,0,.68.74,1.18,1.18,0,0,0,.73-.32Z"/><path class="cls-6" d="M197.2,23a1.38,1.38,0,0,1-.45.51l-.56,0a1.42,1.42,0,0,1,.28.85,1.63,1.63,0,0,1-1.78,1.56,4,4,0,0,1-.52-.05.57.57,0,0,0-.26.37c0,.19.19.38.63.38l1,0c.6,0,1.45.19,1.45,1.17a2.39,2.39,0,0,1-2.52,2c-1.13,0-1.73-.64-1.74-1.2a.73.73,0,0,1,.26-.56c.22-.21.57-.46.8-.65a1.28,1.28,0,0,1-.74-.53.7.7,0,0,1-.11-.44,2.14,2.14,0,0,0,.88-.59,1.4,1.4,0,0,1-.88-1.31,1.7,1.7,0,0,1,1.81-1.62h0a2.15,2.15,0,0,1,1,.25c.51,0,1-.09,1.39-.14Zm-2.33,4.34a1.25,1.25,0,0,0-.85.2,1,1,0,0,0-.43.72c0,.51.55,1,1.32,1s1.38-.47,1.38-1.07a.69.69,0,0,0-.46-.69,2.85,2.85,0,0,0-1-.11Zm-.18-4.22c-.4,0-.79.39-.79,1.15s.36,1.3.9,1.3.79-.39.79-1.16-.34-1.29-.89-1.29Z"/><path class="cls-6" d="M201.1,26.3a2.28,2.28,0,0,1-1.67,1,2,2,0,0,1-2-2.07,2.44,2.44,0,0,1,.64-1.67,2.08,2.08,0,0,1,1.49-.75h0a1.54,1.54,0,0,1,1.52,1.5c0,.19,0,.28-.23.32s-1.42.13-2.57.17c0,1.26.76,1.79,1.45,1.79a1.67,1.67,0,0,0,1.15-.48Zm-1.72-3.14c-.43,0-.86.38-1,1.19.53,0,1.06,0,1.61,0,.18,0,.24-.06.24-.18a.9.9,0,0,0-.84-1Z"/><path class="cls-6" d="M204.54,27.17v-.26c.57-.06.64-.14.64-.83V24.49c0-.68-.27-1.09-.88-1.09a1.78,1.78,0,0,0-1.05.48v2.26c0,.67.06.71.63.77v.26h-2.2v-.26c.66-.08.71-.13.71-.78v-2c0-.63-.06-.67-.59-.77v-.25a6.74,6.74,0,0,0,1.45-.38v.79l.67-.47a1.49,1.49,0,0,1,.82-.29c.79,0,1.29.55,1.29,1.52v1.83c0,.67.07.69.64.77v.26Z"/><path class="cls-6" d="M211,26.27a2.4,2.4,0,0,1-1.7,1,2,2,0,0,1-2.05-2,2.32,2.32,0,0,1,1-1.9,2.77,2.77,0,0,1,1.53-.55h0a1.43,1.43,0,0,1,.89.26.34.34,0,0,1,.16.3.48.48,0,0,1-.35.45c-.06,0-.1,0-.19-.11a1.49,1.49,0,0,0-1-.43c-.61,0-1.17.5-1.17,1.54a1.6,1.6,0,0,0,1.51,1.77,1.63,1.63,0,0,0,1.2-.52Z"/><path class="cls-6" d="M216.07,23.17c-.53.08-.62.16-.88.72s-.57,1.31-1.26,2.9a23.27,23.27,0,0,0-1.05,2.66.29.29,0,0,1-.31.24.6.6,0,0,1-.6-.5c0-.16.09-.25.26-.36A2,2,0,0,0,213,28a4.24,4.24,0,0,0,.3-.62.59.59,0,0,0,0-.45c-.43-1.15-.89-2.37-1.16-3s-.32-.63-.86-.71V22.9h2.1l0,.27c-.46.08-.53.16-.4.52l.9,2.39c.26-.62.69-1.77.89-2.36.12-.36,0-.47-.51-.55V22.9h1.81Z"/><path class="cls-6" d="M216.27,27.28a.56.56,0,0,1-.58-.6.57.57,0,0,1,.59-.58.59.59,0,0,1,0,1.18Z"/><path class="cls-6" d="M221.54,26.27a2.4,2.4,0,0,1-1.7,1,2,2,0,0,1-2.05-2,2.32,2.32,0,0,1,1-1.9,2.77,2.77,0,0,1,1.53-.55h0a1.44,1.44,0,0,1,.9.26.36.36,0,0,1,.16.3.48.48,0,0,1-.35.45c-.06,0-.1,0-.19-.11a1.49,1.49,0,0,0-1-.43c-.61,0-1.17.5-1.17,1.54a1.55,1.55,0,0,0,2.7,1.25Z"/><path class="cls-6" d="M224.3,22.79A2.16,2.16,0,0,1,226.5,25a2.21,2.21,0,0,1-2.21,2.32A2.16,2.16,0,0,1,222,25.14a2.29,2.29,0,0,1,2.25-2.35Zm-.13.33c-.57,0-1.11.58-1.11,1.68s.54,2.14,1.34,2.14c.57,0,1.09-.39,1.09-1.76,0-1.17-.47-2.06-1.3-2.06Z"/><path class="cls-6" d="M232.58,27.17v-.26c.55-.06.67-.11.67-.8V24.53c0-.74-.28-1.13-.86-1.13a1.86,1.86,0,0,0-1.06.49,2.25,2.25,0,0,1,0,.4v1.88c0,.62.1.68.64.74v.26h-2.19v-.26c.6-.06.68-.11.68-.75V24.51c0-.74-.27-1.11-.84-1.11a1.88,1.88,0,0,0-1,.48v2.28c0,.63.08.69.54.75v.26H227v-.26c.64-.06.74-.12.74-.76v-2c0-.62,0-.68-.61-.77v-.25a6.57,6.57,0,0,0,1.46-.38v.8c.21-.14.42-.32.72-.5a1.54,1.54,0,0,1,.82-.27,1.2,1.2,0,0,1,1.11.8l.82-.55a1.37,1.37,0,0,1,.75-.25c.79,0,1.3.54,1.3,1.52v1.85c0,.65.06.67.64.75v.26Z"/><path class="cls-6" d="M41,46.14c-.13.4-.22.8-.32,1.19H37.41v-.2c.48-.47,1-1,1.41-1.45a3.48,3.48,0,0,0,1.08-2c0-.71-.38-1.13-1-1.13a1.55,1.55,0,0,0-1.21.81l-.2-.18.52-.73a1.64,1.64,0,0,1,1.19-.51,1.44,1.44,0,0,1,1.5,1.46c0,.73-.32,1.22-1.16,2.07l-1.21,1.21h1.59c.49,0,.59,0,.87-.58Z"/><path class="cls-6" d="M43.45,44.33v-.17c.37,0,.42-.09.42-.55v-1c0-.45-.19-.72-.58-.72a1.19,1.19,0,0,0-.69.32v1.48c0,.44,0,.47.41.51v.17H41.56v-.17c.44,0,.47-.08.47-.51v-1.3c0-.41,0-.44-.39-.5v-.16a4.54,4.54,0,0,0,1-.26V42l.44-.31a1,1,0,0,1,.54-.19c.52,0,.85.37.85,1v1.2c0,.44,0,.46.41.51v.17Z"/><path class="cls-6" d="M48.41,44.16a8.43,8.43,0,0,0-1.06.25V44l-.39.23a1.19,1.19,0,0,1-.5.19A1.31,1.31,0,0,1,45.21,43a1.67,1.67,0,0,1,1.71-1.59,1.58,1.58,0,0,1,.43.07v-.9c0-.42-.05-.44-.51-.47V40a7.59,7.59,0,0,0,1.07-.23v3.81c0,.35.05.38.32.41l.18,0ZM47.35,42a.83.83,0,0,0-.67-.33c-.28,0-.82.23-.82,1.16,0,.77.49,1.12.89,1.12a1.1,1.1,0,0,0,.6-.2Z"/><path class="cls-6" d="M55,43.08a1.73,1.73,0,0,0-.27-.7c-.15-.24-.34-.32-1-.32h-.64c-.27,0-.3,0-.3.28v2h.88c.81,0,.85-.08,1-.64h.26V45.4h-.27c-.11-.6-.15-.69-1-.69h-.88v1.5c0,.76.08.82.88.87v.25H51.18v-.25c.7,0,.78-.11.78-.87V42.85c0-.75-.08-.8-.76-.85v-.26h3.94c0,.32,0,.87.09,1.3Z"/><path class="cls-6" d="M55.68,47.33V47.1c.54-.06.62-.11.62-.68v-4c0-.58-.06-.59-.6-.65v-.21a7.81,7.81,0,0,0,1.35-.3v5.2c0,.58.08.63.65.68v.23Z"/><path class="cls-6" d="M60.1,43.48A1.9,1.9,0,0,1,62,45.39a2,2,0,0,1-1.94,2,1.89,1.89,0,0,1-2-1.88,2,2,0,0,1,2-2.07Zm-.11.29c-.51,0-1,.51-1,1.48s.47,1.88,1.18,1.88c.51,0,1-.34,1-1.54,0-1-.41-1.82-1.15-1.82Z"/><path class="cls-6" d="M64.73,43.48a1.9,1.9,0,0,1,1.94,1.91,2,2,0,0,1-1.94,2,1.89,1.89,0,0,1-2-1.88,2,2,0,0,1,2-2.07Zm-.11.29c-.5,0-1,.51-1,1.48s.47,1.88,1.17,1.88c.51,0,1-.34,1-1.54,0-1-.41-1.82-1.15-1.82Z"/><path class="cls-6" d="M68.54,44.41c.29-.47.65-.93,1-.93a.5.5,0,0,1,.53.44.51.51,0,0,1-.3.47.22.22,0,0,1-.24,0,.51.51,0,0,0-.38-.17c-.22,0-.49.25-.67.71v1.53c0,.57,0,.62.72.67v.23H67.16V47.1c.53-.05.61-.1.61-.67V44.65c0-.54,0-.58-.54-.65v-.19a5.39,5.39,0,0,0,1.3-.36v1Z"/><path class="cls-6" d="M70.48,46.17a1,1,0,0,1,.83,1c0,.69-.64,1.08-1.21,1.24L70,48.1c.44-.18.69-.41.69-.73s-.24-.52-.57-.6c0,0-.1-.07-.1-.23a.41.41,0,0,1,.44-.37Z"/><path class="cls-6" d="M77.35,44.33c.9.12,1.58.49,1.58,1.36A1.45,1.45,0,0,1,78.1,47a3.77,3.77,0,0,1-1.75.34h-2v-.25c.75,0,.81-.11.81-.83V42.84c0-.74,0-.79-.74-.84v-.26h2.33a2.3,2.3,0,0,1,1.35.3,1.22,1.22,0,0,1,.49,1,1.38,1.38,0,0,1-1.22,1.27Zm-1-.11c1,0,1.35-.37,1.35-1.08A1,1,0,0,0,76.54,42a.89.89,0,0,0-.48.11c-.08,0-.1.15-.1.41v1.67Zm-.38,2c0,.64.17.8.72.8A1.2,1.2,0,0,0,78,45.77c0-.86-.6-1.25-1.67-1.25H76Z"/><path class="cls-6" d="M83.81,47.13a5,5,0,0,0-.68.13l-.66.17-.06,0v-.61a5.2,5.2,0,0,1-.62.44,1.36,1.36,0,0,1-.69.22c-.61,0-1.11-.36-1.11-1.29V44.51c0-.47-.07-.52-.29-.57l-.23-.06v-.2l.65-.06.66-.1c0,.27,0,.68,0,1.25v1.16c0,.71.36.94.75.94a1.31,1.31,0,0,0,.9-.38v-2c0-.47-.08-.53-.36-.57l-.31-.06v-.2c.25,0,.56,0,.82-.07a4.54,4.54,0,0,0,.61-.09v2.84c0,.44.07.5.41.52l.23,0Z"/><path class="cls-6" d="M84.21,47.33V47.1c.54-.05.6-.1.6-.7V44.67c0-.54,0-.58-.54-.67v-.2a6.86,6.86,0,0,0,1.3-.33V46.4c0,.59.06.64.62.7v.23Zm.45-5a.48.48,0,0,1,.48-.48.46.46,0,0,1,.46.48.47.47,0,0,1-.47.47A.49.49,0,0,1,84.66,42.29Z"/><path class="cls-6" d="M86.51,47.33V47.1c.55-.06.63-.11.63-.68v-4c0-.58-.06-.59-.6-.65v-.21a7.81,7.81,0,0,0,1.35-.3v5.2c0,.58.08.63.65.68v.23Z"/><path class="cls-6" d="M93.24,47.11a12.28,12.28,0,0,0-1.42.32v-.55l-.51.3a1.6,1.6,0,0,1-.67.25A1.75,1.75,0,0,1,89,45.6a2.23,2.23,0,0,1,2.29-2.12,2,2,0,0,1,.56.1V42.37c0-.56-.06-.58-.67-.63v-.22a9.39,9.39,0,0,0,1.43-.3v5.09c0,.48.06.52.42.55l.24,0Zm-1.42-2.85a1.08,1.08,0,0,0-.89-.45c-.37,0-1.09.31-1.09,1.56,0,1,.65,1.5,1.19,1.5a1.5,1.5,0,0,0,.79-.27Z"/><path class="cls-6" d="M93.61,47.33V47.1c.55-.05.61-.1.61-.7V44.67c0-.54,0-.58-.55-.67v-.2A7.17,7.17,0,0,0,95,43.47V46.4c0,.59.06.64.62.7v.23Zm.46-5a.47.47,0,0,1,.48-.48.46.46,0,0,1,.46.48.47.47,0,0,1-.47.47A.48.48,0,0,1,94.07,42.29Z"/><path class="cls-6" d="M98.51,47.33V47.1c.5-.05.56-.12.56-.73V45c0-.6-.24-1-.78-1a1.53,1.53,0,0,0-.91.42v2c0,.58,0,.62.55.67v.23H96V47.1c.58-.07.63-.11.63-.68V44.69c0-.56-.06-.6-.52-.68V43.8a5.94,5.94,0,0,0,1.28-.35v.7a6.59,6.59,0,0,1,.59-.41,1.27,1.27,0,0,1,.72-.26c.69,0,1.13.49,1.13,1.34v1.61c0,.58.05.61.56.67v.23Z"/><path class="cls-6" d="M104.67,43.65a1.1,1.1,0,0,1-.39.44l-.5,0a1.19,1.19,0,0,1,.25.75,1.42,1.42,0,0,1-1.56,1.37,3.15,3.15,0,0,1-.46,0,.48.48,0,0,0-.22.32c0,.17.16.34.55.34l.9,0c.53,0,1.28.17,1.28,1a2.11,2.11,0,0,1-2.22,1.73c-1,0-1.52-.57-1.53-1.06A.64.64,0,0,1,101,48c.19-.18.5-.4.7-.57a1.08,1.08,0,0,1-.65-.47.59.59,0,0,1-.1-.38,1.88,1.88,0,0,0,.78-.52,1.24,1.24,0,0,1-.77-1.15,1.5,1.5,0,0,1,1.59-1.43h0a1.89,1.89,0,0,1,.85.22c.44,0,.9-.08,1.22-.12Zm-2,3.81a1.07,1.07,0,0,0-.75.18.88.88,0,0,0-.38.63c0,.45.49.84,1.16.84s1.22-.42,1.22-.94a.6.6,0,0,0-.41-.61,2.44,2.44,0,0,0-.83-.1Zm-.16-3.71c-.35,0-.7.34-.7,1s.32,1.14.79,1.14.7-.34.7-1-.3-1.14-.79-1.14Z"/><path class="cls-6" d="M110.36,44.33c.89.12,1.58.49,1.58,1.36a1.45,1.45,0,0,1-.83,1.3,3.77,3.77,0,0,1-1.75.34h-2v-.25c.75,0,.81-.11.81-.83V42.84c0-.74,0-.79-.74-.84v-.26h2.33a2.24,2.24,0,0,1,1.34.3,1.2,1.2,0,0,1,.5,1,1.38,1.38,0,0,1-1.22,1.27Zm-1-.11c1,0,1.35-.37,1.35-1.08A1,1,0,0,0,109.55,42a1,1,0,0,0-.49.11c-.07,0-.1.15-.1.41v1.67Zm-.39,2c0,.64.18.8.73.8A1.21,1.21,0,0,0,111,45.77c0-.86-.6-1.25-1.67-1.25H109Z"/><path class="cls-6" d="M113.24,47.33v-.25c.77,0,.83-.14.83-.76V43.08c0-.45,0-.49-.4-.51l-.46,0v-.21a8.79,8.79,0,0,0,1.64-.44v4.42c0,.62.06.71.84.76v.25Z"/><path class="cls-6" d="M117.37,46.17a1,1,0,0,1,.83,1c0,.69-.64,1.08-1.21,1.24l-.09-.27c.44-.18.69-.41.69-.73s-.24-.52-.57-.6c0,0-.1-.07-.1-.23a.41.41,0,0,1,.44-.37Z"/><path class="cls-6" d="M126.76,45.86a8.42,8.42,0,0,1-.52,1.36,7.92,7.92,0,0,1-1.68.25,3,3,0,0,1-3.28-2.86c0-1.81,1.46-3,3.5-3a7.56,7.56,0,0,1,1.63.24c.07.49.14.86.19,1.35l-.26.06a1.61,1.61,0,0,0-1.79-1.33,2.31,2.31,0,0,0-2.29,2.49,2.43,2.43,0,0,0,2.37,2.7c.91,0,1.41-.49,1.87-1.37Z"/><path class="cls-6" d="M129.67,47.33V47.1c.49-.05.56-.11.56-.67V45c0-.71-.29-1-.83-1a1.23,1.23,0,0,0-.88.42v2c0,.55,0,.62.55.67v.23h-1.91V47.1c.53-.05.6-.1.6-.67V42.35c0-.54,0-.57-.58-.62v-.21a10.53,10.53,0,0,0,1.34-.3v2.89a1.94,1.94,0,0,1,1.25-.63c.71,0,1.22.44,1.22,1.49v1.46c0,.58.07.62.56.67v.23Z"/><path class="cls-6" d="M134.79,47.43a.7.7,0,0,1-.45-.17.74.74,0,0,1-.21-.36,2.91,2.91,0,0,1-1,.53A1.06,1.06,0,0,1,132,46.37c0-.43.23-.68.71-.84A5.68,5.68,0,0,0,134.1,45v-.16c0-.61-.28-.94-.7-.94A.52.52,0,0,0,133,44a1.31,1.31,0,0,0-.26.58.28.28,0,0,1-.29.21.43.43,0,0,1-.4-.38c0-.13.12-.23.29-.35a4.13,4.13,0,0,1,1.33-.61,1.19,1.19,0,0,1,.73.22,1.31,1.31,0,0,1,.42,1.09v1.54c0,.38.15.51.31.51a.69.69,0,0,0,.31-.09l.09.23Zm-.69-2.15-.71.33c-.34.15-.53.32-.53.63a.62.62,0,0,0,.6.66,1,1,0,0,0,.64-.29Z"/><path class="cls-6" d="M141.58,43.81c-.44.07-.52.17-.7.63-.26.68-.65,1.83-1.07,3h-.25c-.37-.92-.73-1.76-1.08-2.62-.34.86-.69,1.71-1,2.62h-.27c-.32-1-.66-2-1-3.05-.15-.43-.23-.5-.64-.56v-.23h1.86v.23c-.52.09-.56.14-.43.53.19.63.41,1.29.62,1.91h0c.33-.8.65-1.67,1-2.63h.24c.33.87.69,1.77,1,2.67h0c.17-.54.43-1.31.58-1.92.12-.42.06-.48-.5-.56v-.23h1.59Z"/><path class="cls-6" d="M141.78,47.33V47.1c.54-.05.61-.1.61-.7V44.67c0-.54,0-.58-.55-.67v-.2a7.17,7.17,0,0,0,1.31-.33V46.4c0,.59.06.64.61.7v.23Zm.46-5a.47.47,0,0,1,.48-.48.46.46,0,0,1,.46.48.47.47,0,0,1-.47.47A.48.48,0,0,1,142.24,42.29Z"/><path class="cls-6" d="M149.64,43.09c-.15-.55-.42-1.17-1.16-1.17a.9.9,0,0,0-1,.93c0,.6.4.9,1.12,1.24s1.52.77,1.52,1.72a1.78,1.78,0,0,1-2,1.66,2.83,2.83,0,0,1-.88-.14,2.61,2.61,0,0,1-.44-.19,12,12,0,0,1-.24-1.37l.27-.07c.14.54.57,1.44,1.47,1.44a.94.94,0,0,0,1-1c0-.62-.47-.91-1.14-1.27s-1.45-.73-1.45-1.68a1.64,1.64,0,0,1,1.83-1.56,3.93,3.93,0,0,1,1.14.2c0,.31.08.66.16,1.22Z"/><path class="cls-6" d="M150.54,47.33V47.1c.55-.06.63-.11.63-.68v-4c0-.58-.06-.59-.6-.65v-.21a7.81,7.81,0,0,0,1.35-.3v5.2c0,.58.07.63.64.68v.23Z"/><path class="cls-6" d="M156.18,46.57a2,2,0,0,1-1.48.86A1.72,1.72,0,0,1,153,45.61a2.16,2.16,0,0,1,.56-1.47,1.86,1.86,0,0,1,1.32-.66h0a1.35,1.35,0,0,1,1.33,1.32c0,.17,0,.25-.2.28s-1.25.11-2.26.15c0,1.11.67,1.58,1.27,1.58a1.45,1.45,0,0,0,1-.43Zm-1.52-2.76c-.37,0-.75.33-.87,1,.46,0,.93,0,1.41,0,.16,0,.21-.05.21-.16a.79.79,0,0,0-.74-.87Z"/><path class="cls-6" d="M161.56,47.33V47.1c.49-.05.59-.09.59-.7V45c0-.65-.25-1-.75-1a1.58,1.58,0,0,0-.93.43,3.16,3.16,0,0,1,0,.35v1.66c0,.54.09.59.56.64v.23h-1.92V47.1c.52-.05.6-.09.6-.66V45c0-.64-.24-1-.74-1a1.69,1.69,0,0,0-.92.42v2c0,.56.08.61.48.66v.23h-1.88V47.1c.56-.05.64-.1.64-.67V44.69c0-.55,0-.6-.52-.68V43.8a6.07,6.07,0,0,0,1.27-.35v.71c.19-.12.38-.28.64-.44a1.38,1.38,0,0,1,.72-.24,1.07,1.07,0,0,1,1,.71c.26-.19.5-.35.72-.49a1.23,1.23,0,0,1,.65-.22c.7,0,1.14.48,1.14,1.34v1.62c0,.57.06.6.57.66v.23Z"/><path class="cls-6" d="M166.72,47.43a.75.75,0,0,1-.45-.17.83.83,0,0,1-.21-.36,2.91,2.91,0,0,1-1,.53A1.06,1.06,0,0,1,164,46.37c0-.43.24-.68.71-.84A5.68,5.68,0,0,0,166,45v-.16c0-.61-.28-.94-.7-.94A.52.52,0,0,0,165,44a1.43,1.43,0,0,0-.26.58.27.27,0,0,1-.28.21.43.43,0,0,1-.4-.38c0-.13.11-.23.28-.35a4.13,4.13,0,0,1,1.33-.61,1.19,1.19,0,0,1,.73.22,1.31,1.31,0,0,1,.42,1.09v1.54c0,.38.15.51.31.51a.69.69,0,0,0,.31-.09l.09.23ZM166,45.28l-.71.33c-.34.15-.53.32-.53.63a.62.62,0,0,0,.6.66,1,1,0,0,0,.64-.29Z"/><path class="cls-6" d="M170.24,47.33V47.1c.5-.05.56-.12.56-.73V45c0-.6-.24-1-.78-1a1.53,1.53,0,0,0-.91.42v2c0,.58,0,.62.55.67v.23h-1.94V47.1c.58-.07.63-.11.63-.68V44.69c0-.56-.06-.6-.52-.68V43.8a5.94,5.94,0,0,0,1.28-.35v.7a6.59,6.59,0,0,1,.59-.41,1.27,1.27,0,0,1,.72-.26c.69,0,1.13.49,1.13,1.34v1.61c0,.58,0,.61.56.67v.23Z"/><path class="cls-6" d="M172.56,47.33V47.1c.55-.05.62-.1.62-.7V44.67c0-.54,0-.58-.55-.67v-.2a6.86,6.86,0,0,0,1.3-.33V46.4c0,.59.06.64.62.7v.23Zm.46-5a.48.48,0,0,1,.48-.48.46.46,0,0,1,.46.48.47.47,0,0,1-.47.47A.49.49,0,0,1,173,42.29Z"/><path class="cls-6" d="M182.1,43.13a2.09,2.09,0,0,0-.3-.8c-.15-.2-.3-.27-1-.27h-.6v4.19c0,.68.08.78.91.83v.25h-2.6v-.25c.8,0,.88-.14.88-.83V42.06h-.51c-.77,0-.95.08-1.07.27a2.85,2.85,0,0,0-.3.8h-.26c0-.56.08-1.13.1-1.6h.19c.13.21.24.21.5.21h3.56a.46.46,0,0,0,.45-.21h.19c0,.39,0,1,.09,1.57Z"/><path class="cls-6" d="M184,43.48a1.9,1.9,0,0,1,1.94,1.91,1.94,1.94,0,0,1-1.94,2,1.89,1.89,0,0,1-2-1.88,2,2,0,0,1,2-2.07Zm-.11.29c-.5,0-1,.51-1,1.48s.47,1.88,1.17,1.88c.51,0,1-.34,1-1.54,0-1-.41-1.82-1.14-1.82Z"/><path class="cls-6" d="M192.25,43.81c-.44.07-.51.17-.69.63-.27.68-.66,1.83-1.07,3h-.26c-.37-.92-.73-1.76-1.08-2.62-.33.86-.68,1.71-1,2.62h-.27c-.32-1-.66-2-1-3.05-.15-.43-.23-.5-.64-.56v-.23h1.86v.23c-.52.09-.56.14-.43.53.19.63.41,1.29.62,1.91h0c.33-.8.65-1.67,1-2.63h.25c.33.87.68,1.77,1,2.67h0c.17-.54.42-1.31.58-1.92.11-.42.05-.48-.51-.56v-.23h1.59Z"/><path class="cls-6" d="M195.59,46.57a2,2,0,0,1-1.48.86,1.72,1.72,0,0,1-1.71-1.82,2.16,2.16,0,0,1,.56-1.47,1.86,1.86,0,0,1,1.32-.66h0a1.35,1.35,0,0,1,1.33,1.32c0,.17,0,.25-.2.28s-1.25.11-2.26.15c0,1.11.67,1.58,1.27,1.58a1.45,1.45,0,0,0,1-.43Zm-1.52-2.76c-.37,0-.75.33-.87,1,.46,0,.93,0,1.41,0,.16,0,.21-.05.21-.16a.79.79,0,0,0-.74-.87Z"/><path class="cls-6" d="M197.5,44.41c.29-.47.65-.93,1.05-.93a.5.5,0,0,1,.53.44.53.53,0,0,1-.3.47.22.22,0,0,1-.24,0,.51.51,0,0,0-.38-.17c-.22,0-.49.25-.68.71v1.53c0,.57,0,.62.73.67v.23h-2.09V47.1c.53-.05.61-.1.61-.67V44.65c0-.54,0-.58-.54-.65v-.19a5.19,5.19,0,0,0,1.29-.36v1Z"/><path class="cls-6" d="M201.7,44.63c-.17-.51-.48-.86-.91-.86a.53.53,0,0,0-.54.57c0,.35.33.55.73.71.66.26,1.11.57,1.11,1.18a1.31,1.31,0,0,1-1.46,1.2,1.82,1.82,0,0,1-1-.28,4.58,4.58,0,0,1-.15-1.06l.24,0c.16.57.55,1.08,1.07,1.08a.58.58,0,0,0,.6-.58c0-.35-.23-.55-.68-.74s-1.11-.53-1.11-1.21A1.22,1.22,0,0,1,201,43.48a1.75,1.75,0,0,1,.78.16,4.56,4.56,0,0,1,.2.92Z"/><path class="cls-6" d="M203.17,46.17a1,1,0,0,1,.83,1c0,.69-.64,1.08-1.21,1.24l-.09-.27c.44-.18.69-.41.69-.73s-.24-.52-.57-.6c0,0-.1-.07-.1-.23a.41.41,0,0,1,.44-.37Z"/><path class="cls-6" d="M210.09,43.09c-.15-.55-.42-1.17-1.16-1.17a.9.9,0,0,0-1,.93c0,.6.4.9,1.12,1.24s1.52.77,1.52,1.72a1.78,1.78,0,0,1-2,1.66,2.83,2.83,0,0,1-.88-.14,2.61,2.61,0,0,1-.44-.19,12,12,0,0,1-.24-1.37l.26-.07c.15.54.58,1.44,1.48,1.44a.93.93,0,0,0,1-1c0-.62-.46-.91-1.13-1.27s-1.45-.73-1.45-1.68a1.64,1.64,0,0,1,1.83-1.56,3.93,3.93,0,0,1,1.14.2c0,.31.08.66.16,1.22Z"/><path class="cls-6" d="M214,47.43a.7.7,0,0,1-.44-.17.86.86,0,0,1-.22-.36,2.91,2.91,0,0,1-1,.53,1.06,1.06,0,0,1-1.08-1.06c0-.43.24-.68.72-.84a5.57,5.57,0,0,0,1.34-.55v-.16c0-.61-.28-.94-.69-.94a.49.49,0,0,0-.37.15,1.31,1.31,0,0,0-.27.58.27.27,0,0,1-.28.21.43.43,0,0,1-.4-.38c0-.13.11-.23.28-.35a4.19,4.19,0,0,1,1.34-.61,1.16,1.16,0,0,1,.72.22,1.28,1.28,0,0,1,.42,1.09v1.54c0,.38.16.51.31.51a.69.69,0,0,0,.31-.09l.09.23Zm-.69-2.15-.71.33c-.34.15-.52.32-.52.63a.62.62,0,0,0,.6.66,1,1,0,0,0,.63-.29Z"/><path class="cls-6" d="M216.42,44.41c.29-.47.64-.93,1.05-.93a.5.5,0,0,1,.53.44.52.52,0,0,1-.31.47.2.2,0,0,1-.23,0,.54.54,0,0,0-.38-.17c-.23,0-.49.25-.68.71v1.53c0,.57,0,.62.72.67v.23H215V47.1c.53-.05.6-.1.6-.67V44.65c0-.54,0-.58-.53-.65v-.19a5.44,5.44,0,0,0,1.29-.36v1Z"/><path class="cls-6" d="M221.58,46.54a2.13,2.13,0,0,1-1.5.89,1.75,1.75,0,0,1-1.8-1.79,2,2,0,0,1,.89-1.67,2.46,2.46,0,0,1,1.34-.49h0a1.24,1.24,0,0,1,.78.23.3.3,0,0,1,.14.27.42.42,0,0,1-.3.39c-.05,0-.09,0-.17-.1a1.32,1.32,0,0,0-.89-.37c-.54,0-1,.44-1,1.35a1.42,1.42,0,0,0,1.33,1.56,1.4,1.4,0,0,0,1.05-.47Z"/><path class="cls-6" d="M224.3,47.33V47.1c.49-.05.56-.11.56-.67V45c0-.71-.3-1-.84-1a1.26,1.26,0,0,0-.88.42v2c0,.55.06.62.56.67v.23h-1.91V47.1c.52-.05.6-.1.6-.67V42.35c0-.54,0-.57-.58-.62v-.21a10,10,0,0,0,1.33-.3v2.89a2,2,0,0,1,1.25-.63c.72,0,1.23.44,1.23,1.49v1.46c0,.58.06.62.56.67v.23Z"/><path class="cls-6" d="M226.62,47.33V47.1c.55-.05.61-.1.61-.7V44.67c0-.54,0-.58-.54-.67v-.2a6.86,6.86,0,0,0,1.3-.33V46.4c0,.59.06.64.62.7v.23Zm.46-5a.48.48,0,0,1,.48-.48.46.46,0,0,1,.46.48.47.47,0,0,1-.47.47A.49.49,0,0,1,227.08,42.29Z"/><path class="cls-6" d="M231.52,47.33V47.1c.5-.05.56-.12.56-.73V45c0-.6-.24-1-.77-1a1.53,1.53,0,0,0-.92.42v2c0,.58.05.62.55.67v.23H229V47.1c.59-.07.63-.11.63-.68V44.69c0-.56-.06-.6-.51-.68V43.8a6,6,0,0,0,1.27-.35v.7c.18-.13.36-.27.59-.41a1.3,1.3,0,0,1,.72-.26c.69,0,1.13.49,1.13,1.34v1.61c0,.58.06.61.56.67v.23Z"/><path class="cls-6" d="M236.64,47.43a.67.67,0,0,1-.66-.53,2.91,2.91,0,0,1-1,.53,1.06,1.06,0,0,1-1.08-1.06c0-.43.23-.68.71-.84A5.68,5.68,0,0,0,236,45v-.16c0-.61-.28-.94-.7-.94a.52.52,0,0,0-.37.15,1.31,1.31,0,0,0-.26.58.28.28,0,0,1-.28.21.43.43,0,0,1-.4-.38c0-.13.11-.23.28-.35a4.13,4.13,0,0,1,1.33-.61,1.19,1.19,0,0,1,.73.22,1.31,1.31,0,0,1,.42,1.09v1.54c0,.38.15.51.31.51a.69.69,0,0,0,.31-.09l.09.23ZM236,45.28l-.71.33c-.34.15-.53.32-.53.63a.62.62,0,0,0,.6.66,1,1,0,0,0,.64-.29Z"/><path class="cls-6" d="M239,44.41c.29-.47.65-.93,1.06-.93a.5.5,0,0,1,.53.44.52.52,0,0,1-.31.47.22.22,0,0,1-.24,0,.51.51,0,0,0-.38-.17c-.22,0-.48.25-.67.71v1.53c0,.57,0,.62.72.67v.23h-2.09V47.1c.53-.05.61-.1.61-.67V44.65c0-.54-.05-.58-.54-.65v-.19a5.39,5.39,0,0,0,1.3-.36v1Z"/><path class="cls-6" d="M241,46.17a1,1,0,0,1,.83,1c0,.69-.64,1.08-1.21,1.24l-.09-.27c.44-.18.69-.41.69-.73s-.24-.52-.57-.6c0,0-.1-.07-.1-.23a.41.41,0,0,1,.44-.37Z"/><path class="cls-6" d="M247.9,43.09c-.15-.55-.42-1.17-1.16-1.17a.9.9,0,0,0-1,.93c0,.6.4.9,1.12,1.24s1.52.77,1.52,1.72a1.78,1.78,0,0,1-2,1.66,2.83,2.83,0,0,1-.88-.14,2.61,2.61,0,0,1-.44-.19,12,12,0,0,1-.24-1.37l.27-.07c.14.54.57,1.44,1.47,1.44a.94.94,0,0,0,1-1c0-.62-.47-.91-1.14-1.27S245,44.13,245,43.18a1.64,1.64,0,0,1,1.83-1.56,3.93,3.93,0,0,1,1.14.2c0,.31.08.66.16,1.22Z"/><path class="cls-6" d="M248.8,47.33V47.1c.55-.06.63-.11.63-.68v-4c0-.58-.06-.59-.6-.65v-.21a7.81,7.81,0,0,0,1.35-.3v5.2c0,.58.07.63.64.68v.23Z"/><path class="cls-6" d="M254.44,46.57a2,2,0,0,1-1.48.86,1.72,1.72,0,0,1-1.71-1.82,2.16,2.16,0,0,1,.56-1.47,1.86,1.86,0,0,1,1.32-.66h0a1.35,1.35,0,0,1,1.33,1.32c0,.17,0,.25-.2.28s-1.25.11-2.26.15c0,1.11.67,1.58,1.27,1.58a1.45,1.45,0,0,0,1-.43Zm-1.52-2.76c-.37,0-.75.33-.87,1,.46,0,.93,0,1.41,0,.16,0,.21-.05.21-.16a.79.79,0,0,0-.74-.87Z"/><path class="cls-6" d="M259.82,47.33V47.1c.49-.05.59-.09.59-.7V45c0-.65-.25-1-.75-1a1.58,1.58,0,0,0-.93.43,3.16,3.16,0,0,1,0,.35v1.66c0,.54.09.59.56.64v.23h-1.92V47.1c.52-.05.6-.09.6-.66V45c0-.64-.24-1-.74-1a1.69,1.69,0,0,0-.92.42v2c0,.56.08.61.48.66v.23h-1.88V47.1c.56-.05.64-.1.64-.67V44.69c0-.55,0-.6-.52-.68V43.8a6.07,6.07,0,0,0,1.27-.35v.71c.19-.12.38-.28.64-.44a1.38,1.38,0,0,1,.72-.24,1.07,1.07,0,0,1,1,.71c.26-.19.5-.35.72-.49a1.21,1.21,0,0,1,.65-.22c.7,0,1.14.48,1.14,1.34v1.62c0,.57.06.6.57.66v.23Z"/><path class="cls-6" d="M265,47.43a.73.73,0,0,1-.45-.17.83.83,0,0,1-.21-.36,2.91,2.91,0,0,1-1,.53,1.06,1.06,0,0,1-1.08-1.06c0-.43.24-.68.71-.84a5.68,5.68,0,0,0,1.35-.55v-.16c0-.61-.28-.94-.7-.94a.52.52,0,0,0-.37.15,1.43,1.43,0,0,0-.26.58.27.27,0,0,1-.28.21.43.43,0,0,1-.4-.38c0-.13.11-.23.28-.35a4.13,4.13,0,0,1,1.33-.61,1.19,1.19,0,0,1,.73.22,1.31,1.31,0,0,1,.42,1.09v1.54c0,.38.15.51.31.51a.69.69,0,0,0,.31-.09l.09.23Zm-.69-2.15-.71.33c-.34.15-.53.32-.53.63a.62.62,0,0,0,.6.66,1,1,0,0,0,.64-.29Z"/><path class="cls-6" d="M268.5,47.33V47.1c.5-.05.56-.12.56-.73V45c0-.6-.24-1-.78-1a1.53,1.53,0,0,0-.91.42v2c0,.58,0,.62.55.67v.23H266V47.1c.58-.07.63-.11.63-.68V44.69c0-.56-.06-.6-.52-.68V43.8a5.94,5.94,0,0,0,1.28-.35v.7a6.59,6.59,0,0,1,.59-.41,1.27,1.27,0,0,1,.72-.26c.69,0,1.13.49,1.13,1.34v1.61c0,.58.05.61.56.67v.23Z"/><path class="cls-6" d="M270.82,47.33V47.1c.55-.05.62-.1.62-.7V44.67c0-.54,0-.58-.55-.67v-.2a6.86,6.86,0,0,0,1.3-.33V46.4c0,.59.06.64.62.7v.23Zm.46-5a.48.48,0,0,1,.48-.48.46.46,0,0,1,.46.48.47.47,0,0,1-.47.47A.49.49,0,0,1,271.28,42.29Z"/><path class="cls-6" d="M273.73,46.17a1,1,0,0,1,.83,1c0,.69-.64,1.08-1.21,1.24l-.09-.27c.44-.18.69-.41.69-.73s-.24-.52-.57-.6c0,0-.1-.07-.1-.23a.41.41,0,0,1,.44-.37Z"/><path class="cls-6" d="M281.81,47.33c-.65-.73-1.35-1.54-2.15-2.47-.2-.25-.32-.28-.47-.26v1.6c0,.76.08.83.82.88v.25h-2.37v-.25c.67,0,.75-.12.75-.88V42.88c0-.78-.08-.83-.78-.88v-.26H280V42c-.68,0-.76.11-.76.88v1.48a1.46,1.46,0,0,0,.64-.41,17.83,17.83,0,0,0,1.44-1.48c.26-.31.25-.4-.16-.46h-.19v-.26h2.17V42a2.08,2.08,0,0,0-1.45.63c-.37.33-1,.92-1.53,1.46.65.81,1.59,1.85,2.07,2.37a1.48,1.48,0,0,0,1.06.62v.25Z"/><path class="cls-6" d="M287.49,47.13a5.14,5.14,0,0,0-.69.13l-.66.17-.06,0v-.61a6,6,0,0,1-.61.44,1.4,1.4,0,0,1-.7.22c-.61,0-1.1-.36-1.1-1.29V44.51c0-.47-.07-.52-.29-.57l-.24-.06v-.2l.66-.06.66-.1c0,.27,0,.68,0,1.25v1.16c0,.71.37.94.75.94a1.31,1.31,0,0,0,.9-.38v-2c0-.47-.07-.53-.35-.57l-.32-.06v-.2c.25,0,.56,0,.83-.07a4.34,4.34,0,0,0,.6-.09v2.84c0,.44.07.5.41.52l.24,0Z"/><path class="cls-6" d="M289.26,44.41c.29-.47.65-.93,1.06-.93a.5.5,0,0,1,.53.44.52.52,0,0,1-.31.47.2.2,0,0,1-.23,0,.55.55,0,0,0-.39-.17c-.22,0-.48.25-.67.71v1.53c0,.57,0,.62.72.67v.23h-2.08V47.1c.52-.05.6-.1.6-.67V44.65c0-.54-.05-.58-.53-.65v-.19a5.44,5.44,0,0,0,1.29-.36v1Z"/><path class="cls-6" d="M295.41,47.11a12.32,12.32,0,0,0-1.43.32v-.55l-.51.3a1.6,1.6,0,0,1-.67.25,1.74,1.74,0,0,1-1.66-1.83,2.22,2.22,0,0,1,2.28-2.12,2,2,0,0,1,.56.1V42.37c0-.56-.05-.58-.67-.63v-.22a8.9,8.9,0,0,0,1.43-.3v5.09c0,.48.07.52.42.55l.25,0ZM294,44.26a1.07,1.07,0,0,0-.88-.45c-.37,0-1.1.31-1.1,1.56,0,1,.65,1.5,1.19,1.5a1.5,1.5,0,0,0,.79-.27Z"/><path class="cls-6" d="M295.77,47.33V47.1c.55-.05.61-.1.61-.7V44.67c0-.54,0-.58-.54-.67v-.2a6.86,6.86,0,0,0,1.3-.33V46.4c0,.59.06.64.62.7v.23Zm.46-5a.48.48,0,0,1,.48-.48.46.46,0,0,1,.46.48.47.47,0,0,1-.47.47A.49.49,0,0,1,296.23,42.29Z"/><path class="cls-6" d="M300.46,44.63c-.17-.51-.47-.86-.9-.86a.53.53,0,0,0-.54.57c0,.35.33.55.72.71.66.26,1.12.57,1.12,1.18a1.31,1.31,0,0,1-1.47,1.2,1.85,1.85,0,0,1-1-.28,4.58,4.58,0,0,1-.15-1.06l.24,0c.17.57.56,1.08,1.08,1.08a.58.58,0,0,0,.59-.58c0-.35-.22-.55-.67-.74s-1.11-.53-1.11-1.21a1.22,1.22,0,0,1,1.35-1.13,1.81,1.81,0,0,1,.79.16,5.36,5.36,0,0,1,.2.92Z"/><path class="cls-6" d="M303.13,47.31a.84.84,0,0,1-.37.12c-.59,0-.91-.33-.91-1V43.94h-.59l0-.1.24-.26h.39V43l.64-.6.12,0v1.2h1a.26.26,0,0,1-.05.36h-.92v2.17c0,.69.3.81.52.81a1.1,1.1,0,0,0,.52-.15l.08.24Z"/><path class="cls-6" d="M306.91,47.43a.7.7,0,0,1-.44-.17.86.86,0,0,1-.22-.36,2.91,2.91,0,0,1-1,.53,1.06,1.06,0,0,1-1.08-1.06c0-.43.24-.68.71-.84a5.5,5.5,0,0,0,1.35-.55v-.16c0-.61-.28-.94-.7-.94a.52.52,0,0,0-.37.15,1.43,1.43,0,0,0-.26.58.27.27,0,0,1-.28.21.43.43,0,0,1-.4-.38c0-.13.11-.23.28-.35a4.23,4.23,0,0,1,1.33-.61,1.19,1.19,0,0,1,.73.22,1.28,1.28,0,0,1,.42,1.09v1.54c0,.38.15.51.31.51a.69.69,0,0,0,.31-.09l.09.23Zm-.69-2.15-.71.33c-.34.15-.53.32-.53.63a.62.62,0,0,0,.6.66,1,1,0,0,0,.64-.29Z"/><path class="cls-6" d="M310.43,47.33V47.1c.5-.05.56-.12.56-.73V45c0-.6-.24-1-.77-1a1.53,1.53,0,0,0-.92.42v2c0,.58.05.62.55.67v.23h-1.94V47.1c.58-.07.63-.11.63-.68V44.69c0-.56-.06-.6-.52-.68V43.8a5.94,5.94,0,0,0,1.28-.35v.7c.18-.13.36-.27.59-.41a1.27,1.27,0,0,1,.72-.26c.69,0,1.13.49,1.13,1.34v1.61c0,.58.06.61.56.67v.23Z"/><path class="cls-6" d="M320.43,47.41l-.31,0a1.64,1.64,0,0,1-1.48-.79c-.3-.41-.59-.94-.85-1.35-.16-.24-.31-.35-.77-.35h-.24v1.34c0,.72.08.79.78.84v.25h-2.38v-.25c.71,0,.8-.12.8-.84V42.83c0-.73-.08-.78-.76-.83v-.26h2.25a2.54,2.54,0,0,1,1.43.3,1.27,1.27,0,0,1,.58,1.13,1.56,1.56,0,0,1-1.11,1.46c.15.28.51.84.77,1.24a7.82,7.82,0,0,0,.71.9,1.14,1.14,0,0,0,.62.4Zm-3.26-2.8a1.47,1.47,0,0,0,1-.25,1.21,1.21,0,0,0,.47-1A1.16,1.16,0,0,0,317.34,42a.85.85,0,0,0-.47.09c-.06,0-.09.14-.09.37v2.11Z"/><path class="cls-6" d="M323.92,46.57a2,2,0,0,1-1.47.86,1.71,1.71,0,0,1-1.71-1.82,2.12,2.12,0,0,1,.56-1.47,1.84,1.84,0,0,1,1.31-.66h0A1.36,1.36,0,0,1,324,44.8c0,.17,0,.25-.21.28s-1.25.11-2.26.15c0,1.11.67,1.58,1.28,1.58a1.49,1.49,0,0,0,1-.43Zm-1.51-2.76c-.38,0-.76.33-.88,1,.47,0,.93,0,1.42,0,.15,0,.2-.05.2-.16a.79.79,0,0,0-.74-.87Z"/><path class="cls-6" d="M328.34,43.65a1.13,1.13,0,0,1-.4.44l-.49,0a1.19,1.19,0,0,1,.25.75,1.43,1.43,0,0,1-1.56,1.37,3.15,3.15,0,0,1-.46,0,.47.47,0,0,0-.23.32c0,.17.16.34.56.34l.9,0c.53,0,1.28.17,1.28,1A2.11,2.11,0,0,1,326,49.55c-1,0-1.52-.57-1.53-1.06a.64.64,0,0,1,.23-.49c.19-.18.5-.4.7-.57a1.08,1.08,0,0,1-.65-.47.59.59,0,0,1-.1-.38,1.78,1.78,0,0,0,.77-.52,1.23,1.23,0,0,1-.76-1.15,1.49,1.49,0,0,1,1.59-1.43h0a1.81,1.81,0,0,1,.84.22c.45,0,.9-.08,1.23-.12Zm-2,3.81a1.07,1.07,0,0,0-.75.18.9.9,0,0,0-.37.63c0,.45.48.84,1.16.84s1.22-.42,1.22-.94a.61.61,0,0,0-.41-.61,2.48,2.48,0,0,0-.83-.1Zm-.15-3.71c-.36,0-.7.34-.7,1s.31,1.14.79,1.14.7-.34.7-1-.3-1.14-.79-1.14Z"/><path class="cls-6" d="M328.66,47.33V47.1c.54-.05.61-.1.61-.7V44.67c0-.54,0-.58-.55-.67v-.2a7.17,7.17,0,0,0,1.31-.33V46.4c0,.59.06.64.61.7v.23Zm.46-5a.47.47,0,0,1,.48-.48.46.46,0,0,1,.46.48.47.47,0,0,1-.47.47A.48.48,0,0,1,329.12,42.29Z"/><path class="cls-6" d="M333.07,43.48A1.9,1.9,0,0,1,335,45.39a2,2,0,0,1-1.95,2,1.89,1.89,0,0,1-2-1.88,2,2,0,0,1,2-2.07Zm-.11.29c-.51,0-1,.51-1,1.48s.47,1.88,1.18,1.88c.5,0,1-.34,1-1.54,0-1-.41-1.82-1.15-1.82Z"/><path class="cls-6" d="M338,47.33V47.1c.5-.05.56-.12.56-.73V45c0-.6-.25-1-.78-1a1.56,1.56,0,0,0-.92.42v2c0,.58.05.62.56.67v.23h-1.94V47.1c.58-.07.63-.11.63-.68V44.69c0-.56-.06-.6-.52-.68V43.8a5.71,5.71,0,0,0,1.27-.35v.7c.18-.13.37-.27.59-.41a1.3,1.3,0,0,1,.72-.26c.7,0,1.14.49,1.14,1.34v1.61c0,.58.05.61.56.67v.23Z"/><path class="cls-6" d="M340.9,46.17a.94.94,0,0,1,.83,1c0,.69-.63,1.08-1.2,1.24l-.1-.27c.44-.18.7-.41.7-.73s-.24-.52-.57-.6c-.05,0-.11-.07-.11-.23a.41.41,0,0,1,.44-.37Z"/><path class="cls-6" d="M344.77,47.33v-.25c.72,0,.79-.1.79-.84V42.85c0-.75-.07-.8-.79-.85v-.26h2.4V42c-.71,0-.79.1-.79.85v3.39c0,.74.08.79.79.84v.25Z"/><path class="cls-6" d="M349,44.41c.29-.47.65-.93,1-.93a.5.5,0,0,1,.53.44.51.51,0,0,1-.3.47.22.22,0,0,1-.24,0,.51.51,0,0,0-.38-.17c-.22,0-.49.25-.67.71v1.53c0,.57,0,.62.72.67v.23h-2.09V47.1c.53-.05.61-.1.61-.67V44.65c0-.54,0-.58-.54-.65v-.19a5.39,5.39,0,0,0,1.3-.36v1Z"/><path class="cls-6" d="M353.79,47.43a.7.7,0,0,1-.45-.17.74.74,0,0,1-.21-.36,3,3,0,0,1-1,.53A1.06,1.06,0,0,1,351,46.37c0-.43.23-.68.71-.84A5.68,5.68,0,0,0,353.1,45v-.16c0-.61-.28-.94-.7-.94A.52.52,0,0,0,352,44a1.31,1.31,0,0,0-.26.58.28.28,0,0,1-.29.21.43.43,0,0,1-.4-.38c0-.13.12-.23.29-.35a4.13,4.13,0,0,1,1.33-.61,1.19,1.19,0,0,1,.73.22,1.3,1.3,0,0,1,.41,1.09v1.54c0,.38.16.51.32.51a.73.73,0,0,0,.31-.09l.09.23Zm-.69-2.15-.71.33c-.34.15-.53.32-.53.63a.62.62,0,0,0,.6.66,1,1,0,0,0,.64-.29Z"/><path class="cls-6" d="M357,49.4v-.24c.68,0,.74-.11.74-.7V47.08l-.9.35a1.8,1.8,0,0,1-1.92-1.79,2.29,2.29,0,0,1,2.36-2.16,3.37,3.37,0,0,1,.64.11.53.53,0,0,0,.24,0,.83.83,0,0,0,.33-.1l0,0c0,.18,0,.34,0,.91v4c0,.59.05.62.67.69v.24Zm.74-5.19a1.21,1.21,0,0,0-.83-.38c-.55,0-1.12.5-1.12,1.52a1.46,1.46,0,0,0,1.34,1.59,1.31,1.31,0,0,0,.61-.14Z"/><path class="cls-19" d="M33.22,42.28a3.06,3.06,0,1,0-6.12,0,3,3,0,0,0,.52,1.7h0l2.54,3.81L32.71,44h0A3,3,0,0,0,33.22,42.28ZM30.16,44a1.71,1.71,0,1,1,1.7-1.7A1.71,1.71,0,0,1,30.16,44Z"/></g></g></svg>