<?xml version="1.0" encoding="utf-8"?>
<svg id="Layer_1" data-name="Layer 1" viewBox="0 0 771.76 507.35" xmlns="http://www.w3.org/2000/svg" xmlns:xlink="http://www.w3.org/1999/xlink">
  <defs>
    <style>.cls-1,.cls-13,.cls-14,.cls-4{fill:none;}.cls-2{fill:#ee3224;}.cls-3{clip-path:url(#clip-path);}.cls-4{stroke:#ee3224;}.cls-13,.cls-14,.cls-4{stroke-miterlimit:10;}.cls-5{clip-path:url(#clip-path-2);}.cls-6{fill:url(#linear-gradient);}.cls-7{clip-path:url(#clip-path-3);}.cls-8{fill:url(#linear-gradient-2);}.cls-9{clip-path:url(#clip-path-4);}.cls-10{fill:url(#linear-gradient-3);}.cls-11{clip-path:url(#clip-path-5);}.cls-12{fill:url(#linear-gradient-4);}.cls-13{stroke:#bd2131;}.cls-14{stroke:#51161d;}.cls-15{clip-path:url(#clip-path-6);}.cls-16{fill:url(#linear-gradient-5);}.cls-17{clip-path:url(#clip-path-7);}.cls-18{fill:url(#linear-gradient-6);}.cls-19{clip-path:url(#clip-path-9);}.cls-20{fill:url(#linear-gradient-7);}.cls-21{clip-path:url(#clip-path-10);}.cls-22{fill:url(#linear-gradient-8);}.cls-23{clip-path:url(#clip-path-11);}.cls-24{fill:url(#linear-gradient-9);}.cls-25{clip-path:url(#clip-path-12);}.cls-26{fill:url(#linear-gradient-10);}.cls-27{clip-path:url(#clip-path-13);}.cls-28{fill:url(#linear-gradient-11);}.cls-29{clip-path:url(#clip-path-14);}.cls-30{fill:url(#linear-gradient-12);}.cls-31{clip-path:url(#clip-path-15);}.cls-32{fill:url(#linear-gradient-13);}.cls-33{clip-path:url(#clip-path-16);}.cls-34{fill:url(#linear-gradient-14);}.cls-35{clip-path:url(#clip-path-17);}.cls-36{fill:url(#linear-gradient-15);}.cls-37{clip-path:url(#clip-path-18);}.cls-38{fill:url(#linear-gradient-16);}.cls-39{clip-path:url(#clip-path-19);}.cls-40{fill:url(#linear-gradient-17);}.cls-41{clip-path:url(#clip-path-20);}.cls-42{fill:url(#linear-gradient-18);}.cls-43{font-size:36px;}.cls-43,.cls-44,.cls-45{fill:#fff;font-family:AdobeGothicStd-Bold-KSCpc-EUC-H, Adobe Gothic Std;}.cls-44{font-size:34px;}.cls-45{font-size:38px;letter-spacing:0.05em;}.cls-46{fill:#ed2024;}</style>
    <clipPath id="clip-path" transform="translate(-6.01 -28.98)">
      <rect class="cls-1" x="55.71" y="40.29" width="719.88" height="494.69"/>
    </clipPath>
    <clipPath id="clip-path-2" transform="translate(-6.01 -28.98)">
      <polygon class="cls-1" points="58.17 263.36 163.89 369.56 58.17 369.56 58.17 263.36"/>
    </clipPath>
    <linearGradient id="linear-gradient" y1="595.28" x2="1" y2="595.28" gradientTransform="matrix(105.73, 0, 0, -105.73, 52.16, 63223.35)" gradientUnits="userSpaceOnUse">
      <stop offset="0" stop-color="#b1aaa8"/>
      <stop offset="0.14" stop-color="#bdb6b4"/>
      <stop offset="0.17" stop-color="#c0bab7"/>
      <stop offset="0.26" stop-color="#d2cccb"/>
      <stop offset="0.32" stop-color="#e0dbdb"/>
      <stop offset="0.46" stop-color="#f1eeef"/>
      <stop offset="0.59" stop-color="#faf7f8"/>
      <stop offset="0.74" stop-color="#fff"/>
      <stop offset="0.85" stop-color="#fff"/>
      <stop offset="1" stop-color="#fff"/>
    </linearGradient>
    <clipPath id="clip-path-3" transform="translate(-6.01 -28.98)">
      <polygon class="cls-1" points="164.95 263.36 164.83 369.56 59.11 263.36 164.95 263.36"/>
    </clipPath>
    <linearGradient id="linear-gradient-2" y1="595.03" x2="1" y2="595.03" gradientTransform="matrix(0, 149.85, 149.85, 0, -89053.14, 241.49)" gradientUnits="userSpaceOnUse">
      <stop offset="0" stop-color="#949494"/>
      <stop offset="0.16" stop-color="#999591"/>
      <stop offset="0.29" stop-color="#949293"/>
      <stop offset="0.48" stop-color="#afabaa"/>
      <stop offset="0.5" stop-color="#b2aead"/>
      <stop offset="0.68" stop-color="#999591"/>
      <stop offset="0.83" stop-color="#938f8b"/>
      <stop offset="1" stop-color="#999493"/>
    </linearGradient>
    <clipPath id="clip-path-4" transform="translate(-6.01 -28.98)">
      <polygon class="cls-1" points="557.08 372.79 661.2 478.99 557.08 478.99 557.08 372.79"/>
    </clipPath>
    <linearGradient id="linear-gradient-3" x1="0" y1="595.28" x2="1" y2="595.28" gradientTransform="matrix(104.12, 0, 0, -104.12, 551.07, 62375.14)" xlink:href="#linear-gradient"/>
    <clipPath id="clip-path-5" transform="translate(-6.01 -28.98)">
      <polygon class="cls-1" points="662.81 373.32 662.69 478.99 557.08 373.32 662.81 373.32"/>
    </clipPath>
    <linearGradient id="linear-gradient-4" x1="0" y1="595.03" x2="1" y2="595.03" gradientTransform="matrix(0, 149.39, 149.39, 0, -88281.81, 351.4)" xlink:href="#linear-gradient-2"/>
    <clipPath id="clip-path-6" transform="translate(-6.01 -28.98)">
      <polygon class="cls-1" points="552.79 372.56 552.67 476.28 449.16 372.56 552.79 372.56"/>
    </clipPath>
    <linearGradient id="linear-gradient-5" x1="0" y1="595.28" x2="1" y2="595.28" gradientTransform="matrix(103.63, 0, 0, -103.63, 443.15, 62084.09)" xlink:href="#linear-gradient-2"/>
    <clipPath id="clip-path-7" transform="translate(-6.01 -28.98)">
      <polygon class="cls-1" points="165.95 481.21 166.08 374.79 272.81 481.21 165.95 481.21"/>
    </clipPath>
    <linearGradient id="linear-gradient-6" x1="0" y1="595.28" x2="1" y2="595.28" gradientTransform="matrix(106.86, 0, 0, -106.86, 159.94, 64011.24)" xlink:href="#linear-gradient"/>
    <clipPath id="clip-path-9" transform="translate(-6.01 -28.98)">
      <polygon class="cls-1" points="664.51 259.96 664.64 149.44 768.23 259.96 664.51 259.96"/>
    </clipPath>
    <linearGradient id="linear-gradient-7" x1="0" y1="595.28" x2="1" y2="595.28" gradientTransform="matrix(103.72, 0, 0, -103.72, 658.51, 61916.88)" xlink:href="#linear-gradient"/>
    <clipPath id="clip-path-10" transform="translate(-6.01 -28.98)">
      <polygon class="cls-1" points="58.76 44.65 164.72 150.84 58.76 150.84 58.76 44.65"/>
    </clipPath>
    <linearGradient id="linear-gradient-8" x1="0" y1="595.28" x2="1" y2="595.28" gradientTransform="matrix(0, -106.2, -106.2, 0, 63321.32, 121.86)" xlink:href="#linear-gradient-2"/>
    <clipPath id="clip-path-11" transform="translate(-6.01 -28.98)">
      <polygon class="cls-1" points="58.76 258.95 164.95 153.23 164.95 258.95 58.76 258.95"/>
    </clipPath>
    <linearGradient id="linear-gradient-9" x1="0" y1="595.28" x2="1" y2="595.28" gradientTransform="matrix(106.2, 0, 0, -106.2, 52.75, 63392.7)" xlink:href="#linear-gradient"/>
    <clipPath id="clip-path-12" transform="translate(-6.01 -28.98)">
      <polygon class="cls-1" points="551.54 263.54 447.85 369.27 447.85 263.54 551.54 263.54"/>
    </clipPath>
    <linearGradient id="linear-gradient-10" x1="0" y1="595.28" x2="1" y2="595.28" gradientTransform="matrix(-103.68, 0, 0, 103.68, 545.53, -61433.57)" xlink:href="#linear-gradient"/>
    <clipPath id="clip-path-13" transform="translate(-6.01 -28.98)">
      <polygon class="cls-1" points="295.05 373.79 400.78 479.99 295.05 479.99 295.05 373.79"/>
    </clipPath>
    <linearGradient id="linear-gradient-11" x1="0" y1="595.28" x2="1" y2="595.28" gradientTransform="matrix(105.73, 0, 0, -105.73, 289.04, 63333.78)" xlink:href="#linear-gradient"/>
    <clipPath id="clip-path-14" transform="translate(-6.01 -28.98)">
      <polygon class="cls-1" points="400.84 373.79 400.72 479.99 294.99 373.79 400.84 373.79"/>
    </clipPath>
    <linearGradient id="linear-gradient-12" x1="0" y1="595.03" x2="1" y2="595.03" gradientTransform="matrix(0, 149.85, 149.85, 0, -88817.26, 351.91)" xlink:href="#linear-gradient-2"/>
    <clipPath id="clip-path-15" transform="translate(-6.01 -28.98)">
      <polygon class="cls-1" points="295.88 153.08 401.6 259.27 295.88 259.27 295.88 153.08"/>
    </clipPath>
    <linearGradient id="linear-gradient-13" x1="0" y1="595.28" x2="1" y2="595.28" gradientTransform="matrix(105.73, 0, 0, -105.73, 289.87, 63113.07)" xlink:href="#linear-gradient-2"/>
    <clipPath id="clip-path-16" transform="translate(-6.01 -28.98)">
      <polygon class="cls-1" points="294.64 369.38 400.84 263.66 400.84 369.38 294.64 369.38"/>
    </clipPath>
    <linearGradient id="linear-gradient-14" x1="0" y1="595.28" x2="1" y2="595.28" gradientTransform="matrix(106.2, 0, 0, -106.2, 288.63, 63503.13)" xlink:href="#linear-gradient"/>
    <clipPath id="clip-path-17" transform="translate(-6.01 -28.98)">
      <polygon class="cls-1" points="274.38 258.95 168.19 153.23 168.19 258.95 274.38 258.95"/>
    </clipPath>
    <linearGradient id="linear-gradient-15" x1="0" y1="595.28" x2="1" y2="595.28" gradientTransform="translate(268.37 63392.7) rotate(180) scale(106.2)" xlink:href="#linear-gradient-2"/>
    <clipPath id="clip-path-18" transform="translate(-6.01 -28.98)">
      <polygon class="cls-1" points="274.38 153.11 168.19 153.23 274.38 258.96 274.38 153.11"/>
    </clipPath>
    <linearGradient id="linear-gradient-16" x1="0" y1="595.28" x2="1" y2="595.28" gradientTransform="matrix(106.2, 0, 0, -106.2, 162.18, 63392.64)" xlink:href="#linear-gradient"/>
    <clipPath id="clip-path-19" transform="translate(-6.01 -28.98)">
      <polygon class="cls-1" points="662.87 258.95 555.52 153.23 555.52 258.95 662.87 258.95"/>
    </clipPath>
    <linearGradient id="linear-gradient-17" x1="0" y1="595.28" x2="1" y2="595.28" gradientTransform="translate(656.86 64076.75) rotate(180) scale(107.34)" xlink:href="#linear-gradient-2"/>
    <clipPath id="clip-path-20" transform="translate(-6.01 -28.98)">
      <polygon class="cls-1" points="664.02 151.82 555.52 151.94 664.02 259.96 664.02 151.82"/>
    </clipPath>
    <linearGradient id="linear-gradient-18" x1="0" y1="595.28" x2="1" y2="595.28" gradientTransform="matrix(108.49, 0, 0, -108.49, 549.51, 64760.65)" xlink:href="#linear-gradient"/>
  </defs>
  <title>TIC Logo - version 7 revision SCARLET</title>
  <rect class="cls-2" x="4.7" y="11.31" width="111.89" height="109.26"/>
  <g class="cls-3" transform="matrix(1, 0, 0, 1, -45, 0)">
    <rect class="cls-4" x="41.52" y="0.5" width="120.07" height="120.07"/>
  </g>
  <rect class="cls-2" x="4.81" y="232.27" width="112.32" height="112.32"/>
  <polygon class="cls-2" points="114.24 454.63 6.5 343.7 114.24 343.7 114.24 454.63"/>
  <polygon class="cls-4" points="114.24 454.63 6.5 343.7 114.24 343.7 114.24 454.63"/>
  <rect class="cls-2" x="4.81" y="120.84" width="110.43" height="113.54"/>
  <g class="cls-5" transform="matrix(1, 0, 0, 1, -45, 0)">
    <rect class="cls-6" x="52.16" y="234.38" width="105.73" height="106.19"/>
  </g>
  <g class="cls-7" transform="matrix(1, 0, 0, 1, -45, 0)">
    <rect class="cls-8" x="37.06" y="241.49" width="149.94" height="149.94" transform="translate(-196.97 142.93) rotate(-45)"/>
  </g>
  <rect class="cls-2" x="503.37" y="340.29" width="111.63" height="114.78"/>
  <g class="cls-9" transform="matrix(1, 0, 0, 1, -45, 0)">
    <rect class="cls-10" x="551.07" y="343.81" width="104.12" height="106.19"/>
  </g>
  <g class="cls-11" transform="matrix(1, 0, 0, 1, -45, 0)">
    <rect class="cls-12" x="535.21" y="351.41" width="149.48" height="149.48" transform="translate(-128.7 527.13) rotate(-45)"/>
  </g>
  <polygon points="114.24 342.58 114.11 451.12 6.16 342.58 114.24 342.58"/>
  <polygon class="cls-13" points="114.24 342.58 114.11 451.12 6.16 342.58 114.24 342.58"/>
  <polygon class="cls-2" points="614.99 340.29 614.99 455.54 724.58 342.53 724.58 340.29 614.99 340.29"/>
  <polygon points="614.15 344.59 614.28 449.33 718.72 344.59 614.15 344.59"/>
  <polygon class="cls-14" points="614.15 344.59 614.28 449.33 718.72 344.59 614.15 344.59"/>
  <polygon class="cls-2" points="503.37 455.07 392.3 342.7 503.37 342.7 503.37 455.07"/>
  <g class="cls-15" transform="matrix(1, 0, 0, 1, -45, 0)">
    <rect class="cls-16" x="443.15" y="343.59" width="103.63" height="103.71"/>
  </g>
  <polygon class="cls-13" points="501.78 343.58 501.66 447.3 398.15 343.58 501.78 343.58"/>
  <polygon class="cls-2" points="500.71 119.06 392.3 232.27 500.71 232.27 500.71 119.06"/>
  <polygon points="502.78 232.27 502.66 121.46 396.63 232.27 502.78 232.27"/>
  <polygon class="cls-14" points="502.78 232.27 502.66 121.46 396.63 232.27 502.78 232.27"/>
  <polygon class="cls-2" points="115.24 342.69 225.66 454.63 115.24 454.63 115.24 342.69"/>
  <polygon class="cls-4" points="115.24 342.69 225.66 454.63 115.24 454.63 115.24 342.69"/>
  <g class="cls-17" transform="matrix(1, 0, 0, 1, -45, 0)">
    <rect class="cls-18" x="159.94" y="345.81" width="106.86" height="106.42"/>
  </g>
  <polygon class="cls-13" points="114.94 452.23 115.07 345.81 221.81 452.23 114.94 452.23"/>
  <polygon class="cls-2" points="616.9 234.26 724.58 234.26 724.58 233.22 616.9 121.5 616.9 234.26"/>
  <g class="cls-3" transform="matrix(1, 0, 0, 1, -45, 0)">
    <polygon class="cls-4" points="661.9 121.5 770.58 234.26 661.9 234.26 661.9 121.5"/>
  </g>
  <g class="cls-19" transform="matrix(1, 0, 0, 1, -45, 0)">
    <rect class="cls-20" x="658.51" y="120.46" width="103.72" height="110.52"/>
  </g>
  <polygon class="cls-13" points="613.51 230.98 613.63 120.46 717.23 230.98 613.51 230.98"/>
  <g class="cls-21" transform="matrix(1, 0, 0, 1, -45, 0)">
    <rect class="cls-22" x="52.75" y="15.67" width="105.96" height="106.19"/>
  </g>
  <polygon points="113.94 13.67 113.82 119.86 7.75 13.67 113.94 13.67"/>
  <g class="cls-23" transform="matrix(1, 0, 0, 1, -45, 0)">
    <rect class="cls-24" x="52.75" y="124.25" width="106.2" height="105.73"/>
  </g>
  <polygon points="6.75 124.13 112.94 124.25 6.75 229.98 6.75 124.13"/>
  <polygon class="cls-13" points="6.75 124.13 112.94 124.25 6.75 229.98 6.75 124.13"/>
  <rect class="cls-2" x="393.3" y="232.27" width="110.43" height="110.43"/>
  <rect class="cls-4" x="393.3" y="232.27" width="110.43" height="110.43"/>
  <g class="cls-25" transform="matrix(1, 0, 0, 1, -45, 0)">
    <rect class="cls-26" x="441.84" y="234.56" width="103.68" height="105.73"/>
  </g>
  <polygon class="cls-13" points="500.53 234.56 396.84 340.29 396.84 234.56 500.53 234.56"/>
  <polygon points="500.53 340.4 396.84 340.29 500.53 237.06 500.53 340.4"/>
  <rect class="cls-2" x="240.69" y="119.48" width="113.14" height="113.14"/>
  <rect class="cls-2" x="240.67" y="341.19" width="113.45" height="113.45"/>
  <rect class="cls-2" x="240.69" y="230.91" width="113.14" height="113.14"/>
  <g class="cls-27" transform="matrix(1, 0, 0, 1, -45, 0)">
    <rect class="cls-28" x="289.04" y="344.81" width="105.73" height="106.19"/>
  </g>
  <g class="cls-29" transform="matrix(1, 0, 0, 1, -45, 0)">
    <rect class="cls-30" x="272.95" y="351.92" width="149.94" height="149.94" transform="translate(-205.96 342.07) rotate(-45)"/>
  </g>
  <g class="cls-31" transform="matrix(1, 0, 0, 1, -45, 0)">
    <rect class="cls-32" x="289.87" y="124.1" width="105.73" height="106.2"/>
  </g>
  <polygon points="349.65 124.1 349.53 230.29 243.81 124.1 349.65 124.1"/>
  <g class="cls-33" transform="matrix(1, 0, 0, 1, -45, 0)">
    <rect class="cls-34" x="288.63" y="234.68" width="106.19" height="105.72"/>
  </g>
  <polygon points="243.63 234.56 349.83 234.68 243.63 340.4 243.63 234.56"/>
  <rect class="cls-2" x="114.18" y="119.47" width="112.97" height="114.92"/>
  <g class="cls-35" transform="matrix(1, 0, 0, 1, -45, 0)">
    <rect class="cls-36" x="162.18" y="124.25" width="106.2" height="105.73"/>
  </g>
  <g class="cls-37" transform="matrix(1, 0, 0, 1, -45, 0)">
    <rect class="cls-38" x="162.18" y="124.13" width="106.2" height="105.85"/>
  </g>
  <rect class="cls-2" x="500.71" y="119.46" width="116.18" height="115.18"/>
  <g class="cls-39" transform="matrix(1, 0, 0, 1, -45, 0)">
    <rect class="cls-40" x="549.51" y="124.25" width="107.34" height="105.73"/>
  </g>
  <g class="cls-41" transform="matrix(1, 0, 0, 1, -45, 0)">
    <rect class="cls-42" x="549.51" y="122.84" width="108.49" height="108.14"/>
  </g>
  <rect x="241.69" y="11.31" width="110.43" height="92.3"/>
  <g class="cls-3" transform="matrix(1, 0, 0, 1, -45, 0)">
    <rect class="cls-14" x="286.69" y="10.31" width="110.43" height="93.31"/>
  </g>
  <rect class="cls-2" x="254.35" y="23.7" width="84.88" height="67.36"/>
  <rect class="cls-2" x="4.7" y="459.82" width="719.88" height="46.19"/>
  <text class="cls-43" style="white-space: pre; font-size: 36px;" x="157.28" y="493.14">Testing </text>
  <text class="cls-44" style="white-space: pre; font-size: 34px;" x="288.39" y="493.14">|</text>
  <text class="cls-43" style="white-space: pre;" x="298.18" y="493.14"><tspan style="font-size: 36px; word-spacing: 0px;"> Inspection </tspan></text>
  <text class="cls-44" style="white-space: pre; font-size: 34px;" x="488.37" y="493.14">|</text>
  <text class="cls-43" style="white-space: pre;" x="498.16" y="493.14"><tspan style="font-size: 36px; word-spacing: 0px;"> Certification</tspan></text>
  <rect x="5.37" y="459.82" width="136.46" height="46.19"/>
  <text class="cls-45" style="white-space: pre; font-size: 38px;" x="32.81" y="496.52">T I C</text>
  <rect class="cls-1" x="4.7" y="11.31" width="719.88" height="494.69"/>
  <line class="cls-46" x1="4.7" y1="11.31" x2="6.5" y2="343.59"/>
</svg>