<?xml version="1.0" encoding="iso-8859-1"?>
<!-- Generator: Adobe Illustrator 19.0.0, SVG Export Plug-In . SVG Version: 6.00 Build 0)  -->
<svg version="1.1" id="Capa_1" xmlns="http://www.w3.org/2000/svg" xmlns:xlink="http://www.w3.org/1999/xlink" x="0px" y="0px"
	 viewBox="0 0 504.123 504.123" style="enable-background:new 0 0 504.123 504.123;" xml:space="preserve">
<circle style="fill:#FCBD5E;" cx="252.062" cy="252.062" r="252.062"/>
<path style="fill:#FFFFFF;" d="M495.458,401.723V378.88l-18.117-3.151c-0.788-6.302-2.363-11.815-4.726-17.329l14.178-11.028
	l-11.028-19.692l-16.542,6.302c-3.938-4.726-7.877-8.665-12.603-12.603l6.302-16.542l-19.692-11.028l-11.028,14.178
	c-5.514-2.363-11.815-3.938-17.329-4.726l-3.151-18.117H378.88l-3.151,18.117c-6.302,0.788-11.815,2.363-17.329,4.726
	l-11.028-14.178l-19.692,11.028l6.302,16.542c-4.726,3.938-8.665,7.877-12.603,12.603l-16.542-6.302l-11.028,19.692l14.178,11.028
	c-2.363,5.514-3.938,11.815-4.726,17.329l-18.117,3.151v22.843l18.117,3.151c0.788,6.302,2.363,11.815,4.726,17.329l-14.178,11.028
	l11.028,19.692l16.542-6.302c3.938,4.726,7.877,8.665,12.603,12.603l-6.302,16.542l19.692,11.028l11.028-14.178
	c5.514,2.363,11.815,3.938,17.329,4.726l3.151,18.117h22.843l3.151-18.117c6.302-0.788,11.815-2.363,17.329-4.726l11.028,14.178
	l19.692-11.028l-6.302-16.542c4.726-3.938,8.665-7.877,12.603-12.603l16.542,6.302l11.028-19.692l-13.391-11.815
	c2.363-5.514,3.938-11.815,4.726-17.329L495.458,401.723z"/>
<path style="fill:#183651;" d="M401.723,503.335H378.88c-3.938,0-7.089-3.151-7.877-6.302l-1.575-12.603
	c-2.363-0.788-5.514-1.575-7.877-2.363l-7.877,9.452c-2.363,3.151-7.089,3.938-10.24,1.575l-19.692-11.028
	c-3.151-1.575-4.726-6.302-3.151-9.452l4.726-11.815c-2.363-1.575-3.938-3.938-5.514-5.514l-11.815,4.726
	c-3.938,1.575-7.877,0-9.452-3.151l-11.815-19.692c-1.575-3.151-0.788-7.877,1.575-10.24l9.452-7.877
	c-0.788-2.363-1.575-5.514-2.363-7.877l-12.603-1.575c-3.938-0.788-6.302-3.938-6.302-7.877V378.88c0-3.938,3.151-7.089,6.302-7.877
	l12.603-1.575c0.788-2.363,1.575-5.514,2.363-7.877l-9.452-7.877c-3.151-2.363-3.938-7.089-1.575-10.24l11.028-19.692
	c1.575-3.151,6.302-4.726,9.452-3.151l11.815,4.726c1.575-2.363,3.938-3.938,5.514-5.514l-4.726-11.815
	c-1.575-3.938,0-7.877,3.151-9.452l19.692-11.028c3.151-1.575,7.877-0.788,10.24,1.575l7.877,9.452
	c2.363-0.788,5.514-1.575,7.877-2.363l1.575-12.603c0.788-3.938,3.938-6.302,7.877-6.302h22.843c3.938,0,7.089,3.151,7.877,6.302
	l1.575,12.603c2.363,0.788,5.514,1.575,7.877,2.363l7.877-9.452c2.363-3.151,7.089-3.938,10.24-1.575l19.692,11.028
	c3.151,1.575,4.726,6.302,3.151,9.452l-3.939,11.028c2.363,1.575,3.938,3.938,5.514,5.514l11.815-4.726
	c3.938-1.575,7.877,0,9.452,3.151l11.028,19.692c1.575,3.151,0.788,7.877-1.575,10.24l-9.452,7.877
	c0.788,2.363,1.575,5.514,2.363,7.877l12.603,1.575c3.938,0.788,6.302,3.938,6.302,7.877v22.843c0,3.938-3.151,7.089-6.302,7.877
	l-12.603,2.363c-0.788,2.363-1.575,5.514-2.363,7.877l9.452,7.877c3.151,2.363,3.938,7.089,1.575,10.24l-11.028,19.692
	c-1.575,3.151-6.302,4.726-9.452,3.151l-11.815-4.726c-1.575,2.363-3.938,3.938-5.514,5.514l4.726,11.815
	c1.575,3.938,0,7.877-3.151,9.452l-19.692,11.815c-3.151,1.575-7.877,0.788-10.24-1.575l-7.877-9.452
	c-2.363,0.788-5.514,1.575-7.877,2.363l-1.575,12.603C408.812,500.972,405.662,503.335,401.723,503.335z M385.969,487.582h8.665
	l1.575-11.028c0.788-3.151,3.151-6.302,6.302-6.302c5.514-0.788,11.028-2.363,15.754-3.938c3.151-1.575,7.089,0,8.665,2.363
	l7.089,8.665l7.877-4.726l-3.938-10.24c-1.575-3.151,0-7.089,2.363-8.665c3.938-3.151,7.877-7.089,11.815-11.815
	c2.363-2.363,5.514-3.938,8.665-2.363l10.24,3.938l4.726-7.877l-8.665-7.089c-2.363-2.363-3.938-5.514-2.363-8.665
	c2.363-5.514,3.151-10.24,3.938-15.754c0.788-3.151,3.151-6.302,6.302-6.302l11.028-1.575v-8.665l-9.452-3.938
	c-3.151-0.788-6.302-3.151-6.302-6.302c-0.788-5.514-2.363-11.028-3.938-15.754c-1.575-3.151,0-7.089,2.363-8.665l8.665-7.089
	l-4.726-7.877l-10.24,3.938c-3.151,1.575-7.089,0-8.665-2.363c-3.151-3.938-7.089-7.877-11.815-11.815
	c-2.363-2.363-3.938-5.514-2.363-8.665l3.938-10.24l-7.877-4.726l-7.089,8.665c-2.363,2.363-5.514,3.938-8.665,2.363
	c-5.514-2.363-10.24-3.151-15.754-3.938c-3.151-0.788-6.302-3.151-6.302-6.302l-1.575-11.028h-8.665l-1.575,11.028
	c-0.788,3.151-3.151,6.302-6.302,6.302c-5.514,0.788-11.028,2.363-15.754,3.938c-3.151,1.575-7.089,0-8.665-2.363l-9.452-9.452
	l-7.877,4.726l3.938,10.24c1.575,3.151,0,7.089-2.363,8.665c-3.938,3.151-7.877,7.089-11.815,11.815
	c-2.363,2.363-5.514,3.938-8.665,2.363l-10.24-3.938l-4.726,7.877l8.665,7.089c2.363,2.363,3.938,5.514,2.363,8.665
	c-2.363,5.514-3.151,10.24-3.938,15.754c-0.788,3.151-3.151,6.302-6.302,6.302l-11.028,1.575v8.665l11.028,1.575
	c3.151,0.788,6.302,3.151,6.302,6.302c0.788,5.514,2.363,11.028,3.938,15.754c1.575,3.151,0,7.089-2.363,8.665l-9.452,9.452
	l4.726,7.877l10.24-3.938c3.151-1.575,7.089,0,8.665,2.363c3.151,3.938,7.089,7.877,11.815,11.815
	c2.363,2.363,3.938,5.514,2.363,8.665l-3.938,10.24l7.877,4.726l7.089-8.665c2.363-2.363,5.514-3.938,8.665-2.363
	c5.514,2.363,10.24,3.151,15.754,3.938c3.151,0.788,6.302,3.151,6.302,6.302L385.969,487.582z"/>
<circle style="fill:#2AA0DA;" cx="390.695" cy="389.908" r="61.44"/>
<circle style="fill:#FFFFFF;" cx="390.695" cy="389.908" r="25.206"/>
<path style="fill:#183651;" d="M390.695,422.991c-18.117,0-33.083-14.966-33.083-33.083s14.966-33.083,33.083-33.083
	s33.083,14.966,33.083,33.083S408.812,422.991,390.695,422.991z M390.695,372.578c-9.452,0-17.329,7.877-17.329,17.329
	c0,9.452,7.877,17.329,17.329,17.329s17.329-7.877,17.329-17.329C408.025,380.455,400.148,372.578,390.695,372.578z"/>
<path style="fill:#FFFFFF;" d="M218.978,124.455v-22.843l-18.117-2.363c-0.788-6.302-2.363-11.815-4.726-17.329l14.178-11.028
	L199.286,51.2l-16.542,6.302c-3.938-4.726-7.877-8.665-12.603-12.603l5.514-17.329l-19.692-11.028L144.935,30.72
	c-5.514-2.363-11.815-3.938-17.329-4.726l-3.151-18.117h-22.843l-3.151,18.117c-6.302,0.788-11.815,2.363-17.329,4.726
	L70.105,16.542L51.2,27.569l6.302,16.542c-4.726,3.938-8.665,7.877-12.603,12.603L27.569,51.2L16.542,70.105L30.72,81.132
	c-2.363,5.514-3.938,11.815-4.726,17.329l-18.117,3.151v22.843l18.117,3.151c0.788,6.302,2.363,11.815,4.726,17.329l-14.178,11.028
	l11.028,19.692l17.329-6.302c3.938,4.726,7.877,8.665,12.603,12.603L51.2,198.498l19.692,11.028l11.028-14.178
	c5.514,2.363,11.815,3.938,17.329,4.726l3.151,18.117h22.843l3.151-18.117c6.302-0.788,11.815-2.363,17.329-4.726l11.028,14.178
	l19.692-11.028l-7.089-16.542c4.726-3.938,8.665-7.877,12.603-12.603l16.542,6.302l11.028-19.692l-14.178-11.028
	c2.363-5.514,3.938-11.815,4.726-17.329L218.978,124.455z"/>
<path style="fill:#183651;" d="M124.455,226.855h-22.843c-3.938,0-7.089-3.151-7.877-6.302l-1.575-12.603
	c-2.363-0.788-5.514-1.575-7.877-2.363l-7.877,9.452c-2.363,3.151-7.089,3.938-10.24,1.575l-19.692-11.028
	c-3.151-1.575-3.938-6.302-3.151-9.452l4.726-11.815c-2.363-1.575-3.938-3.938-5.514-5.514l-11.815,4.726
	c-3.938,1.575-7.877,0-9.452-3.151L10.24,160.689c-1.575-3.151-0.788-7.877,1.575-10.24l9.452-7.877
	c-0.788-2.363-1.575-5.514-2.363-7.877L6.302,133.12C2.363,132.332,0,129.182,0,125.243V102.4c0-3.938,3.151-7.089,6.302-7.877
	l12.603-1.575c0.788-2.363,1.575-5.514,2.363-7.877l-9.452-7.877c-3.151-3.151-3.938-7.877-2.363-11.028L20.48,46.474
	c2.363-3.151,6.302-4.726,10.24-3.151l11.815,4.726c1.575-2.363,3.938-3.938,5.514-5.514L43.323,30.72
	c-1.575-3.938,0-7.877,3.151-9.452L66.166,10.24c3.151-1.575,7.877-0.788,10.24,1.575l7.877,9.452
	c2.363-0.788,5.514-1.575,7.877-2.363l1.575-12.603C94.523,2.363,97.674,0,101.612,0h22.843c3.938,0,7.089,3.151,7.877,6.302
	l1.575,12.603c2.363,0.788,5.514,1.575,7.877,2.363l7.877-9.452c2.363-3.151,7.089-3.938,10.24-1.575l19.692,11.028
	c3.151,1.575,4.726,6.302,3.151,9.452l-4.726,11.815c2.363,1.575,3.938,3.938,5.514,5.514l12.603-4.726
	c3.938-1.575,7.877,0,9.452,3.151l11.028,19.692c1.575,3.151,0.788,7.877-1.575,10.24l-9.452,7.877
	c0.788,2.363,1.575,5.514,2.363,7.877l12.603,1.575c3.938,0.788,6.302,3.938,6.302,7.877v22.843c0,3.938-3.151,7.089-6.302,7.877
	l-12.603,1.575c-0.788,2.363-1.575,5.514-2.363,7.877l9.452,7.877c3.151,2.363,3.938,7.089,1.575,10.24l-11.028,19.692
	c-1.575,3.151-6.302,4.726-9.452,3.151l-11.815-4.726c-1.575,2.363-3.938,3.938-5.514,5.514l4.726,11.815
	c1.575,3.938,0,7.877-3.151,9.452l-20.48,11.815c-3.151,1.575-7.877,0.788-10.24-1.575l-7.877-9.452
	c-2.363,0.788-5.514,1.575-7.877,2.363l-1.575,12.603C131.545,223.705,128.394,226.855,124.455,226.855z M108.702,211.102h8.665
	l1.575-11.028c0.788-3.151,3.151-6.302,6.302-6.302c5.514-0.788,11.028-2.363,15.754-3.938c3.151-1.575,7.089,0,8.665,2.363
	l7.089,8.665l7.877-4.726l-2.363-11.028c-1.575-3.151,0-7.089,2.363-8.665c3.938-3.151,7.877-7.089,11.815-11.815
	c2.363-2.363,5.514-3.938,8.665-2.363l10.24,3.938l4.726-7.877l-8.665-7.089c-2.363-2.363-3.938-5.514-2.363-8.665
	c2.363-5.514,3.151-10.24,3.938-15.754c0.788-3.151,3.151-6.302,6.302-6.302l11.028-1.575v-8.665l-11.028-1.575
	c-3.151-0.788-6.302-3.151-6.302-6.302c-0.788-5.514-2.363-11.028-3.938-15.754c-1.575-3.151,0-7.089,2.363-8.665l8.665-7.089
	l-4.726-7.877l-10.24,1.575c-3.151,1.575-7.089,0-8.665-2.363c-3.151-3.938-7.089-7.877-11.815-11.815
	c-2.363-2.363-3.938-5.514-2.363-8.665l3.938-10.24l-7.877-4.726l-7.089,8.665c-2.363,2.363-5.514,3.938-8.665,2.363
	c-5.514-2.363-10.24-3.151-15.754-3.938c-3.151-0.788-6.302-3.151-6.302-6.302l-1.575-11.028h-8.665l-1.575,11.028
	c-0.788,3.151-3.151,6.302-6.302,6.302c-5.514,0.788-11.028,2.363-15.754,3.938c-3.151,1.575-7.089,0-8.665-2.363l-9.452-8.665
	l-7.877,4.726l3.938,10.24c1.575,3.151,0,7.089-2.363,8.665c-3.938,3.151-7.877,7.089-11.815,11.815
	c-1.575,2.363-5.514,3.938-8.665,2.363l-10.24-3.938l-4.726,7.877l8.665,7.089c2.363,2.363,3.938,5.514,2.363,8.665
	c-2.363,5.514-3.151,10.24-3.938,15.754c-0.788,3.151-3.151,6.302-6.302,6.302l-11.028,1.575v8.665l11.028,1.575
	c3.151,0.788,6.302,3.151,6.302,6.302c0.788,5.514,2.363,11.028,3.938,15.754c1.575,3.151,0,7.089-2.363,8.665l-8.665,7.089
	l4.726,7.877l10.24-2.363c3.151-1.575,7.089,0,8.665,2.363c3.151,3.938,7.089,7.877,11.815,11.815
	c2.363,2.363,3.938,5.514,2.363,8.665l-3.938,10.24l7.877,4.726l7.089-8.665c2.363-2.363,5.514-3.938,8.665-2.363
	c5.514,2.363,10.24,3.151,15.754,3.938c3.151,0.788,6.302,3.151,6.302,6.302L108.702,211.102z"/>
<circle style="fill:#F05F50;" cx="113.428" cy="113.428" r="61.44"/>
<circle style="fill:#FFFFFF;" cx="113.428" cy="113.428" r="25.206"/>
<path style="fill:#183651;" d="M113.428,146.511c-18.117,0-33.083-14.966-33.083-33.083s14.966-33.083,33.083-33.083
	s33.083,14.966,33.083,33.083C146.511,131.545,131.545,146.511,113.428,146.511z M113.428,96.098
	c-9.452,0-17.329,7.877-17.329,17.329s7.877,17.329,17.329,17.329s17.329-7.877,17.329-17.329S122.88,96.098,113.428,96.098z"/>
<path style="fill:#E1E6E8;" d="M462.375,205.588c31.508-31.508,40.96-75.618,29.145-115.003l-82.708,82.708l-77.194-77.194
	l81.92-83.495c-39.385-11.815-84.283-2.363-115.003,29.145C263.877,76.406,256,126.818,274.117,169.354L25.994,399.36
	c-23.631,21.268-24.418,58.289-1.575,80.345c22.843,22.843,59.077,21.268,80.345-1.575l230.006-248.123
	C376.517,248.123,427.717,240.246,462.375,205.588z"/>
<path style="fill:#183651;" d="M18.905,485.218c-25.994-25.994-24.418-67.742,2.363-92.16l244.185-226.068
	c-18.117-44.898-7.089-96.098,27.569-130.757c33.871-33.871,81.132-43.323,122.88-30.72c2.363,0.788,4.726,3.151,5.514,5.514
	s0,5.514-2.363,7.877l-77.194,77.194l66.166,66.166l77.194-77.194c1.575-1.575,4.726-2.363,7.877-2.363
	c2.363,0.788,4.726,2.363,5.514,5.514c13.391,43.323,0.788,90.585-30.72,122.88c-35.446,35.446-87.434,44.898-130.757,28.357
	L111.065,483.643C86.646,509.637,44.898,511.212,18.905,485.218z M304.049,47.262c-31.508,31.508-40.172,77.982-22.843,118.942
	c1.575,3.151,0.788,6.302-1.575,8.665L31.508,404.874c-20.48,18.117-21.268,49.625-1.575,69.317
	c19.692,19.692,51.2,18.117,69.317-1.575l229.218-248.123c2.363-2.363,5.514-3.151,8.665-1.575
	c39.385,17.329,86.646,9.452,118.942-22.843c25.206-25.206,35.446-59.865,29.932-93.735l-72.468,72.468
	c-3.151,3.151-7.877,3.151-11.028,0l-77.194-77.194c-1.575-1.575-2.363-3.151-2.363-5.514c0-2.363,0.788-3.938,2.363-5.514
	l72.468-73.255C364.702,11.815,330.043,22.055,304.049,47.262z"/>
<ellipse style="fill:#FFFFFF;" cx="67.714" cy="436.281" rx="18.117" ry="18.117"/>
<g>
	
		<rect x="132.187" y="355.9" transform="matrix(-0.7071 0.7071 -0.7071 -0.7071 496.3326 521.9665)" style="fill:#183651;" width="15.754" height="15.754"/>
	
		<rect x="200.664" y="287.042" transform="matrix(-0.707 0.7072 -0.7072 -0.707 564.549 355.9476)" style="fill:#183651;" width="15.754" height="15.754"/>
	
		<rect x="235.737" y="252.815" transform="matrix(-0.7071 0.7071 -0.7071 -0.7071 600.2111 272.7677)" style="fill:#183651;" width="15.754" height="15.754"/>
	
		<rect x="97.686" y="390.61" transform="matrix(-0.7071 0.7071 -0.7071 -0.7071 461.9791 605.6152)" style="fill:#183651;" width="15.754" height="15.754"/>
	
		<rect x="166.736" y="321.184" transform="matrix(-0.7072 0.7071 -0.7071 -0.7072 530.7584 438.2978)" style="fill:#183651;" width="15.755" height="15.755"/>
	
		<rect x="270.251" y="218.149" transform="matrix(-0.7072 0.707 -0.707 -0.7072 634.6227 189.2341)" style="fill:#183651;" width="15.754" height="15.754"/>
</g>
<g>
</g>
<g>
</g>
<g>
</g>
<g>
</g>
<g>
</g>
<g>
</g>
<g>
</g>
<g>
</g>
<g>
</g>
<g>
</g>
<g>
</g>
<g>
</g>
<g>
</g>
<g>
</g>
<g>
</g>
</svg>
