<?xml version="1.0" encoding="iso-8859-1"?>
<!-- Generator: Adobe Illustrator 19.0.0, SVG Export Plug-In . SVG Version: 6.00 Build 0)  -->
<svg version="1.1" id="Capa_1" xmlns="http://www.w3.org/2000/svg" xmlns:xlink="http://www.w3.org/1999/xlink" x="0px" y="0px"
	 viewBox="0 0 512 512" style="enable-background:new 0 0 512 512;" xml:space="preserve">
<rect x="238.93" y="111.466" style="fill:#CD7A54;" width="34.13" height="340.805"/>
<rect x="238.93" y="111.466" style="fill:#BA6F4C;" width="34.13" height="34.465"/>
<g>
	<path style="fill:#2E4F5A;" d="M358.401,298.134c-0.877,0-1.768-0.145-2.642-0.451c-4.17-1.46-6.368-6.023-4.908-10.194
		l59.73-170.668c1.123-3.209,4.151-5.357,7.551-5.357c3.399,0,6.428,2.148,7.551,5.357l59.735,170.665
		c1.46,4.17-0.738,8.734-4.909,10.194c-4.17,1.461-8.733-0.738-10.194-4.909L418.132,143.68l-52.18,149.094
		C364.799,296.071,361.707,298.134,358.401,298.134z"/>
	<path style="fill:#2E4F5A;" d="M494.933,324.265c0,18.85-15.282,34.132-34.132,34.132h-85.337
		c-18.85,0-34.132-15.282-34.132-34.132v-8.534h153.602L494.933,324.265z"/>
</g>
<path style="fill:#2A4752;" d="M469.334,315.732l-0.001,8.534c0,18.85-15.282,34.132-34.132,34.132H460.8
	c18.85,0,34.132-15.282,34.132-34.132l0.001-8.534H469.334z"/>
<path style="fill:#F4B641;" d="M494.934,324.264c9.425,0,17.066-7.641,17.066-17.066s-7.641-17.066-17.066-17.066H341.331
	c-9.425,0-17.066,7.641-17.066,17.066s7.641,17.066,17.066,17.066H494.934z"/>
<path style="fill:#FB8436;" d="M494.934,290.133h-25.599c9.425,0,17.066,7.641,17.066,17.066s-7.641,17.066-17.066,17.066h25.599
	c9.425,0,17.066-7.641,17.066-17.066S504.359,290.133,494.934,290.133z"/>
<g>
	<path style="fill:#2E4F5A;" d="M34.136,298.134c-0.877,0-1.768-0.145-2.642-0.451c-4.17-1.46-6.368-6.023-4.908-10.194
		l59.73-170.667c1.123-3.209,4.151-5.357,7.551-5.357c3.399,0,6.428,2.148,7.551,5.357l59.735,170.665
		c1.46,4.17-0.738,8.734-4.909,10.194c-4.17,1.461-8.733-0.738-10.194-4.909L93.867,143.681L41.688,292.775
		C40.535,296.071,37.442,298.134,34.136,298.134z"/>
	<path style="fill:#2E4F5A;" d="M170.668,324.265c0,18.85-15.282,34.132-34.132,34.132H51.198c-18.85,0-34.132-15.282-34.132-34.132
		v-8.534h153.602V324.265z"/>
</g>
<path style="fill:#2A4752;" d="M145.069,315.732l-0.001,8.534c0,18.85-15.282,34.132-34.132,34.132h25.599
	c18.85,0,34.132-15.282,34.132-34.132l0.001-8.534H145.069z"/>
<path style="fill:#F4B641;" d="M170.669,324.264c9.425,0,17.066-7.641,17.066-17.066s-7.641-17.066-17.066-17.066H17.066
	C7.641,290.132,0,297.773,0,307.198s7.641,17.066,17.066,17.066H170.669z"/>
<path style="fill:#FB8436;" d="M170.669,290.133h-25.6c9.425,0,17.066,7.641,17.066,17.066s-7.641,17.066-17.066,17.066h25.6
	c9.425,0,17.066-7.641,17.066-17.066S180.094,290.133,170.669,290.133z"/>
<path style="fill:#F4B641;" d="M25.598,74.665v10.668c0,18.85,15.282,34.132,34.132,34.132h392.536
	c18.85,0,34.132-15.282,34.132-34.132V74.665c0-3.535-2.865-6.401-6.399-6.401h-448C28.464,68.266,25.598,71.131,25.598,74.665z"/>
<path style="fill:#FB8436;" d="M460.8,68.266v17.068c0,18.85-15.282,34.132-34.132,34.132h25.598
	c18.85,0,34.132-15.282,34.132-34.132V74.665c0-3.535-2.865-6.401-6.399-6.401H460.8V68.266z"/>
<circle style="fill:#2E4F5A;" cx="256.072" cy="93.87" r="8"/>
<circle style="fill:#F4B641;" cx="256.072" cy="34.212" r="34.212"/>
<path style="fill:#FB8436;" d="M256.075,0c-4.541,0-8.872,0.893-12.837,2.5c12.53,5.078,21.371,17.358,21.371,31.708
	c0,14.351-8.841,26.63-21.371,31.708c3.965,1.607,8.296,2.499,12.837,2.499c18.892,0,34.207-15.316,34.207-34.208
	C290.282,15.316,274.967,0,256.075,0z"/>
<path style="fill:#F4B641;" d="M335.154,443.731H176.847c-3.414,0-6.181,2.767-6.181,6.181V486.4h170.668v-36.488
	C341.335,446.498,338.567,443.731,335.154,443.731z"/>
<g>
	<path style="fill:#FB8436;" d="M335.154,443.731h-19.42V486.4h25.601v-36.488C341.335,446.498,338.567,443.731,335.154,443.731z"/>
	<path style="fill:#FB8436;" d="M369.285,477.867H142.714c-3.414,0-6.181,2.767-6.181,6.181v21.771c0,3.414,2.767,6.181,6.181,6.181
		h226.572c3.414,0,6.181-2.767,6.181-6.181v-21.771C375.466,480.635,372.699,477.867,369.285,477.867z"/>
</g>
<path style="fill:#F27029;" d="M369.286,477.867h-19.42V512h19.42c3.414,0,6.181-2.767,6.181-6.181v-21.771
	C375.467,480.635,372.7,477.867,369.286,477.867z"/>
<g>
</g>
<g>
</g>
<g>
</g>
<g>
</g>
<g>
</g>
<g>
</g>
<g>
</g>
<g>
</g>
<g>
</g>
<g>
</g>
<g>
</g>
<g>
</g>
<g>
</g>
<g>
</g>
<g>
</g>
</svg>
