<?xml version="1.0" encoding="iso-8859-1"?>
<!-- Generator: Adobe Illustrator 21.0.2, SVG Export Plug-In . SVG Version: 6.00 Build 0)  -->
<svg version="1.1" id="Layer_1" xmlns="http://www.w3.org/2000/svg" xmlns:xlink="http://www.w3.org/1999/xlink" x="0px" y="0px"
	 viewBox="0 0 40 40" style="enable-background:new 0 0 40 40;" xml:space="preserve">
<g>
	<circle style="fill:#F5CE85;" cx="31.5" cy="9.5" r="5"/>
	<path style="fill:#967A44;" d="M31.5,5C33.981,5,36,7.019,36,9.5S33.981,14,31.5,14S27,11.981,27,9.5S29.019,5,31.5,5 M31.5,4
		C28.462,4,26,6.462,26,9.5s2.462,5.5,5.5,5.5S37,12.538,37,9.5S34.538,4,31.5,4L31.5,4z"/>
</g>
<g>
	<path style="fill:#8BB7F0;" d="M26.5,8.5V5.813l-0.124-0.142c-0.017-0.021-1.631-1.899-1.852-4.167
		c2.802,0.046,4.162,0.464,5.597,0.905c1.671,0.514,3.397,1.045,7.355,1.087c-0.133,1.414-0.802,2.12-0.833,2.152l-0.141,0.145
		L36.5,8.5H26.5z"/>
	<path style="fill:#4E7AB5;" d="M25.108,2.02c2.341,0.091,3.572,0.469,4.867,0.867c1.547,0.476,3.282,1.009,6.919,1.099
		c-0.194,0.86-0.588,1.291-0.601,1.306L36,5.586V6v2h-9V6l-0.002-0.375l-0.244-0.282C26.739,5.326,25.488,3.863,25.108,2.02 M24,1
		c0,2.714,2,5,2,5v3h11V6c0,0,1-1,1-3C29.857,3,30.786,1,24,1L24,1z"/>
</g>
<g>
	<path style="fill:#607D8B;" d="M24.809,9.5l1.5-3h4.155c-0.243,1.694-1.704,3-3.464,3H24.809z"/>
	<path style="fill:#37474F;" d="M29.829,7C29.416,8.164,28.304,9,27,9h-1.382l1-2H29.829 M31,6h-5l-2,4h3C29.209,10,31,8.209,31,6
		L31,6z"/>
</g>
<g>
	<g>
		<path style="fill:#8BB7F0;" d="M23.5,38.5V27.389l-8.2,10.634l-3.507-2.704L24.63,18.671c1.054-1.38,2.646-2.171,4.37-2.171h4
			c3.033,0,5.5,2.467,5.5,5.5v16.5H23.5z"/>
	</g>
	<g>
		<path style="fill:#4E7AB5;" d="M33,17c2.757,0,5,2.243,5,5v16H24v-9.144v-2.935l-1.792,2.324l-6.998,9.077l-2.715-2.094
			l12.534-16.256C25.986,17.719,27.433,17,29,17H33 M33,16h-4c-1.946,0-3.67,0.93-4.766,2.366L11.092,35.41l4.299,3.315L23,28.856
			V39h16V22C39,18.686,36.314,16,33,16L33,16z"/>
	</g>
</g>
<path style="fill:#FFFFFF;" d="M35.074,17.581L24.071,32.584v5.058L37.386,19.98C36.99,18.887,36.15,18.011,35.074,17.581z"/>
<g>
	<line style="fill:none;stroke:#37474F;stroke-linecap:square;stroke-miterlimit:10;" x1="30.5" y1="6.5" x2="32.5" y2="6.5"/>
</g>
<g>
	<path style="fill:#FFC49C;" d="M6,39.5c-1.378,0-2.5-1.122-2.5-2.5v-1.5h16V37c0,1.378-1.122,2.5-2.5,2.5H6z"/>
	<path style="fill:#A16A4A;" d="M19,36v1c0,1.103-0.897,2-2,2H6c-1.103,0-2-0.897-2-2v-1H19 M20,35H3v2c0,1.657,1.343,3,3,3h11
		c1.657,0,3-1.343,3-3V35L20,35z"/>
</g>
<g>
	<path style="fill:#FFC49C;" d="M3,35.5c-1.378,0-2.5-1.122-2.5-2.5V22c0-1.378,1.122-2.5,2.5-2.5h0.5v16H3z"/>
	<path style="fill:#A16A4A;" d="M3,20v15c-1.103,0-2-0.897-2-2V22C1,20.897,1.897,20,3,20 M4,19H3c-1.657,0-3,1.343-3,3v11
		c0,1.657,1.343,3,3,3h1V19L4,19z"/>
</g>
</svg>
