<?xml version="1.0" encoding="utf-8"?>
<svg viewBox="0 0 500 500" xmlns="http://www.w3.org/2000/svg" xmlns:xlink="http://www.w3.org/1999/xlink">
  <rect y="44.673" style="fill:#4CBEFF;" width="45" height="30" x="-16.929"/>
  <path style="fill:#BCF7FC;" d="M 464.071 496.673 L 44.071 496.673 L 44.071 44.673 L 464.071 44.673 L 464.071 496.673 Z"/>
  <rect x="254.071" y="44.673" style="fill:#97E5FD;" width="210" height="452"/>
  <path style="fill:#1C80B9;" d="M 450.071 74.673 L 13.071 74.673 L 13.071 29.673 C 13.071 4.86 33.258 -15.327 58.071 -15.327 L 450.071 -15.327 C 474.884 -15.327 495.071 4.86 495.071 29.673 C 495.071 54.486 474.884 74.673 450.071 74.673 Z"/>
  <path style="fill:#093F61;" d="M 450.071 -15.327 L 254.071 -15.327 L 254.071 74.673 L 450.071 74.673 C 474.884 74.673 495.071 54.486 495.071 29.673 C 495.071 4.86 474.884 -15.327 450.071 -15.327 Z"/>
  <g transform="matrix(1, 0, 0, 1, -16.928804, -15.326775)"/>
  <g transform="matrix(1, 0, 0, 1, -16.928804, -15.326775)"/>
  <g transform="matrix(1, 0, 0, 1, -16.928804, -15.326775)"/>
  <g transform="matrix(1, 0, 0, 1, -16.928804, -15.326775)"/>
  <g transform="matrix(1, 0, 0, 1, -16.928804, -15.326775)"/>
  <g transform="matrix(1, 0, 0, 1, -16.928804, -15.326775)"/>
  <g transform="matrix(1, 0, 0, 1, -16.928804, -15.326775)"/>
  <g transform="matrix(1, 0, 0, 1, -16.928804, -15.326775)"/>
  <g transform="matrix(1, 0, 0, 1, -16.928804, -15.326775)"/>
  <g transform="matrix(1, 0, 0, 1, -16.928804, -15.326775)"/>
  <g transform="matrix(1, 0, 0, 1, -16.928804, -15.326775)"/>
  <g transform="matrix(1, 0, 0, 1, -16.928804, -15.326775)"/>
  <g transform="matrix(1, 0, 0, 1, -16.928804, -15.326775)"/>
  <g transform="matrix(1, 0, 0, 1, -16.928804, -15.326775)"/>
  <g transform="matrix(1, 0, 0, 1, -16.928804, -15.326775)"/>
  <linearGradient id="linear-gradient-2" gradientUnits="userSpaceOnUse" x1="116.373" x2="371.627" y1="477.911" y2="222.656" gradientTransform="matrix(1.550763, 0, 0, 1.550763, -219.737694, -175.576644)">
    <stop offset="0" stop-color="#f9cecf"/>
    <stop offset="1" stop-color="#fdefef"/>
  </linearGradient>
  <linearGradient id="linear-gradient-3" gradientUnits="userSpaceOnUse" x1="204.757" x2="283.243" y1="148.757" y2="70.272" gradientTransform="matrix(1.550763, 0, 0, 1.550763, -219.737694, -175.576644)">
    <stop offset="0" stop-color="#f29da0"/>
    <stop offset="1" stop-color="#f7bdbf"/>
  </linearGradient>
  <linearGradient id="linear-gradient-4" gradientUnits="userSpaceOnUse" x1="190.621" x2="297.378" y1="431.892" y2="325.134" gradientTransform="matrix(1.550763, 0, 0, 1.550763, -219.737694, -175.576644)">
    <stop offset="0" stop-color="#ee7c80"/>
    <stop offset="1" stop-color="#f29da0"/>
  </linearGradient>
  <linearGradient id="linear-gradient-5" x1="208.587" x2="279.413" y1="417.695" y2="346.869" gradientTransform="matrix(1.550763, 0, 0, 1.550763, -219.737694, -175.576644)" xlink:href="#linear-gradient-3"/>
  <g id="_23-fragrance" data-name="23-fragrance" transform="matrix(-0.513286, 0, 0, 0.508608, 328.853607, 181.917847)" style="">
    <g id="gradient">
      <path d="M 312.398 218.67 C 286.537 183.563 262.112 150.405 250.739 116.286 L 225.927 41.85 C 223.395 34.251 216.283 29.125 208.274 29.125 L 109.024 29.125 C 101.014 29.125 93.905 34.251 91.371 41.85 L 66.559 116.286 C 55.186 150.404 30.761 183.563 4.902 218.67 C -36.427 274.776 -83.27 338.368 -83.27 419.919 C -83.27 496.323 -51.608 563.208 5.881 608.253 C 9.157 610.817 13.196 612.212 17.357 612.213 L 299.94 612.213 C 304.099 612.212 308.14 610.817 311.415 608.253 C 368.908 563.208 400.568 496.323 400.568 419.919 C 400.568 338.369 353.726 274.776 312.398 218.67 Z" fill="url(#linear-gradient-2)" style=""/>
      <path d="M 208.274 -70.123 L 109.024 -70.123 C 98.748 -70.123 90.416 -61.792 90.416 -51.513 L 90.416 47.735 L 226.882 47.735 L 226.882 -51.513 C 226.882 -61.792 218.551 -70.123 208.274 -70.123 Z" fill="url(#linear-gradient-3)" style=""/>
      <path d="M 273.406 360.618 C 269.44 356.886 264.037 355.08 258.623 355.676 C 251.335 356.477 194.701 363.347 158.653 386.839 C 122.606 363.347 65.969 356.477 58.683 355.676 C 47.308 354.423 37.506 363.639 38.058 375.072 C 38.47 383.589 43.001 459.255 74.947 493.218 C 86.706 506.009 103.37 513.164 120.744 512.883 C 133.885 512.664 146.82 509.585 158.648 503.861 C 170.478 509.587 183.413 512.667 196.554 512.883 C 213.925 513.163 230.591 506.008 242.35 493.218 C 274.296 459.257 278.827 383.587 279.239 375.072 C 279.503 369.632 277.371 364.35 273.406 360.618 Z" fill="url(#linear-gradient-4)" style=""/>
      <path d="M 172.803 321.657 C 165.375 312.954 151.925 312.954 144.495 321.657 C 138.954 328.141 90.416 386.359 90.416 432.987 C 90.416 477.913 132.99 497.091 155.503 500.952 C 157.585 501.309 159.713 501.309 161.795 500.952 C 184.308 497.091 226.882 477.917 226.882 432.987 C 226.882 386.359 178.344 328.141 172.803 321.657 Z" fill="url(#linear-gradient-5)" style=""/>
      <circle cx="133.836" cy="-1.889" fill="#ee7c80" r="18.61" style=""/>
      <g fill="#fbdedf"/>
    </g>
  </g>
  <path style="fill: rgb(255, 213, 103);" d="M 464.071 422.672 L 303.049 422.672 L 303.049 140.755 L 464.071 140.755 L 464.071 422.672 Z"/>
  <g transform="matrix(0.801105, 0, 0, 0.915314, 78.739471, 21.765892)" style="">
    <rect x="351" y="210" style="fill:#FF8A2A;" width="130" height="30"/>
    <rect x="351" y="270" style="fill:#FF8A2A;" width="130" height="30"/>
    <rect x="351" y="330" style="fill:#FF8A2A;" width="130" height="30"/>
  </g>
</svg>