<svg id="Capa_1" enable-background="new 0 0 512 512" height="512" viewBox="0 0 512 512" width="512" xmlns="http://www.w3.org/2000/svg"><g><g><path d="m201.943 260.25h118.3v202.475h-118.3z" fill="#5a5a5a"/><path d="m299.243 260.25h21v202.47h-21z" fill="#444"/><path d="m240.503 260.25h20.595v202.47h-20.595z" fill="#444"/><path d="m261.098 462.725v41.775h62.311c9.372 0 16.97-7.598 16.97-16.97 0-4.837-2.064-9.445-5.674-12.664l-14.462-12.14h-59.145z" fill="#ddeafb"/><path d="m340.383 487.53c0 9.37-7.6 16.97-16.97 16.97h-21c9.37 0 16.97-7.6 16.97-16.98 0-2.42-.52-4.78-1.49-6.93-.96-2.16-2.38-4.12-4.19-5.73l-14.46-12.14h21l14.46 12.15c1.81 1.61 3.23 3.57 4.19 5.72.97 2.16 1.49 4.52 1.49 6.94z" fill="#cbe2ff"/><path d="m261.098 462.725v41.775h-62.311c-9.372 0-16.97-7.598-16.97-16.97 0-4.837 2.064-9.445 5.674-12.664l14.452-12.14h59.155z" fill="#ddeafb"/><path d="m240.503 462.725h20.595v41.775h-20.595z" fill="#cbe2ff"/><path d="m302.123 28.07v29.39c0 22.66-18.36 41.03-41.02 41.03h-.02c-4.7 0-9.22-.79-13.42-2.26-.2-.06-.4-.13-.59-.2-15.76-5.72-27.01-20.83-27.01-38.57v-29.39l41.035 7.03z" fill="#ffcebf"/><path d="m302.123 28.07v29.39c0 22.66-18.36 41.03-41.02 41.03h-.02c-4.7 0-9.22-.79-13.42-2.26 16.05-5.57 27.57-20.82 27.57-38.77l-.34-24.724c16.21-3.7 27.23-4.666 27.23-4.666z" fill="#ffb09e"/><path d="m358.273 136.52v21.3h-38.03v102.43h-118.3v-102.43h-38.02v-21.3c0-21 17.02-38.03 38.02-38.03h25.4l33.755 4.76 32.245-4.76h26.9c10.5 0 20.01 4.25 26.89 11.13 6.87 6.89 11.14 16.4 11.14 26.9z" fill="#82aee3"/><g fill="#528fd8"><path d="m165.923 124.32c.29-.88.62-1.75.99-2.6-.36.85-.69 1.72-.99 2.6z"/><path d="m299.243 157.82h21v102.43h-21z"/><path d="m358.273 136.52v21.3h-18.12v-11.77c0-9.56-2.32-19.03-7.11-27.3-1.96-3.37-4.24-6.45-6.91-9.13-6.88-6.88-16.39-11.13-26.89-11.13h21c10.5 0 20.01 4.25 26.89 11.13 6.87 6.89 11.14 16.4 11.14 26.9z"/></g><path d="m358.273 157.82v125.5c0 10.5-8.52 19.01-19.02 19.01-3.28 0-6.36-.83-9.05-2.3 0 .01-.01 0-.01 0-5.93-3.21-9.95-9.49-9.95-16.71v-125.5z" fill="#ffcebf"/><path d="m358.273 157.82v125.5c0 10.5-8.52 19.01-19.02 19.01-3.28 0-6.36-.83-9.05-2.3 5.93-3.21 9.95-9.49 9.95-16.71v-125.5z" fill="#ffb09e"/><path d="m459.573 72.69-12.19 76.79c-10.93-10.94-28.68-10.94-39.62 0-10.95 10.95-10.95 28.7-.01 39.64-10.94-10.94-28.69-10.94-39.63 0-10.95 10.95-10.95 28.7 0 39.64-10.95-10.94-28.7-10.94-39.64 0-10.95 10.95-10.95 28.69-.01 39.63l-47.13 47.14c-7.53 7.53-7.53 19.74 0 27.27 5.39 5.39 8.42 12.7 8.42 20.31v.08l-.03 17.15c-.02 7.61-3.05 14.9-8.43 20.27l-62.26 62.26c-17.04 17.04-41.93 21.44-63.03 13.21-7.36-2.86-14.27-7.27-20.21-13.21l-66.41-66.41c-22.99-22.99-22.99-60.26 0-83.24l62.25-62.26c5.38-5.38 12.67-8.41 20.28-8.43l17.15-.03c7.64-.02 14.98 3.01 20.39 8.42 3.77 3.76 8.7 5.65 13.63 5.65 4.94 0 9.88-1.89 13.64-5.65l166.05-166.04 47.17-7.49z" fill="#ddeafb"/><path d="m459.573 72.69-12.19 76.79c-10.93-10.94-28.68-10.94-39.62 0-10.95 10.95-10.95 28.7-.01 39.64-10.94-10.94-28.69-10.94-39.63 0-10.95 10.95-10.95 28.7 0 39.64-10.95-10.94-28.7-10.94-39.64 0-10.95 10.95-10.95 28.69-.01 39.63l-47.13 47.14c-7.53 7.53-7.53 19.74 0 27.27 5.39 5.39 8.42 12.7 8.42 20.31v.08l-.03 17.15c-.02 7.61-3.05 14.9-8.43 20.27l-62.26 62.26c-17.04 17.04-41.93 21.44-63.03 13.21-7.36-2.86-14.27-7.27-20.21-13.21l-17.12-17.12c5.94 5.94 12.85 10.35 20.21 13.21 21.1 8.23 45.99 3.83 63.03-13.21l62.26-62.26c5.38-5.37 8.41-12.66 8.43-20.27l.03-17.15v-.08c0-7.61-3.03-14.92-8.42-20.31-7.53-7.53-7.53-19.74 0-27.27l47.13-47.14c-10.94-10.94-10.94-28.68.01-39.63 10.94-10.94 28.69-10.94 39.64 0-10.95-10.94-10.95-28.69 0-39.64 10.94-10.94 28.69-10.94 39.63 0-10.94-10.94-10.94-28.69.01-39.64 10.94-10.94 28.69-10.94 39.62 0l8.96-56.44z" fill="#cbe2ff"/><path d="m302.123 28.07s-10.68 8.74-26.89 12.44c-4.35.99-9.1 1.62-14.14 1.62-23.85 0-41.03-14.06-41.03-14.06 0-11.35 9.22-20.57 20.58-20.57h40.91c11.35 0 20.57 9.22 20.57 20.57z" fill="#5a5a5a"/><path d="m275.233 40.51v-12.44c0-11.35-9.22-20.57-20.57-20.57h26.89c11.35 0 20.57 9.22 20.57 20.57 0 0-10.68 8.74-26.89 12.44z" fill="#444"/><path d="m201.943 157.82v125.5c0 10.5-8.51 19.01-19.01 19.01-3.46 0-6.71-.93-9.5-2.55-5.69-3.28-9.51-9.42-9.51-16.46v-125.5z" fill="#ffcebf"/><path d="m201.943 157.82v125.5c0 10.5-8.51 19.01-19.01 19.01-3.46 0-6.71-.93-9.5-2.55 5.68-3.28 9.5-9.43 9.5-16.46v-125.5z" fill="#ffb09e"/><path d="m293.343 98.49-18.41 19.32c-6.17 6.48-15.69 7.78-23.22 3.84-1.72-.9-3.34-2.07-4.79-3.52l-19.58-19.64z" fill="#ffcebf"/><path d="m293.343 98.49-18.41 19.32c-6.17 6.48-15.69 7.78-23.22 3.84 1.85-.96 3.58-2.24 5.11-3.84l18.41-19.32z" fill="#ffb09e"/><path d="m81.746 379.846h113.233v28.115h-113.233z" fill="#82aee3" transform="matrix(.707 .707 -.707 .707 319.057 17.535)"/><path d="m156.836 415.833h28.114v21.213h-28.114z" fill="#528fd8" transform="matrix(.707 -.707 .707 .707 -251.486 245.742)"/></g><g><path d="m113.572 338.626c-2.93-2.928-7.678-2.928-10.607 0l-19.88 19.88c-2.929 2.93-2.929 7.678 0 10.607l80.067 80.068c1.407 1.406 3.314 2.196 5.304 2.196s3.896-.79 5.304-2.196l19.881-19.881c1.406-1.407 2.196-3.314 2.196-5.304s-.79-3.896-2.196-5.304zm54.884 94.645-69.461-69.461 9.273-9.273 69.462 69.461z"/><path d="m282.902 243.491-50.435 50.436c-2.929 2.93-2.929 7.678 0 10.607 1.465 1.464 3.385 2.196 5.304 2.196s3.839-.732 5.304-2.196l50.435-50.436c2.929-2.93 2.929-7.678 0-10.607-2.93-2.928-7.678-2.928-10.608 0z"/><path d="m467.067 72.911c.137-4.646-4.131-8.354-8.669-7.629l-76.791 12.19c-1.563.248-3.008.984-4.127 2.104 0 0-167.323 167.181-168.032 167.637v-89.392c0-4.143-3.357-7.5-7.5-7.5h-30.529v-13.805c0-16.834 13.695-30.529 30.529-30.529h22.28l17.389 17.436c10.651 10.679 28.337 10.485 38.747-.442l16.19-16.993h23.689c4.847 0 10.206-.62 10.725-6.729.55-6.493-5.546-8.271-10.725-8.271h-24.109c8.347-8.719 13.492-20.527 13.492-33.522v-29.393c-.001-15.479-12.595-28.073-28.075-28.073h-40.912c-15.48 0-28.074 12.594-28.074 28.073v.024.008 29.36c0 12.727 5.025 24.666 13.467 33.522h-24.084c-25.104 0-45.529 20.425-45.529 45.529v98.506c-10.916-.595-22.223 2.779-30.079 10.635l-62.25 62.258c-25.546 25.538-25.546 68.301-.001 93.849l66.41 66.41c11.509 11.509 27.545 18.605 43.818 19.362.003 13.49 10.979 24.464 24.47 24.464h124.622c21.628 0 33.365-28.555 16.118-42.879l-11.784-9.893v-152.027c17.325 8.387 38.028-4.723 38.028-23.881v-47.445c2.605.859 5.586.259 7.657-1.814 2.866-2.868 2.869-7.734-.005-10.606-7.919-7.911-7.911-21.119.003-29.03 7.907-7.909 21.115-7.909 29.022-.001 2.929 2.93 7.678 2.929 10.606.001 2.867-2.867 2.875-7.733.001-10.606-8.002-8.003-7.997-21.026.01-29.033 7.903-7.905 21.108-7.913 29.011-.003 4.233 4.239 11.78 1.748 12.713-4.125l12.155-76.566c.074-.387.111-.791.123-1.181zm-197.564 39.723c-5.7 4.92-11.455 4.986-17.266.197l-6.825-6.844h30.424zm-19.873-23.652c-13.198-4.796-22.065-17.462-22.065-31.518v-16.01c8.131 4.036 19.806 8.172 33.53 8.172 13.725 0 25.399-4.136 33.53-8.172v16.011c0 22.735-23.692 39.246-44.995 31.517zm-8.991-73.982h40.912c5.978 0 11.021 4.038 12.572 9.526-5.599 3.573-17.897 10.1-33.028 10.1s-27.429-6.527-33.028-10.1c1.551-5.488 6.593-9.526 12.572-9.526zm-46.192 150.321v117.998c0 6.35-5.165 11.515-11.515 11.515s-11.515-5.165-11.515-11.515v-117.998zm-5.069 321.183c12.197-2.242 23.656-7.908 32.812-16.279h31.408v26.775h-54.811c-5.222 0-9.409-5.274-9.409-10.496zm97.224-80.585c6.83-6.818 10.605-15.896 10.632-25.566l.029-17.242c0-9.532-3.87-18.868-10.616-25.613-4.594-4.595-4.594-12.069 0-16.664l26.097-26.103v160.494h-44.146v-31.302zm-33.004 49.306h-16.302l16.302-16.302zm79.282 32.304c0 5.223-4.249 9.471-9.471 9.471h-54.812v-26.775h48.915l12.271 10.302c1.97 1.791 3.097 4.338 3.097 7.002zm6.377-192.695c-6.343 0-11.503-5.155-11.514-11.495v-3.612l6.033-6.035c2.929-2.929 2.929-7.678-.001-10.606-7.914-7.914-7.9-21.113.012-29.022 4.628-4.63 10.937-6.562 16.984-5.834v55.09c0 6.349-5.165 11.514-11.514 11.514zm102.556-158.103c-13.254-5.799-29.142-2.765-39.354 7.445-8.041 8.042-11.416 19.01-10.126 29.505-10.827-1.322-21.797 2.419-29.514 10.135-7.72 7.721-11.465 18.691-10.142 29.523-10.489-1.298-21.461 2.08-29.497 10.116-11.666 11.664-13.745 30.496-4.757 44.377l-42.385 42.395c-10.44 10.442-10.44 27.433.001 37.876 3.954 3.954 6.223 9.424 6.223 15.073l-.029 17.143c-.016 5.668-2.228 10.988-6.234 14.987l-62.26 62.26c-19.714 19.714-52.951 19.685-72.633 0l-66.41-66.409c-19.731-19.733-19.744-52.899 0-72.635l62.25-62.259c5.078-5.078 12.492-6.948 19.472-6.241v33.297c0 14.62 11.895 26.515 26.515 26.515s26.515-11.895 26.515-26.515v-20.007c4.725-1.145 9.062-3.563 12.589-7.089l164.326-164.318 51.982-8.252-18.208 18.596c-2.897 2.96-2.848 7.708.112 10.606 2.896 2.836 7.762 2.791 10.606-.112l17.622-17.997z"/></g></g></svg>