<svg viewBox="-46 0 512 512" xmlns="http://www.w3.org/2000/svg"><path d="m30 512h-30v-215c0-8.285156 6.714844-15 15-15h15zm0 0" fill="#663325"/><path d="m30 45h-14c-8.835938 0-16-7.164062-16-16v-29h30zm0 0" fill="#663325"/><path d="m159.589844 322.15625c-34.09375 0-66.546875-6.785156-96.714844-13.089844-17.34375-3.625-33.726562-7.050781-49.855469-9.199218l-13.019531-1.730469v-270.265625l16.980469 2.261718c17.433593 2.320313 35.238281 6.050782 52.457031 9.65625 51.046875 10.691407 103.835938 21.746094 159.152344-.378906 54.746094-21.898437 129.898437-19.96875 182.753906 4.695313l8.65625 4.042969v273.105468l-21.34375-9.960937c-45.195312-21.089844-112.035156-22.785157-158.925781-4.027344-27.464844 10.984375-54.273438 14.890625-80.140625 14.890625zm0 0" fill="#e63950"/><path d="m228.589844 39.410156c-6.230469 2.492188-12.425782 4.542969-18.589844 6.242188v270.941406c9.816406-2.277344 19.730469-5.328125 29.730469-9.328125 46.894531-18.757813 113.730469-17.0625 158.925781 4.027344l21.34375 9.960937v-273.105468l-8.65625-4.042969c-52.855469-24.664063-128.007812-26.59375-182.753906-4.695313zm0 0" fill="#cc2e43"/></svg>