<svg height="512" viewBox="0 0 256 256" width="512" xmlns="http://www.w3.org/2000/svg"><path d="m201.452 49.257h-51.806v-12.085a9.08 9.08 0 0 0 -9.07-9.069h-27.153a9.079 9.079 0 0 0 -9.069 9.069v12.085h-51.806a2.5 2.5 0 0 0 -2.5 2.5v26.4a2.5 2.5 0 0 0 2.5 2.5h11.416l17.882 141.323a2.5 2.5 0 0 0 2.481 2.187h45.405a2.5 2.5 0 0 0 0-5h-43.202l-17.53-138.514h116l-1.5 11.863a2.5 2.5 0 1 0 4.961.628l1.58-12.491h11.416a2.5 2.5 0 0 0 2.5-2.5v-26.4a2.5 2.5 0 0 0 -2.505-2.496zm-92.1-12.085a4.074 4.074 0 0 1 4.069-4.069h27.153a4.074 4.074 0 0 1 4.07 4.069v12.085h-35.29zm89.6 38.481h-143.904v-21.4h143.9z" fill="#846f75"/><g fill="#ebe7f2"><path d="m127 203.247a2.5 2.5 0 0 1 -2.5-2.5v-103.138a2.5 2.5 0 1 1 5 0v103.138a2.5 2.5 0 0 1 -2.5 2.5z"/><path d="m106.852 203.247a2.5 2.5 0 0 1 -2.482-2.226l-11.387-103.137a2.5 2.5 0 0 1 4.97-.549l11.386 103.137a2.5 2.5 0 0 1 -2.21 2.759 2.363 2.363 0 0 1 -.277.016z"/><path d="m156.394 119.506a2.617 2.617 0 0 1 -.278-.015 2.5 2.5 0 0 1 -2.211-2.759l2.142-19.4a2.5 2.5 0 0 1 4.971.549l-2.142 19.4a2.5 2.5 0 0 1 -2.482 2.225z"/><path d="m156.963 222.851a2.5 2.5 0 0 1 -1.083-.248c-8.667-4.174-13.5-13.579-13.7-13.977a2.5 2.5 0 0 1 4.46-2.259c.076.148 4.324 8.319 11.412 11.731a2.5 2.5 0 0 1 -1.087 4.753z"/><path d="m161.563 176.069a2.5 2.5 0 0 1 -2.449-2.012c-.121-.607-2.938-15-.633-24.945 3.091-13.329 8.749-20.45 8.989-20.747a2.5 2.5 0 1 1 3.89 3.139c-.047.06-5.2 6.611-8.007 18.738-2.066 8.906.637 22.7.666 22.839a2.5 2.5 0 0 1 -2.456 2.988z"/></g><path d="m174.751 239.254c-7.684 0-20.2-3.659-30.834-11.834-8.8-6.761-19.282-18.89-19.276-38.277a50.091 50.091 0 0 1 6.954-25.46 2.5 2.5 0 0 1 4.037-.371 45.749 45.749 0 0 0 11.59 9.542c-.366-2.375-.574-4.772-.778-7.123l-.149-1.691c-1.674-18.486 5.1-35.7 19.588-49.775a85.482 85.482 0 0 1 22.517-15.765 2.5 2.5 0 0 1 3.377 3.092c-.116.341-11.5 34.375-1.291 53.192a21.412 21.412 0 0 0 10.478 9.766 50.047 50.047 0 0 1 -.964-9.79c0-1.381.067-2.812.2-4.375a2.5 2.5 0 0 1 3.959-1.807 50.293 50.293 0 0 1 20.7 40.566 49.785 49.785 0 0 1 -14.543 35.3 2.45 2.45 0 0 1 -.225.219 2.5 2.5 0 0 1 -3.851-.761 38.094 38.094 0 0 0 -8.388-10.107c-7.757-6.933-11.862-13.923-12.2-20.776-.006-.144-.012-.287-.015-.429-3.652 4.453-7.4 10.484-7.535 16.593-.1 4.547 1.8 8.5 5.8 12.078a43.078 43.078 0 0 1 9.435 11.418 2.5 2.5 0 0 1 -1.337 3.526 49.922 49.922 0 0 1 -17.249 3.049zm-40.458-70.06a45.123 45.123 0 0 0 -4.651 19.951c-.006 17.35 9.417 28.235 17.322 34.311 9.705 7.459 20.949 10.8 27.787 10.8a45.08 45.08 0 0 0 12.6-1.783 43.027 43.027 0 0 0 -6.782-7.485c-5.093-4.552-7.606-9.912-7.469-15.931.326-14.263 15.686-26.938 16.339-27.471a2.5 2.5 0 0 1 3.421 3.629c-.335.38-8.394 9.912 8.323 24.852a47.772 47.772 0 0 1 7.7 8.572 44.788 44.788 0 0 0 10.973-29.493 45.279 45.279 0 0 0 -14.851-33.446 45.143 45.143 0 0 0 1.874 11.965 2.5 2.5 0 0 1 -3.012 3.137 26.956 26.956 0 0 1 -17.784-13.645c-8.639-15.938-3.736-40.263-.771-51.352-11.257 6.648-36.96 25.51-34.037 57.782l.151 1.71a57.541 57.541 0 0 0 1.742 11.421 2.5 2.5 0 0 1 -3.388 3.01 50.451 50.451 0 0 1 -15.487-10.534z" fill="#65c1d6"/><path d="m137.545 152.177a2.5 2.5 0 0 1 -1.721-.685c-.469-.444-11.482-11-11.59-21.619a13.853 13.853 0 0 1 4.319-10.328 27.087 27.087 0 0 0 8.468-21.286 4.5 4.5 0 0 1 .007-1.039 2.5 2.5 0 0 1 4.487-1.088c.59.806 14.324 19.889 2.725 32.906-9.132 10.25-4.527 19.391-4.48 19.483a2.5 2.5 0 0 1 -2.215 3.656zm3.908-45.9a32.65 32.65 0 0 1 -9.389 16.825 8.914 8.914 0 0 0 -2.83 6.718c.037 3.723 2.05 7.8 4.35 11.21.283-4.35 1.954-9.743 6.924-15.32 5.167-5.797 3.392-13.734.945-19.431z" fill="#65c1d6"/><path d="m205.876 207.713a2.5 2.5 0 0 1 -2-4c.049-.065 4.837-6.569 4.837-13.9a2.5 2.5 0 1 1 5 0c0 9.033-5.6 16.583-5.838 16.9a2.5 2.5 0 0 1 -1.999 1z" fill="#ebe7f2"/></svg>