<?xml version="1.0" encoding="utf-8"?>
<svg height="512" viewBox="0 0 256 256" width="512" xmlns="http://www.w3.org/2000/svg">
  <g transform="matrix(1, 0, 0, 1, 21.676363, -0.24263)" style="opacity: 0.62;">
    <path d="M 201.452 49.257 L 149.646 49.257 L 149.646 37.172 C 149.64 32.165 145.583 28.109 140.576 28.103 L 113.423 28.103 C 108.417 28.109 104.36 32.166 104.354 37.172 L 104.354 49.257 L 52.548 49.257 C 51.167 49.257 50.048 50.376 50.048 51.757 L 50.048 78.157 C 50.048 79.538 51.167 80.657 52.548 80.657 L 63.964 80.657 L 81.846 221.98 C 82.004 223.23 83.067 224.167 84.327 224.167 L 129.732 224.167 C 131.657 224.167 132.859 222.084 131.897 220.417 C 131.45 219.643 130.625 219.167 129.732 219.167 L 86.53 219.167 L 69 80.653 L 185 80.653 L 183.5 92.516 C 183.258 94.425 185.174 95.881 186.949 95.135 C 187.772 94.789 188.349 94.03 188.461 93.144 L 190.041 80.653 L 201.457 80.653 C 202.838 80.653 203.957 79.534 203.957 78.153 L 203.957 51.753 C 203.955 50.372 202.833 49.254 201.452 49.257 Z M 109.352 37.172 C 109.355 34.926 111.175 33.106 113.421 33.103 L 140.574 33.103 C 142.82 33.105 144.641 34.926 144.644 37.172 L 144.644 49.257 L 109.354 49.257 Z M 198.952 75.653 L 55.048 75.653 L 55.048 54.253 L 198.948 54.253 Z" fill="#846f75"/>
    <g fill="#ebe7f2">
      <path d="m127 203.247a2.5 2.5 0 0 1 -2.5-2.5v-103.138a2.5 2.5 0 1 1 5 0v103.138a2.5 2.5 0 0 1 -2.5 2.5z"/>
      <path d="m106.852 203.247a2.5 2.5 0 0 1 -2.482-2.226l-11.387-103.137a2.5 2.5 0 0 1 4.97-.549l11.386 103.137a2.5 2.5 0 0 1 -2.21 2.759 2.363 2.363 0 0 1 -.277.016z"/>
      <path d="m156.394 119.506a2.617 2.617 0 0 1 -.278-.015 2.5 2.5 0 0 1 -2.211-2.759l2.142-19.4a2.5 2.5 0 0 1 4.971.549l-2.142 19.4a2.5 2.5 0 0 1 -2.482 2.225z"/>
      <path d="m156.963 222.851a2.5 2.5 0 0 1 -1.083-.248c-8.667-4.174-13.5-13.579-13.7-13.977a2.5 2.5 0 0 1 4.46-2.259c.076.148 4.324 8.319 11.412 11.731a2.5 2.5 0 0 1 -1.087 4.753z"/>
      <path d="m161.563 176.069a2.5 2.5 0 0 1 -2.449-2.012c-.121-.607-2.938-15-.633-24.945 3.091-13.329 8.749-20.45 8.989-20.747a2.5 2.5 0 1 1 3.89 3.139c-.047.06-5.2 6.611-8.007 18.738-2.066 8.906.637 22.7.666 22.839a2.5 2.5 0 0 1 -2.456 2.988z"/>
    </g>
    <path d="M 174.751 239.254 C 167.067 239.254 154.551 235.595 143.917 227.42 C 135.117 220.659 124.635 208.53 124.641 189.143 C 124.641 180.187 127.043 171.395 131.595 163.683 C 132.462 162.215 134.512 162.027 135.632 163.312 C 138.944 167.109 142.86 170.333 147.222 172.854 C 146.856 170.479 146.648 168.082 146.444 165.731 L 146.295 164.04 C 144.621 145.554 151.395 128.34 165.883 114.265 C 172.489 107.83 180.093 102.506 188.4 98.5 C 190.16 97.722 192.102 99.142 191.896 101.055 C 191.876 101.238 191.836 101.418 191.777 101.592 C 191.661 101.933 180.277 135.967 190.486 154.784 C 192.754 159.146 196.454 162.594 200.964 164.55 C 200.322 161.326 199.999 158.047 200 154.76 C 200 153.379 200.067 151.948 200.2 150.385 C 200.367 148.468 202.546 147.45 204.123 148.553 C 204.135 148.561 204.147 148.569 204.159 148.578 C 217.137 158.022 224.827 173.094 224.859 189.144 C 224.895 202.376 219.662 215.077 210.316 224.444 C 210.246 224.522 210.171 224.595 210.091 224.663 C 208.863 225.714 206.976 225.341 206.24 223.902 C 204.05 220.073 201.212 216.653 197.852 213.795 C 190.095 206.862 185.99 199.872 185.652 193.019 C 185.646 192.875 185.64 192.732 185.637 192.59 C 181.985 197.043 178.237 203.074 178.102 209.183 C 178.002 213.73 179.902 217.683 183.902 221.261 C 187.683 224.494 190.875 228.357 193.337 232.679 C 194.054 234.017 193.423 235.679 192 236.205 C 186.475 238.23 180.635 239.262 174.751 239.254 Z M 134.293 169.194 C 131.234 175.4 129.642 182.226 129.642 189.145 C 129.636 206.495 139.059 217.38 146.964 223.456 C 156.669 230.915 167.913 234.256 174.751 234.256 C 179.014 234.26 183.256 233.66 187.351 232.473 C 185.392 229.72 183.116 227.208 180.569 224.988 C 175.476 220.436 172.963 215.076 173.1 209.057 C 173.426 194.794 188.786 182.119 189.439 181.586 C 190.93 180.369 193.179 181.223 193.487 183.122 C 193.61 183.879 193.379 184.651 192.86 185.215 C 192.525 185.595 184.466 195.127 201.183 210.067 C 204.086 212.603 206.672 215.481 208.883 218.639 C 215.988 210.459 219.886 199.981 219.856 189.146 C 219.832 176.404 214.441 164.263 205.005 155.7 C 205.089 159.754 205.72 163.779 206.879 167.665 C 207.429 169.509 205.776 171.257 203.904 170.811 C 203.891 170.808 203.879 170.805 203.867 170.802 C 196.239 169.051 189.749 164.071 186.083 157.157 C 177.444 141.219 182.347 116.894 185.312 105.805 C 174.055 112.453 148.352 131.315 151.275 163.587 L 151.426 165.297 C 151.622 169.153 152.206 172.979 153.168 176.718 C 153.719 178.562 152.067 180.311 150.194 179.866 C 150.053 179.832 149.914 179.786 149.78 179.728 C 144.005 177.214 138.753 173.641 134.293 169.194 Z" fill="#65c1d6"/>
    <path d="M 137.545 152.177 C 136.905 152.177 136.289 151.932 135.824 151.492 C 135.355 151.048 124.342 140.492 124.234 129.873 C 124.157 125.976 125.724 122.227 128.553 119.545 C 134.385 114.051 137.485 106.258 137.021 98.259 C 136.983 97.914 136.986 97.565 137.028 97.22 C 137.327 95.319 139.572 94.454 141.069 95.664 C 141.237 95.8 141.387 95.957 141.515 96.132 C 142.105 96.938 155.839 116.021 144.24 129.038 C 135.108 139.288 139.713 148.429 139.76 148.521 C 140.628 150.185 139.421 152.176 137.545 152.177 Z M 141.453 106.277 C 140.087 112.702 136.815 118.566 132.064 123.102 C 130.206 124.836 129.177 127.28 129.234 129.82 C 129.271 133.543 131.284 137.62 133.584 141.03 C 133.867 136.68 135.538 131.287 140.508 125.71 C 145.675 119.913 143.9 111.976 141.453 106.279 Z" fill="#65c1d6"/>
    <path d="M 205.876 207.713 C 203.951 207.713 202.749 205.63 203.711 203.963 C 203.761 203.876 203.816 203.793 203.876 203.713 C 203.925 203.648 208.713 197.144 208.713 189.813 C 208.713 187.888 210.796 186.686 212.463 187.648 C 213.237 188.095 213.713 188.92 213.713 189.813 C 213.713 198.846 208.113 206.396 207.875 206.713 C 207.403 207.342 206.663 207.713 205.876 207.713 Z" fill="#ebe7f2"/>
  </g>
  <g transform="matrix(0.261276, 0, 0, 0.261276, -119.718979, -27.653696)" style="filter: none; opacity: 0.73;">
    <g style="" transform="matrix(5.755205, 0, 0, 3.89677, 794.746887, -933.715942)">
      <path d="M 26.853 364.449 C 18.577 364.449 11.853 357.725 11.853 349.449 C 11.853 341.173 18.577 334.449 26.853 334.449 C 35.129 334.449 41.853 341.173 41.853 349.449 L 71.853 349.449 C 71.853 329.919 59.275 313.425 41.853 307.212 L 41.853 274.449 L 26.853 274.449 L 11.853 274.449 L 11.853 307.212 C -5.569 313.425 -18.147 329.919 -18.147 349.449 C -18.147 374.263 2.039 394.449 26.853 394.449 C 35.129 394.449 41.853 401.173 41.853 409.449 C 41.853 417.725 35.129 424.449 26.853 424.449 C 18.577 424.449 11.853 417.725 11.853 409.449 L -18.147 409.449 C -18.147 428.979 -5.569 445.473 11.853 451.686 L 11.853 484.449 L 26.853 484.449 L 41.853 484.449 L 41.853 451.686 C 59.275 445.473 71.853 428.979 71.853 409.449 C 71.853 384.635 51.667 364.449 26.853 364.449 Z" fill="#575f64"/>
      <path d="M 41.853 451.686 C 59.275 445.473 71.853 428.979 71.853 409.449 C 71.853 384.635 51.667 364.449 26.853 364.449 L 26.853 394.449 C 35.129 394.449 41.853 401.173 41.853 409.449 C 41.853 417.725 35.129 424.449 26.853 424.449 L 26.853 484.449 L 41.853 484.449 Z" fill="#474f54"/>
      <path d="M 41.853 349.449 L 71.853 349.449 C 71.853 329.919 59.275 313.425 41.853 307.212 L 41.853 274.449 L 26.853 274.449 L 26.853 334.449 C 35.129 334.449 41.853 341.173 41.853 349.449 Z" fill="#474f54"/>
    </g>
  </g>
</svg>