<?xml version="1.0" encoding="utf-8"?>
<svg viewBox="204.439 169.469 58 58" xmlns="http://www.w3.org/2000/svg">
  <g transform="matrix(1, 0, 0, 1, 204.438904, 169.468796)">
    <polygon style="fill: rgb(255, 224, 192);" points="48,0 10,0 0,16 0,58 58,58 58,16 &#9;"/>
    <g/>
    <polygon style="fill:#DAAE86;" points="10,0 0,16 58,16 48,0 &#9;"/>
    <rect x="28" style="fill:#F4D5BD;" width="2" height="16"/>
  </g>
  <path d="M 245.239 216.466 C 241.181 216.466 237.894 213.99 237.894 210.936 L 237.894 177.253 L 252.582 177.253 L 252.582 210.936 C 252.583 213.99 249.295 216.466 245.239 216.466 Z M 245.239 216.466" fill="#efedee" style=""/>
  <path d="M 242.582 210.936 L 242.582 177.253 L 237.894 177.253 L 237.894 210.936 C 237.894 213.99 241.181 216.466 245.239 216.466 C 246.059 216.466 246.846 216.362 247.582 216.177 C 244.675 215.44 242.582 213.372 242.582 210.936 Z M 242.582 210.936" fill="#d9d7d8" style=""/>
  <path d="M 237.894 198.457 L 237.894 210.936 C 237.894 213.99 241.181 216.466 245.239 216.466 C 249.295 216.466 252.583 213.99 252.583 210.936 L 252.583 198.457 Z M 237.894 198.457" style="fill: rgb(173, 250, 96);"/>
  <path d="M 242.582 210.936 L 242.582 198.457 L 237.894 198.457 L 237.894 210.936 C 237.894 213.99 241.181 216.466 245.239 216.466 C 246.059 216.466 246.846 216.362 247.582 216.177 C 244.675 215.44 242.582 213.372 242.582 210.936 Z M 242.582 210.936" style="fill: rgb(145, 230, 89);"/>
  <path d="M 252.573 179.698 L 237.903 179.698 C 236.962 179.698 236.196 179.122 236.196 178.411 L 236.196 176.186 C 236.196 175.476 236.962 174.9 237.903 174.9 L 252.573 174.9 C 253.516 174.9 254.281 175.476 254.281 176.186 L 254.281 178.411 C 254.281 179.122 253.516 179.698 252.573 179.698 Z M 252.573 179.698" fill="#d9d7d8" style=""/>
  <path d="M 240.884 178.411 L 240.884 176.186 C 240.884 175.476 241.649 174.9 242.592 174.9 L 237.903 174.9 C 236.962 174.9 236.196 175.476 236.196 176.186 L 236.196 178.411 C 236.196 179.122 236.962 179.696 237.903 179.696 L 242.592 179.696 C 241.649 179.698 240.884 179.122 240.884 178.411 Z M 240.884 178.411" fill="#bab8b9" style=""/>
  <path d="M 222.735 216.466 C 218.679 216.466 215.39 213.99 215.39 210.936 L 215.39 177.253 L 230.08 177.253 L 230.08 210.936 C 230.08 213.99 226.791 216.466 222.735 216.466 Z M 222.735 216.466" fill="#efedee" style=""/>
  <path d="M 220.078 210.936 L 220.078 177.253 L 215.39 177.253 L 215.39 210.936 C 215.39 213.99 218.679 216.466 222.735 216.466 C 223.555 216.466 224.342 216.362 225.08 216.177 C 222.171 215.44 220.078 213.372 220.078 210.936 Z M 220.078 210.936" fill="#d9d7d8" style=""/>
  <path d="M 215.39 192.573 L 215.39 210.936 C 215.39 213.99 218.679 216.466 222.735 216.466 C 226.791 216.466 230.08 213.99 230.08 210.936 L 230.08 192.573 Z M 215.39 192.573" style="fill: rgb(255, 30, 0);"/>
  <path d="M 220.078 210.936 L 220.078 192.573 L 215.39 192.573 L 215.39 210.936 C 215.39 213.99 218.679 216.466 222.735 216.466 C 223.555 216.466 224.342 216.364 225.08 216.177 C 222.171 215.44 220.078 213.372 220.078 210.936 Z M 220.078 210.936" style="fill: rgb(220, 43, 43);"/>
  <path d="M 230.069 179.698 L 215.401 179.698 C 214.458 179.698 213.694 179.122 213.694 178.411 L 213.694 176.186 C 213.694 175.476 214.458 174.9 215.401 174.9 L 230.069 174.9 C 231.013 174.9 231.777 175.476 231.777 176.186 L 231.777 178.411 C 231.777 179.122 231.013 179.698 230.069 179.698 Z M 230.069 179.698" fill="#d9d7d8" style=""/>
  <path d="M 218.381 178.411 L 218.381 176.186 C 218.381 175.476 219.147 174.9 220.09 174.9 L 215.401 174.9 C 214.458 174.9 213.694 175.476 213.694 176.186 L 213.694 178.411 C 213.694 179.122 214.458 179.696 215.401 179.696 L 220.09 179.696 C 219.147 179.698 218.381 179.122 218.381 178.411 Z M 218.381 178.411" fill="#bab8b9" style=""/>
</svg>