<svg xmlns="http://www.w3.org/2000/svg" viewBox="0 0 64 64"><path fill="#32e0c4" d="M48,1H12A7.0081,7.0081,0,0,0,5,8V51a1,1,0,0,0,2,0,3.9845,3.9845,0,0,1,4-4H28a1,1,0,0,0,1-1V41.17a2.1262,2.1262,0,0,1,1.8916-2.1709A2.0027,2.0027,0,0,1,33,41a1,1,0,0,0,2,0V28.17a2.1266,2.1266,0,0,1,1.8916-2.1709,1.9491,1.9491,0,0,1,1.4834.5459A1.9874,1.9874,0,0,1,39,28a1,1,0,0,0,2,0V27a1.9874,1.9874,0,0,1,.625-1.4551,2.0546,2.0546,0,0,1,1.48-.5469A2.1285,2.1285,0,0,1,45,27.17V30a1,1,0,0,0,2,0,1.9987,1.9987,0,0,1,1.3311-1.8867A1,1,0,0,0,49,27.17V2A1,1,0,0,0,48,1Z"/><path fill="#0d7377" d="M30.4653,55.498A10.97,10.97,0,0,1,29,50V46a1,1,0,0,0-1-1H11a6,6,0,0,0,0,12H29.6a1,1,0,0,0,.8652-1.502Z"/><rect width="22" height="10" x="17" y="10" fill="#20aa9e" rx="1"/><path fill="#20aa9e" d="M59,32.17V50A13.0124,13.0124,0,0,1,46,63H40A12.9725,12.9725,0,0,1,27,50V41.17A4.1,4.1,0,0,1,30.78,37a4.04,4.04,0,0,1,2.22.53V28.17a4.2222,4.2222,0,0,1,2-3.62A3.9585,3.9585,0,0,1,36.78,24a4.04,4.04,0,0,1,2.22.53,3.73,3.73,0,0,1,.57.41,4.3037,4.3037,0,0,1,.68-.85,3.6144,3.6144,0,0,1,.75-.55,3.9047,3.9047,0,0,1,4,.01,4.23,4.23,0,0,1,1.96,3.01.0758.0758,0,0,1,.04-.02,3.7238,3.7238,0,0,1,.67-.31A3.9767,3.9767,0,0,1,49.21,26a3.7,3.7,0,0,1,1.79.56,4.075,4.075,0,0,1,1.74,2.13,2.2606,2.2606,0,0,1,.26-.16A3.9855,3.9855,0,0,1,55.21,28,4.1012,4.1012,0,0,1,59,32.17Z"/><path fill="#0d7377" d="M41 23.54V39a1 1 0 0 1-2 0V24.53a3.73 3.73 0 0 1 .57.41 4.3037 4.3037 0 0 1 .68-.85A3.6144 3.6144 0 0 1 41 23.54zM47 26.54V38a1 1 0 0 1-2 0V23.55a4.23 4.23 0 0 1 1.96 3.01A.0758.0758 0 0 1 47 26.54zM53 28.53V40a1 1 0 0 1-2 0V26.56a4.075 4.075 0 0 1 1.74 2.13A2.2606 2.2606 0 0 1 53 28.53zM35 24.55V44a1 1 0 0 1-2 0V28.17A4.2222 4.2222 0 0 1 35 24.55z"/></svg>